<svg width="16" height="16" viewBox="0 0 16 16" fill="none" xmlns="http://www.w3.org/2000/svg">
<path d="M10 4.71335C10 4.26668 9.78 3.85335 9.40667 3.60668L6.74 1.82668C6.29333 1.52668 5.70667 1.52668 5.26 1.82668L2.59333 3.60668C2.22667 3.85335 2 4.26668 2 4.71335V8.50002C2 8.68668 2.14667 8.83335 2.33333 8.83335H9.66667C9.85333 8.83335 10 8.68668 10 8.50002V4.71335ZM6 7.16668C5.36 7.16668 4.83333 6.64002 4.83333 6.00002C4.83333 5.36002 5.36 4.83335 6 4.83335C6.64 4.83335 7.16667 5.36002 7.16667 6.00002C7.16667 6.64002 6.64 7.16668 6 7.16668Z" fill="#BC2228"/>
<path d="M14.6654 14.1666H13.8187V12.1666C14.452 11.96 14.912 11.3666 14.912 10.6666V9.33331C14.912 8.45998 14.1987 7.74664 13.3254 7.74664C12.452 7.74664 11.7387 8.45998 11.7387 9.33331V10.6666C11.7387 11.36 12.192 11.9466 12.812 12.16V14.1666H9.9987V10.1666C9.9987 9.97998 9.85203 9.83331 9.66537 9.83331H2.33203C2.14536 9.83331 1.9987 9.97998 1.9987 10.1666V14.1666H1.33203C1.0587 14.1666 0.832031 14.3933 0.832031 14.6666C0.832031 14.94 1.0587 15.1666 1.33203 15.1666H13.2854C13.2987 15.1666 13.3054 15.1733 13.3187 15.1733C13.332 15.1733 13.3387 15.1666 13.352 15.1666H14.6654C14.9387 15.1666 15.1654 14.94 15.1654 14.6666C15.1654 14.3933 14.9387 14.1666 14.6654 14.1666ZM5.4987 12.1666C5.4987 11.8933 5.72536 11.6666 5.9987 11.6666C6.27203 11.6666 6.4987 11.8933 6.4987 12.1666V14.1666H5.4987V12.1666Z" fill="#BC2228"/>
</svg>
