<svg width="16" height="16" viewBox="0 0 16 16" fill="none" xmlns="http://www.w3.org/2000/svg">
<path d="M7.9987 1.33333C4.32536 1.33333 1.33203 4.32666 1.33203 8C1.33203 11.6733 4.32536 14.6667 7.9987 14.6667C11.672 14.6667 14.6654 11.6733 14.6654 8C14.6654 4.32666 11.672 1.33333 7.9987 1.33333ZM10.8987 10.38C10.8054 10.54 10.6387 10.6267 10.4654 10.6267C10.3787 10.6267 10.292 10.6067 10.212 10.5533L8.14536 9.31999C7.63203 9.01333 7.25203 8.33999 7.25203 7.74666V5.01333C7.25203 4.74 7.4787 4.51333 7.75203 4.51333C8.02536 4.51333 8.25203 4.74 8.25203 5.01333V7.74666C8.25203 7.98666 8.45203 8.33999 8.6587 8.45999L10.7254 9.69333C10.9654 9.83333 11.0454 10.14 10.8987 10.38Z" fill="#BC2228"/>
</svg>
