<svg width="45" height="11" viewBox="0 0 45 11" fill="none" xmlns="http://www.w3.org/2000/svg">
<g clip-path="url(#clip0_407_35836)">
<path d="M2.88759 4.81991H1.14995V1.16992H2.88123C2.88123 1.16992 4.71099 1.08733 4.71099 2.89485C4.71099 4.66107 3.03054 4.81991 2.88759 4.81991ZM3.70081 5.50607C3.70081 5.50607 5.93083 5.06769 5.93083 2.75508C5.93083 0.439286 3.78023 0.10256 3.11631 0.10256H0V10.1662H1.14995V5.83644H2.0966C2.63028 5.83644 3.16078 5.92221 3.89777 7.11981L5.67035 10.1631H7.04266L4.87936 6.6179C4.87936 6.6179 4.35838 5.71255 3.70081 5.50607Z" fill="#BC2228"/>
<path d="M8.92549 1.16992V0.10256H7.76918V1.15721" fill="#919191"/>
<path d="M7.76918 1.54791V10.2075H8.92549V1.55744" fill="#919191"/>
<path d="M22.7262 1.54791H21.5731V10.1948H22.7262V1.54791Z" fill="#919191"/>
<path d="M20.8666 1.53199H16.0635V2.70418H20.8666V1.53199Z" fill="#919191"/>
<path d="M20.8666 9.03216H16.0635V10.2043H20.8666V9.03216Z" fill="#919191"/>
<path d="M19.3037 5.35033H16.0635V6.52569H19.3037V5.35033Z" fill="#919191"/>
<path d="M13.2549 1.54791H12.0923L8.88702 5.87135L12.0923 10.1948H13.2549L10.056 5.87135L13.2549 1.54791Z" fill="#919191"/>
<path d="M14.2198 1.54791L11.0591 5.87135L14.2198 10.1948H15.373L12.209 5.87135L15.373 1.54791H14.2198Z" fill="#BC2228"/>
</g>
<path d="M24.1248 10.0543L24.0196 9.10252H24.189L24.2328 9.52926L24.2533 9.77071C24.2533 9.78755 24.2562 9.82405 24.2591 9.8802C24.2796 9.81844 24.2912 9.77352 24.3088 9.73983C24.3204 9.70614 24.3409 9.66122 24.3701 9.59945L24.6096 9.10252H24.7965L24.8286 9.5798C24.8345 9.65279 24.8374 9.74825 24.8374 9.86897C24.8695 9.78755 24.9221 9.67806 24.9951 9.53488L25.2112 9.10252H25.3836L24.89 10.0543H24.7089L24.6738 9.49557C24.6709 9.46188 24.668 9.3945 24.668 9.29343C24.6417 9.35801 24.6125 9.42539 24.5745 9.50119L24.3058 10.0571H24.1248V10.0543Z" fill="#919191"/>
<path d="M25.3443 10.0542L25.6335 8.74033H25.8087L25.6977 9.24568C25.7649 9.18672 25.8233 9.14461 25.8759 9.11934C25.9314 9.09127 25.9898 9.08004 26.0453 9.08004C26.13 9.08004 26.1971 9.09969 26.2439 9.1418C26.2906 9.18392 26.314 9.23726 26.314 9.30745C26.314 9.34114 26.3052 9.4029 26.2848 9.49274L26.1592 10.0542H25.9839L26.1124 9.4759C26.1329 9.39167 26.1417 9.34114 26.1417 9.31868C26.1417 9.28779 26.127 9.26253 26.1066 9.24287C26.0832 9.22322 26.0482 9.2148 26.0073 9.2148C25.946 9.2148 25.8846 9.23164 25.8291 9.25972C25.7737 9.2906 25.7269 9.33271 25.6977 9.38606C25.6656 9.4394 25.6364 9.52643 25.6101 9.64435L25.5166 10.0542H25.3443Z" fill="#919191"/>
<path d="M26.6764 9.49275H27.243C27.2459 9.47591 27.2459 9.46468 27.2459 9.45626C27.2459 9.37484 27.2226 9.31307 27.1788 9.26815C27.135 9.22604 27.0795 9.20358 27.0123 9.20358C26.9393 9.20358 26.875 9.22885 26.8108 9.27658C26.7494 9.32431 26.7056 9.3973 26.6764 9.49275ZM27.1759 9.72858L27.3452 9.74543C27.3219 9.82404 27.2664 9.89703 27.1759 9.97003C27.0912 10.0402 26.9889 10.0767 26.8663 10.0767C26.7903 10.0767 26.7202 10.0599 26.6589 10.029C26.5976 9.99811 26.5508 9.95038 26.5158 9.8858C26.4837 9.82404 26.4661 9.75105 26.4661 9.67244C26.4661 9.56856 26.4924 9.46749 26.5421 9.36922C26.5946 9.27096 26.6618 9.19797 26.7436 9.15024C26.8225 9.10251 26.9101 9.08005 27.0065 9.08005C27.1291 9.08005 27.2226 9.11655 27.2956 9.18674C27.3686 9.25693 27.4037 9.35238 27.4037 9.47591C27.4037 9.52364 27.4007 9.57136 27.392 9.61909H26.6472C26.6443 9.63874 26.6443 9.65559 26.6443 9.66963C26.6443 9.75947 26.6647 9.82685 26.7115 9.87457C26.7553 9.9223 26.8079 9.94476 26.8692 9.94476C26.9276 9.94476 26.9889 9.92511 27.0444 9.88861C27.0999 9.85212 27.1437 9.79877 27.1759 9.72858Z" fill="#919191"/>
<path d="M27.5203 10.0543L27.7335 9.10251H27.8854L27.8416 9.29623C27.8942 9.22324 27.9438 9.16708 27.9964 9.13339C28.046 9.0969 28.0957 9.08005 28.1483 9.08005C28.1833 9.08005 28.2242 9.09128 28.2768 9.11374L28.2038 9.26535C28.1745 9.2457 28.1424 9.23446 28.1045 9.23446C28.046 9.23446 27.9818 9.26535 27.9205 9.32992C27.8591 9.39449 27.8036 9.50679 27.7686 9.67244L27.6839 10.0543H27.5203Z" fill="#919191"/>
<path d="M28.417 9.49275H28.9836C28.9865 9.47591 28.9865 9.46468 28.9865 9.45626C28.9865 9.37484 28.9631 9.31307 28.9193 9.26815C28.8755 9.22604 28.82 9.20358 28.7499 9.20358C28.6769 9.20358 28.6126 9.22885 28.5484 9.27658C28.4929 9.32431 28.4462 9.3973 28.417 9.49275ZM28.9193 9.72858L29.0887 9.74543C29.0653 9.82404 29.0098 9.89703 28.9193 9.97003C28.8346 10.0402 28.7324 10.0767 28.6097 10.0767C28.5338 10.0767 28.4637 10.0599 28.4024 10.029C28.341 9.99811 28.2943 9.95038 28.2622 9.8858C28.23 9.82404 28.2125 9.75105 28.2125 9.67244C28.2125 9.56856 28.2388 9.46749 28.2885 9.36922C28.341 9.27096 28.4082 9.19797 28.49 9.15024C28.5688 9.10251 28.6565 9.08005 28.7528 9.08005C28.8755 9.08005 28.969 9.11655 29.042 9.18674C29.115 9.25693 29.15 9.35238 29.15 9.47591C29.15 9.52364 29.1471 9.57136 29.1384 9.61909H28.3878C28.3848 9.63874 28.3848 9.65559 28.3848 9.66963C28.3848 9.75947 28.4053 9.82685 28.452 9.87457C28.4958 9.9223 28.5484 9.94476 28.6097 9.94476C28.6681 9.94476 28.7295 9.92511 28.785 9.88861C28.8434 9.85212 28.8843 9.79877 28.9193 9.72858Z" fill="#919191"/>
<path d="M30.2067 9.92228L30.1775 10.0542C30.1366 10.0655 30.0958 10.0683 30.0578 10.0683C29.9877 10.0683 29.9322 10.0514 29.8942 10.0205C29.865 9.99808 29.8475 9.96439 29.8475 9.92228C29.8475 9.90263 29.8533 9.85209 29.8709 9.77629L29.9965 9.22321H29.8592L29.8884 9.09687H30.0227L30.0753 8.86385L30.2739 8.75155L30.198 9.09687H30.3645L30.3382 9.22321H30.1659L30.049 9.74821C30.0315 9.81559 30.0257 9.8549 30.0257 9.86894C30.0257 9.88859 30.0315 9.90263 30.0432 9.91386C30.0578 9.92509 30.0753 9.92789 30.1016 9.92789C30.1454 9.93351 30.1775 9.92789 30.2067 9.92228Z" fill="#919191"/>
<path d="M30.3448 10.0542L30.6368 8.74033H30.8121L30.7011 9.24568C30.7624 9.18672 30.8237 9.14461 30.8792 9.11934C30.9347 9.09408 30.9902 9.08004 31.0516 9.08004C31.1363 9.08004 31.2005 9.09969 31.2502 9.1418C31.2969 9.18392 31.3202 9.23726 31.3202 9.30745C31.3202 9.34114 31.3115 9.4029 31.2881 9.49274L31.1625 10.0542H30.9902L31.1187 9.4759C31.1392 9.39167 31.145 9.34114 31.145 9.31868C31.145 9.28779 31.1363 9.26253 31.1129 9.24287C31.0895 9.22322 31.0574 9.21199 31.0136 9.21199C30.9523 9.21199 30.8909 9.22884 30.8354 9.25691C30.777 9.28779 30.7332 9.32991 30.7011 9.38325C30.6719 9.43659 30.6427 9.52362 30.6135 9.64154L30.5258 10.0514H30.3448V10.0542Z" fill="#919191"/>
<path d="M31.679 9.49275H32.2485C32.2485 9.47591 32.2514 9.46468 32.2514 9.45626C32.2514 9.37484 32.2281 9.31307 32.1842 9.26815C32.1404 9.22604 32.0849 9.20358 32.0149 9.20358C31.9418 9.20358 31.8717 9.22885 31.8133 9.27658C31.7549 9.32431 31.7082 9.3973 31.679 9.49275ZM32.1842 9.72858L32.3507 9.74543C32.3244 9.82404 32.2719 9.89703 32.1842 9.97003C32.0996 10.0402 31.9944 10.0767 31.8747 10.0767C31.7987 10.0767 31.7286 10.0599 31.6673 10.029C31.606 9.99811 31.5563 9.95038 31.5213 9.8858C31.4891 9.82404 31.4745 9.75105 31.4745 9.67244C31.4745 9.56856 31.4979 9.46749 31.5505 9.36922C31.603 9.27096 31.6702 9.19797 31.7491 9.15024C31.8309 9.10251 31.9214 9.08005 32.0149 9.08005C32.1346 9.08005 32.231 9.11655 32.304 9.18674C32.377 9.25693 32.4121 9.35238 32.4121 9.47591C32.4121 9.52364 32.4062 9.57136 32.4004 9.61909H31.6527C31.6498 9.63874 31.6498 9.65559 31.6498 9.66963C31.6498 9.75947 31.6702 9.82685 31.7111 9.87457C31.7578 9.9223 31.8104 9.94476 31.8717 9.94476C31.9302 9.94476 31.9915 9.92511 32.047 9.88861C32.1083 9.85212 32.1492 9.79877 32.1842 9.72858Z" fill="#919191"/>
<path d="M33.2789 9.65558C33.2789 9.72296 33.2848 9.77349 33.2994 9.8128C33.314 9.8521 33.3403 9.88298 33.3724 9.90825C33.4045 9.93352 33.4454 9.94756 33.4951 9.94756C33.571 9.94756 33.644 9.90825 33.7053 9.83245C33.79 9.73138 33.8338 9.60504 33.8338 9.45624C33.8338 9.38044 33.8134 9.32148 33.7725 9.27937C33.7287 9.23726 33.6761 9.2148 33.6148 9.2148C33.571 9.2148 33.5359 9.22322 33.5038 9.24007C33.4688 9.25691 33.4337 9.28779 33.4016 9.3271C33.3695 9.36921 33.3403 9.42255 33.3169 9.48432C33.2906 9.54889 33.2789 9.60504 33.2789 9.65558ZM33.755 9.91667C33.6557 10.0234 33.5505 10.0767 33.4454 10.0767C33.349 10.0767 33.2672 10.043 33.2059 9.97563C33.1387 9.90825 33.1095 9.8128 33.1095 9.68646C33.1095 9.57135 33.1329 9.46467 33.1855 9.36921C33.2351 9.27376 33.2964 9.20076 33.3724 9.15303C33.4483 9.10531 33.5272 9.08004 33.6031 9.08004C33.7287 9.08004 33.8251 9.13619 33.8893 9.2513L34.0003 8.74033H34.1756L33.8835 10.0542H33.7229L33.755 9.91667Z" fill="#919191"/>
<path d="M34.1558 10.0543L34.369 9.10251H34.5208L34.477 9.29623C34.5296 9.22324 34.5793 9.16708 34.6318 9.13339C34.6815 9.0969 34.7311 9.08005 34.7837 9.08005C34.8187 9.08005 34.8596 9.09128 34.9122 9.11374L34.8392 9.26535C34.81 9.2457 34.7779 9.23446 34.7399 9.23446C34.6815 9.23446 34.6172 9.26535 34.5559 9.32992C34.4946 9.39449 34.442 9.50679 34.404 9.67244L34.3193 10.0543H34.1558Z" fill="#919191"/>
<path d="M35.0524 9.49275H35.6219V9.45626C35.6219 9.37484 35.5985 9.31307 35.5547 9.26815C35.5109 9.22604 35.4554 9.20358 35.3853 9.20358C35.3123 9.20358 35.2481 9.22885 35.1838 9.27658C35.1283 9.32431 35.0816 9.3973 35.0524 9.49275ZM35.5518 9.72858L35.7212 9.74543C35.6978 9.82404 35.6424 9.89703 35.5577 9.97003C35.47 10.0402 35.3678 10.0767 35.2452 10.0767C35.1692 10.0767 35.0991 10.0599 35.0378 10.029C34.9765 9.99811 34.9297 9.95038 34.8976 9.8858C34.8655 9.82404 34.8479 9.75105 34.8479 9.67244C34.8479 9.56856 34.8742 9.46749 34.9268 9.36922C34.9765 9.27096 35.0407 9.19797 35.1254 9.15024C35.2072 9.10251 35.2948 9.08005 35.3883 9.08005C35.5109 9.08005 35.6044 9.11655 35.6774 9.18674C35.7504 9.25693 35.7855 9.35238 35.7855 9.47591C35.7855 9.52364 35.7825 9.57136 35.7738 9.61909H35.0261C35.0261 9.63874 35.0232 9.65559 35.0232 9.66963C35.0232 9.75947 35.0466 9.82685 35.0904 9.87457C35.1342 9.9223 35.1867 9.94476 35.251 9.94476C35.3094 9.94476 35.3649 9.92511 35.4262 9.88861C35.4759 9.85212 35.5226 9.79877 35.5518 9.72858Z" fill="#919191"/>
<path d="M36.6413 9.57142C36.6179 9.57984 36.5917 9.58826 36.5654 9.59107C36.5362 9.59669 36.4894 9.59949 36.4281 9.60511C36.3259 9.61353 36.2529 9.62476 36.2149 9.63599C36.1711 9.65003 36.1419 9.66968 36.1185 9.69776C36.0981 9.72583 36.0893 9.75671 36.0893 9.7904C36.0893 9.83532 36.1068 9.87182 36.139 9.9027C36.1711 9.93359 36.2207 9.94762 36.2792 9.94762C36.3376 9.94762 36.3901 9.93359 36.4485 9.90551C36.5011 9.87744 36.542 9.83813 36.5741 9.7876C36.6004 9.73706 36.6238 9.66407 36.6413 9.57142ZM36.5771 9.93639C36.5186 9.98412 36.4573 10.0206 36.4047 10.0431C36.3492 10.0655 36.2879 10.0768 36.2266 10.0768C36.1302 10.0768 36.0543 10.0515 35.9988 9.99816C35.9404 9.94482 35.9141 9.88024 35.9141 9.79882C35.9141 9.74548 35.9287 9.69775 35.9491 9.65845C35.9754 9.61634 36.0105 9.58545 36.0543 9.56019C36.0981 9.53492 36.1477 9.51808 36.2091 9.50685C36.2499 9.49842 36.32 9.49281 36.431 9.49C36.5391 9.48719 36.6179 9.47596 36.6647 9.45912C36.6793 9.4142 36.6851 9.3777 36.6851 9.34962C36.6851 9.31313 36.6705 9.28224 36.6413 9.25978C36.6004 9.2289 36.542 9.21486 36.4661 9.21486C36.3931 9.21486 36.3346 9.2289 36.2879 9.25978C36.2383 9.29067 36.2061 9.33278 36.1857 9.38893L36.0105 9.37489C36.0455 9.27944 36.1039 9.20644 36.1769 9.15871C36.2558 9.10818 36.3551 9.08291 36.469 9.08291C36.5946 9.08291 36.6968 9.11099 36.7698 9.16714C36.8253 9.20925 36.8516 9.26259 36.8516 9.32997C36.8516 9.38051 36.8457 9.43947 36.8282 9.50685L36.7727 9.74268C36.7552 9.81848 36.7464 9.88024 36.7464 9.92516C36.7464 9.95605 36.7523 9.99816 36.7669 10.0543H36.5917C36.5887 10.0234 36.58 9.98412 36.5771 9.93639Z" fill="#919191"/>
<path d="M36.9802 10.0543L37.1934 9.10251H37.3657L37.3336 9.25973C37.3949 9.19235 37.4533 9.14462 37.5059 9.11936C37.5556 9.09409 37.611 9.08005 37.6695 9.08005C37.7308 9.08005 37.7834 9.0969 37.8272 9.12778C37.871 9.15866 37.8973 9.20358 37.909 9.25973C37.9615 9.20077 38.0141 9.15586 38.0725 9.12497C38.128 9.0969 38.1864 9.08005 38.2507 9.08005C38.3354 9.08005 38.3996 9.09971 38.4405 9.1362C38.4843 9.1727 38.5077 9.22604 38.5077 9.29623C38.5077 9.32431 38.4989 9.37484 38.4843 9.44222L38.347 10.0571H38.1747L38.3149 9.42538C38.3295 9.37484 38.3354 9.33834 38.3354 9.31588C38.3354 9.285 38.3266 9.25973 38.3032 9.24289C38.2828 9.22323 38.2536 9.21481 38.2156 9.21481C38.166 9.21481 38.1134 9.22885 38.0579 9.25973C38.0053 9.28781 37.9615 9.32711 37.9352 9.37484C37.906 9.42257 37.8797 9.49556 37.8564 9.59382L37.7542 10.0543H37.5789L37.725 9.41134C37.7337 9.36642 37.7366 9.33553 37.7366 9.31869C37.7366 9.28781 37.7279 9.26254 37.7074 9.24289C37.687 9.22323 37.6578 9.21481 37.6257 9.21481C37.576 9.21481 37.5264 9.22885 37.4738 9.25973C37.4183 9.29062 37.3745 9.32992 37.3424 9.38326C37.3102 9.4366 37.281 9.5096 37.2606 9.60786L37.1584 10.0571L36.9802 10.0543Z" fill="#919191"/>
<path d="M39.4132 9.66119V9.69207C39.4132 9.77349 39.4337 9.83526 39.4746 9.87737C39.5154 9.91948 39.568 9.94194 39.6293 9.94194C39.6878 9.94194 39.7432 9.92229 39.7929 9.88298C39.8455 9.84368 39.8864 9.78191 39.9185 9.69769C39.9506 9.61346 39.9681 9.53485 39.9681 9.46467C39.9681 9.38606 39.9477 9.32148 39.9068 9.27937C39.8659 9.23445 39.8133 9.21199 39.7549 9.21199C39.6936 9.21199 39.6352 9.23445 39.5826 9.27937C39.53 9.32429 39.4862 9.39448 39.4512 9.48713C39.4278 9.55731 39.4132 9.61627 39.4132 9.66119ZM39.1562 10.0542L39.4483 8.74033H39.6235L39.5184 9.20918C39.5739 9.16146 39.6235 9.12777 39.6673 9.10811C39.714 9.08846 39.7608 9.08004 39.8104 9.08004C39.9039 9.08004 39.9827 9.11373 40.047 9.18111C40.1083 9.24849 40.1434 9.34394 40.1434 9.47028C40.1434 9.55451 40.1317 9.63312 40.1025 9.7005C40.0762 9.77068 40.047 9.82964 40.0061 9.87737C39.9711 9.9251 39.9302 9.96159 39.8922 9.99248C39.8513 10.0206 39.8104 10.043 39.7695 10.057C39.7257 10.0711 39.6848 10.0767 39.6469 10.0767C39.5768 10.0767 39.5213 10.0599 39.4687 10.0262C39.4191 9.99248 39.3753 9.94194 39.349 9.87456L39.311 10.0542H39.1562Z" fill="#919191"/>
<path d="M40.4864 9.49275H41.056C41.0589 9.47591 41.0589 9.46468 41.0589 9.45626C41.0589 9.37484 41.0355 9.31307 40.9917 9.26815C40.9479 9.22604 40.8924 9.20358 40.8252 9.20358C40.7522 9.20358 40.685 9.22885 40.6237 9.27658C40.5624 9.32431 40.5157 9.3973 40.4864 9.49275ZM40.9917 9.72858L41.1611 9.74543C41.1377 9.82404 41.0822 9.89703 40.9917 9.97003C40.907 10.0402 40.8048 10.0767 40.6821 10.0767C40.6062 10.0767 40.5361 10.0599 40.4748 10.029C40.4134 9.99811 40.3667 9.95038 40.3317 9.8858C40.2995 9.82404 40.282 9.75105 40.282 9.67244C40.282 9.56856 40.3083 9.46749 40.3579 9.36922C40.4105 9.27096 40.4777 9.19797 40.5595 9.15024C40.6383 9.10251 40.7259 9.08005 40.8223 9.08005C40.945 9.08005 41.0414 9.11655 41.1115 9.18674C41.1845 9.25693 41.2195 9.35238 41.2195 9.47591C41.2195 9.52364 41.2137 9.57136 41.2078 9.61909H40.4602C40.4572 9.63874 40.4572 9.65559 40.4572 9.66963C40.4572 9.75947 40.4777 9.82685 40.5244 9.87457C40.5682 9.9223 40.6208 9.94476 40.6821 9.94476C40.7405 9.94476 40.8019 9.92511 40.8574 9.88861C40.9158 9.85212 40.9567 9.79877 40.9917 9.72858Z" fill="#919191"/>
<path d="M41.5408 9.63313C41.5408 9.6977 41.5466 9.74824 41.5612 9.77912C41.5817 9.82404 41.608 9.86054 41.643 9.88581C41.6751 9.91107 41.716 9.9223 41.7598 9.9223C41.8182 9.9223 41.8737 9.90265 41.9321 9.86615C41.9876 9.82966 42.0344 9.7707 42.0665 9.69209C42.1015 9.61348 42.1191 9.53768 42.1191 9.46749C42.1191 9.38888 42.0957 9.32711 42.049 9.27938C42.0022 9.23446 41.9438 9.2092 41.8767 9.2092C41.8328 9.2092 41.7949 9.22043 41.754 9.24008C41.7131 9.26254 41.6781 9.29342 41.643 9.33834C41.6109 9.38045 41.5846 9.4338 41.5671 9.49275C41.5466 9.55452 41.5408 9.60225 41.5408 9.63313ZM41.3247 10.1413L41.4999 10.1553C41.4999 10.1918 41.5028 10.2199 41.5145 10.2396C41.5291 10.2592 41.5437 10.2732 41.5671 10.2817C41.5992 10.2957 41.6401 10.3013 41.6897 10.3013C41.7949 10.3013 41.8708 10.276 41.9146 10.2255C41.9468 10.1918 41.973 10.116 41.9993 10.0037L42.0168 9.92511C41.9292 10.0121 41.8328 10.0543 41.7306 10.0543C41.6284 10.0543 41.5437 10.0178 41.4736 9.94757C41.4035 9.87738 41.3685 9.77631 41.3685 9.64717C41.3685 9.54048 41.3977 9.44222 41.4502 9.35238C41.5057 9.26254 41.57 9.19516 41.6459 9.15024C41.7219 9.10532 41.7978 9.08005 41.8796 9.08005C42.011 9.08005 42.1132 9.13901 42.1862 9.25693L42.2184 9.0997H42.3761L42.1716 10.0206C42.1512 10.1216 42.122 10.2002 42.0869 10.2564C42.0519 10.3125 41.9993 10.3575 41.9351 10.3883C41.8679 10.4192 41.7978 10.4361 41.7102 10.4361C41.6284 10.4361 41.5583 10.4277 41.4999 10.4052C41.4415 10.3855 41.3977 10.3575 41.3685 10.3182C41.3393 10.2789 41.3247 10.2367 41.3247 10.1862C41.3188 10.1722 41.3188 10.1581 41.3247 10.1413Z" fill="#919191"/>
<path d="M42.6683 8.92282L42.7092 8.74033H42.8845L42.8407 8.92282H42.6683ZM42.4143 10.0542L42.6275 9.1025H42.7998L42.5895 10.0542H42.4143Z" fill="#919191"/>
<path d="M42.8558 10.0543L43.069 9.10251H43.2238L43.1888 9.26815C43.2589 9.20358 43.3202 9.15586 43.3786 9.12497C43.437 9.09409 43.4983 9.08005 43.5597 9.08005C43.6415 9.08005 43.7086 9.10251 43.7554 9.14182C43.8021 9.18393 43.8255 9.24008 43.8255 9.31027C43.8255 9.34396 43.8196 9.40011 43.8021 9.47591L43.6736 10.0543H43.4983L43.6327 9.45064C43.6473 9.39169 43.6531 9.34957 43.6531 9.3215C43.6531 9.29062 43.6444 9.26535 43.621 9.24289C43.5977 9.22323 43.5626 9.212 43.5188 9.212C43.4312 9.212 43.3494 9.24289 43.2822 9.30185C43.2121 9.3608 43.1625 9.46468 43.1304 9.61067L43.0311 10.0543H42.8558Z" fill="#919191"/>
<path d="M43.9623 9.72863L44.1346 9.7202C44.1346 9.76793 44.1405 9.80724 44.158 9.83812C44.1755 9.87181 44.2018 9.89708 44.2427 9.91954C44.2836 9.942 44.3303 9.95042 44.3858 9.95042C44.4617 9.95042 44.5201 9.93638 44.5581 9.90831C44.599 9.88023 44.6165 9.84654 44.6165 9.80724C44.6165 9.77916 44.6048 9.75109 44.5815 9.72582C44.5581 9.70055 44.5026 9.66967 44.4092 9.63317C44.3157 9.59667 44.2602 9.57141 44.2339 9.55456C44.1901 9.52929 44.158 9.50122 44.1375 9.46753C44.1142 9.43384 44.1054 9.39734 44.1054 9.35242C44.1054 9.27662 44.1346 9.21205 44.2018 9.1587C44.2631 9.10536 44.3537 9.07729 44.4676 9.07729C44.5961 9.07729 44.6925 9.10536 44.7567 9.16151C44.8239 9.21766 44.8589 9.29066 44.8619 9.3805L44.6895 9.39173C44.6895 9.33277 44.6662 9.28785 44.6282 9.25697C44.5844 9.22328 44.5289 9.20643 44.453 9.20643C44.3946 9.20643 44.3478 9.22047 44.3157 9.24574C44.2836 9.271 44.266 9.29908 44.266 9.32996C44.266 9.36084 44.2777 9.38611 44.3099 9.40857C44.3303 9.42542 44.38 9.44788 44.4588 9.48157C44.5902 9.53491 44.672 9.57702 44.71 9.60791C44.7626 9.65844 44.7918 9.7174 44.7918 9.78759C44.7918 9.83531 44.7742 9.88023 44.745 9.92515C44.7129 9.97007 44.6662 10.0066 44.6048 10.0346C44.5377 10.0627 44.4676 10.0768 44.38 10.0768C44.2602 10.0768 44.1638 10.0487 44.0791 9.99534C43.9944 9.93919 43.9565 9.85216 43.9623 9.72863Z" fill="#919191"/>
<path d="M26.1295 8.60106C24.8375 8.60106 24.0825 7.82915 24.0245 6.73996L24.0196 6.68314H25.0891L25.0939 6.72576C25.1375 7.24667 25.4714 7.65394 26.1198 7.65394C26.836 7.65394 27.2232 7.2372 27.2232 6.45583V1.65392H28.3072V6.4653C28.3072 7.81021 27.499 8.60106 26.1295 8.60106Z" fill="#BC2228"/>
<path d="M31.6704 8.58685C30.209 8.58685 29.2557 7.59711 29.2557 5.99647V5.987C29.2557 4.39584 30.2187 3.41083 31.6656 3.41083C33.1173 3.41083 34.0852 4.3911 34.0852 5.987V5.99647C34.0852 7.60185 33.127 8.58685 31.6704 8.58685ZM31.6753 7.72971C32.4931 7.72971 33.0157 7.09514 33.0157 5.99647V5.987C33.0157 4.89781 32.4834 4.26797 31.6656 4.26797C30.8623 4.26797 30.3251 4.89781 30.3251 5.987V5.99647C30.3251 7.09987 30.8574 7.72971 31.6753 7.72971Z" fill="#BC2228"/>
<path d="M37.5985 8.58685C36.8677 8.58685 36.3016 8.22695 36.0015 7.64447H35.9773V8.48741H34.9321V1.65392H35.9773V4.35322H36.0015C36.3064 3.766 36.8871 3.41083 37.6081 3.41083C38.8857 3.41083 39.7277 4.40531 39.7277 5.99174V5.99647C39.7277 7.5829 38.8905 8.58685 37.5985 8.58685ZM37.3226 7.70603C38.1453 7.70603 38.6582 7.05725 38.6582 5.99647V5.99174C38.6582 4.94043 38.1453 4.28692 37.3226 4.28692C36.5338 4.28692 35.9725 4.95937 35.9725 5.99174V5.99647C35.9725 7.03357 36.529 7.70603 37.3226 7.70603Z" fill="#BC2228"/>
<path d="M42.4425 8.58685C41.1698 8.58685 40.4246 7.97122 40.3181 7.06199L40.3133 7.01937H41.3489L41.3585 7.06672C41.4553 7.52608 41.8037 7.79601 42.4474 7.79601C43.0765 7.79601 43.4539 7.54028 43.4539 7.13776V7.13302C43.4539 6.811 43.27 6.62631 42.7232 6.49845L41.8908 6.31376C40.923 6.09592 40.4439 5.6413 40.4439 4.91675V4.91202C40.4439 4.02172 41.2376 3.41083 42.4086 3.41083C43.6136 3.41083 44.3395 4.06908 44.3927 4.91675L44.3976 4.97358H43.4152L43.4104 4.94043C43.3474 4.50476 42.999 4.20168 42.4086 4.20168C41.8473 4.20168 41.494 4.46213 41.494 4.85993V4.86466C41.494 5.17248 41.7021 5.38084 42.2489 5.5087L43.0765 5.69339C44.1169 5.93017 44.5137 6.3327 44.5137 7.04778V7.05251C44.5137 7.96175 43.6426 8.58685 42.4425 8.58685Z" fill="#BC2228"/>
<defs>
<clipPath id="clip0_407_35836">
<rect width="22.5116" height="10.2326" fill="white" transform="scale(1.01839)"/>
</clipPath>
</defs>
</svg>
