<svg width="20" height="20" viewBox="0 0 20 20" fill="none" xmlns="http://www.w3.org/2000/svg">
<path d="M13.1741 16.8167C12.9574 16.8167 12.7324 16.8083 12.4907 16.7833C12.0574 16.75 11.5658 16.6667 11.0574 16.5417L9.65742 16.2083C5.81575 15.3 4.55742 13.2667 5.45742 9.43333L6.27408 5.94166C6.45742 5.14999 6.67408 4.50833 6.94075 3.97499C8.37408 1.01666 11.1157 1.28333 13.0657 1.74166L14.4574 2.06666C16.4074 2.52499 17.6407 3.24999 18.3324 4.35833C19.0157 5.46666 19.1241 6.89166 18.6657 8.84166L17.8491 12.325C17.1324 15.375 15.6407 16.8167 13.1741 16.8167ZM10.9324 2.70833C9.54075 2.70833 8.65742 3.28333 8.06575 4.51666C7.84908 4.96666 7.65742 5.52499 7.49075 6.22499L6.67408 9.71666C5.93242 12.8667 6.79075 14.2417 9.94075 14.9917L11.3407 15.325C11.7907 15.4333 12.2157 15.5 12.5991 15.5333C14.8657 15.7583 15.9908 14.7667 16.6241 12.0417L17.4408 8.55833C17.8158 6.94999 17.7657 5.82499 17.2657 5.01666C16.7657 4.20833 15.7824 3.65833 14.1657 3.28333L12.7741 2.95833C12.0824 2.79166 11.4657 2.70833 10.9324 2.70833Z" fill="#2D2C2C"/>
<path d="M6.9435 18.5417C4.80183 18.5417 3.43517 17.2583 2.56017 14.55L1.4935 11.2583C0.310167 7.59168 1.3685 5.52501 5.0185 4.34168L6.33517 3.91668C6.7685 3.78334 7.0935 3.69168 7.38517 3.64168C7.62683 3.59168 7.86017 3.68334 8.00183 3.87501C8.1435 4.06668 8.1685 4.31668 8.0685 4.53334C7.85183 4.97501 7.66017 5.53334 7.50183 6.23334L6.68517 9.72501C5.9435 12.875 6.80183 14.25 9.95183 15L11.3518 15.3333C11.8018 15.4417 12.2268 15.5083 12.6102 15.5417C12.8768 15.5667 13.0935 15.75 13.1685 16.0083C13.2352 16.2667 13.1352 16.5333 12.9185 16.6833C12.3685 17.0583 11.6768 17.375 10.8018 17.6583L9.48517 18.0917C8.52683 18.3917 7.6935 18.5417 6.9435 18.5417ZM6.48517 5.18334L5.41017 5.53334C2.43517 6.49168 1.72683 7.89168 2.68517 10.875L3.75183 14.1667C4.7185 17.1417 6.1185 17.8583 9.0935 16.9L10.4102 16.4667C10.4602 16.45 10.5018 16.4333 10.5518 16.4167L9.6685 16.2083C5.82683 15.3 4.5685 13.2667 5.4685 9.43334L6.28517 5.94168C6.3435 5.67501 6.41017 5.41668 6.48517 5.18334Z" fill="#2D2C2C"/>
<path d="M14.5751 8.75833C14.5251 8.75833 14.4751 8.75 14.4168 8.74166L10.3751 7.71666C10.0418 7.63333 9.84181 7.29166 9.92514 6.95833C10.0085 6.625 10.3501 6.425 10.6835 6.50833L14.7251 7.53333C15.0585 7.61666 15.2585 7.95833 15.1751 8.29166C15.1085 8.56666 14.8501 8.75833 14.5751 8.75833Z" fill="#2D2C2C"/>
<path d="M12.1343 11.575C12.0843 11.575 12.0343 11.5667 11.9759 11.5583L9.55092 10.9417C9.21759 10.8583 9.01759 10.5167 9.10092 10.1833C9.18425 9.85 9.52592 9.65 9.85925 9.73334L12.2843 10.35C12.6176 10.4333 12.8176 10.775 12.7343 11.1083C12.6676 11.3917 12.4176 11.575 12.1343 11.575Z" fill="#2D2C2C"/>
</svg>
