<svg width="139" height="33" viewBox="0 0 139 33" fill="none" xmlns="http://www.w3.org/2000/svg">
<g clip-path="url(#clip0_0_390)">
<path d="M8.92324 14.8877H3.55595V3.6134H8.90362C8.90362 3.6134 14.5555 3.35828 14.5555 8.94144C14.5555 14.397 9.36479 14.8877 8.92324 14.8877ZM11.4352 17.0071C11.4352 17.0071 18.3234 15.653 18.3234 8.50971C18.3234 1.35658 11.6805 0.316486 9.62972 0.316486H0.00391781V31.4017H3.55595V18.0276H6.47999C8.12845 18.0276 9.76709 18.2925 12.0435 21.9917L17.5188 31.3918H21.7576L15.0755 20.4414C15.0755 20.4414 13.4663 17.6449 11.4352 17.0071Z" fill="#BC2228"/>
<path d="M27.5682 3.6134V0.316486H23.9966V3.57415" fill="#919191"/>
<path d="M23.9966 4.78101V31.5292H27.5682V4.81045" fill="#919191"/>
<path d="M70.2038 4.78101H66.642V31.4899H70.2038V4.78101Z" fill="#919191"/>
<path d="M64.4513 4.73192H49.6152V8.35263H64.4513V4.73192Z" fill="#919191"/>
<path d="M64.4513 27.8987H49.6152V31.5194H64.4513V27.8987Z" fill="#919191"/>
<path d="M59.6236 16.5262H49.6152V20.1567H59.6236V16.5262Z" fill="#919191"/>
<path d="M40.9439 4.78101H37.3526L27.4521 18.1355L37.3526 31.4899H40.9439L31.063 18.1355L40.9439 4.78101Z" fill="#919191"/>
<path d="M43.9265 4.78101L34.1633 18.1355L43.9265 31.4899H47.4883L37.7153 18.1355L47.4883 4.78101H43.9265Z" fill="#BC2228"/>
</g>
<path d="M74.5163 30.7376L74.1916 27.7978H74.7148L74.8501 29.116L74.9133 29.8618C74.9133 29.9138 74.9223 30.0265 74.9313 30.2C74.9945 30.0092 75.0306 29.8704 75.0847 29.7664C75.1208 29.6623 75.1839 29.5236 75.2741 29.3328L76.0139 27.7978H76.5913L76.6905 29.2721C76.7085 29.4975 76.7176 29.7924 76.7176 30.1653C76.8168 29.9138 76.9792 29.5756 77.2047 29.1333L77.8723 27.7978H78.4045L76.8799 30.7376H76.3206L76.2124 29.0119C76.2033 28.9079 76.1943 28.6997 76.1943 28.3875C76.1131 28.587 76.0229 28.7951 75.9056 29.0293L75.0757 30.7463H74.5163V30.7376Z" fill="#919191"/>
<path d="M78.2857 30.7376L79.1788 26.6791H79.7201L79.3773 28.2401C79.5848 28.058 79.7652 27.9279 79.9276 27.8498C80.099 27.7631 80.2794 27.7284 80.4508 27.7284C80.7124 27.7284 80.9199 27.7891 81.0643 27.9192C81.2086 28.0493 81.2808 28.2141 81.2808 28.4309C81.2808 28.5349 81.2537 28.7257 81.1906 29.0032L80.8026 30.7376H80.2614L80.6583 28.9512C80.7214 28.691 80.7485 28.5349 80.7485 28.4655C80.7485 28.3702 80.7034 28.2921 80.6403 28.2314C80.5681 28.1707 80.4598 28.1447 80.3335 28.1447C80.1441 28.1447 79.9546 28.1967 79.7832 28.2834C79.6118 28.3788 79.4675 28.5089 79.3773 28.6737C79.278 28.8384 79.1878 29.1073 79.1066 29.4715L78.8179 30.7376H78.2857Z" fill="#919191"/>
<path d="M82.4025 29.0031H84.1526C84.1616 28.9511 84.1617 28.9164 84.1617 28.8904C84.1617 28.6389 84.0895 28.4481 83.9542 28.3094C83.8188 28.1793 83.6474 28.1099 83.4399 28.1099C83.2144 28.1099 83.0159 28.188 82.8175 28.3354C82.628 28.4828 82.4927 28.7083 82.4025 29.0031ZM83.9451 29.7316L84.4684 29.7836C84.3962 30.0264 84.2248 30.2519 83.9451 30.4774C83.6835 30.6942 83.3678 30.8069 82.9889 30.8069C82.7543 30.8069 82.5378 30.7549 82.3484 30.6595C82.1589 30.5641 82.0146 30.4167 81.9063 30.2172C81.8071 30.0264 81.753 29.801 81.753 29.5581C81.753 29.2373 81.8341 28.9251 81.9875 28.6216C82.1499 28.3181 82.3574 28.0926 82.61 27.9452C82.8536 27.7977 83.1242 27.7284 83.4219 27.7284C83.8008 27.7284 84.0895 27.8411 84.315 28.0579C84.5405 28.2747 84.6488 28.5695 84.6488 28.9511C84.6488 29.0985 84.6398 29.246 84.6127 29.3934H82.3123C82.3033 29.4541 82.3033 29.5061 82.3033 29.5495C82.3033 29.827 82.3664 30.0351 82.5107 30.1825C82.6461 30.3299 82.8084 30.3993 82.9979 30.3993C83.1783 30.3993 83.3678 30.3386 83.5392 30.2259C83.7106 30.1132 83.8459 29.9484 83.9451 29.7316Z" fill="#919191"/>
<path d="M85.0087 30.7375L85.6672 27.7977H86.1363L86.001 28.3961C86.1634 28.1706 86.3167 27.9972 86.4791 27.8931C86.6325 27.7804 86.7859 27.7284 86.9482 27.7284C87.0565 27.7284 87.1828 27.7631 87.3452 27.8324L87.1196 28.3007C87.0294 28.24 86.9302 28.2053 86.8129 28.2053C86.6325 28.2053 86.434 28.3007 86.2446 28.5002C86.0551 28.6996 85.8837 29.0465 85.7755 29.5581L85.5138 30.7375H85.0087Z" fill="#919191"/>
<path d="M87.7675 29.0031H89.5177C89.5267 28.9511 89.5267 28.9164 89.5267 28.8904C89.5267 28.6389 89.4545 28.4481 89.3192 28.3094C89.1839 28.1793 89.0125 28.1099 88.796 28.1099C88.5704 28.1099 88.3719 28.188 88.1735 28.3354C88.0021 28.4828 87.8577 28.7083 87.7675 29.0031ZM89.3192 29.7316L89.8424 29.7836C89.7703 30.0264 89.5988 30.2519 89.3192 30.4774C89.0576 30.6942 88.7418 30.8069 88.3629 30.8069C88.1284 30.8069 87.9119 30.7549 87.7224 30.6595C87.533 30.5641 87.3886 30.4167 87.2894 30.2172C87.1902 30.0264 87.136 29.801 87.136 29.5581C87.136 29.2373 87.2172 28.9251 87.3706 28.6216C87.533 28.3181 87.7405 28.0926 87.9931 27.9452C88.2366 27.7977 88.5073 27.7284 88.805 27.7284C89.1839 27.7284 89.4726 27.8411 89.6981 28.0579C89.9236 28.2747 90.0319 28.5695 90.0319 28.9511C90.0319 29.0985 90.0229 29.246 89.9958 29.3934H87.6773C87.6683 29.4541 87.6683 29.5061 87.6683 29.5495C87.6683 29.827 87.7314 30.0351 87.8758 30.1825C88.0111 30.3299 88.1735 30.3993 88.3629 30.3993C88.5434 30.3993 88.7328 30.3386 88.9042 30.2259C89.0846 30.1132 89.2109 29.9484 89.3192 29.7316Z" fill="#919191"/>
<path d="M93.3075 30.33L93.2172 30.7376C93.0909 30.7722 92.9646 30.7809 92.8474 30.7809C92.6309 30.7809 92.4595 30.7289 92.3422 30.6335C92.252 30.5641 92.1978 30.4601 92.1978 30.33C92.1978 30.2693 92.2159 30.1132 92.27 29.879L92.6579 28.1707H92.2339L92.3241 27.7804H92.7391L92.9015 27.0607L93.5149 26.7138L93.2804 27.7804H93.7946L93.7134 28.1707H93.1812L92.8203 29.7923C92.7662 30.0004 92.7481 30.1219 92.7481 30.1652C92.7481 30.2259 92.7662 30.2693 92.8023 30.304C92.8474 30.3386 92.9015 30.3473 92.9827 30.3473C93.118 30.3647 93.2172 30.3473 93.3075 30.33Z" fill="#919191"/>
<path d="M93.7336 30.7376L94.6357 26.6791H95.177L94.8342 28.2401C95.0237 28.058 95.2131 27.9279 95.3845 27.8498C95.5559 27.7718 95.7273 27.7284 95.9168 27.7284C96.1784 27.7284 96.3769 27.7891 96.5302 27.9192C96.6746 28.0493 96.7467 28.2141 96.7467 28.4309C96.7467 28.5349 96.7197 28.7257 96.6475 29.0032L96.2596 30.7376H95.7273L96.1243 28.9512C96.1874 28.691 96.2055 28.5349 96.2055 28.4655C96.2055 28.3702 96.1784 28.2921 96.1062 28.2314C96.0341 28.1707 95.9348 28.136 95.7995 28.136C95.6101 28.136 95.4206 28.188 95.2492 28.2748C95.0688 28.3702 94.9335 28.5002 94.8342 28.665C94.744 28.8298 94.6538 29.0986 94.5636 29.4628L94.2929 30.7289H93.7336V30.7376Z" fill="#919191"/>
<path d="M97.8441 29.0031H99.6033C99.6033 28.9511 99.6123 28.9164 99.6123 28.8904C99.6123 28.6389 99.5401 28.4481 99.4048 28.3094C99.2695 28.1793 99.0981 28.1099 98.8816 28.1099C98.656 28.1099 98.4395 28.188 98.2591 28.3354C98.0787 28.4828 97.9343 28.7083 97.8441 29.0031ZM99.4048 29.7316L99.919 29.7836C99.8378 30.0264 99.6755 30.2519 99.4048 30.4774C99.1432 30.6942 98.8184 30.8069 98.4486 30.8069C98.214 30.8069 97.9975 30.7549 97.808 30.6595C97.6186 30.5641 97.4652 30.4167 97.357 30.2172C97.2577 30.0264 97.2126 29.801 97.2126 29.5581C97.2126 29.2373 97.2848 28.9251 97.4472 28.6216C97.6096 28.3181 97.8171 28.0926 98.0606 27.9452C98.3132 27.7977 98.5929 27.7284 98.8816 27.7284C99.2515 27.7284 99.5492 27.8411 99.7747 28.0579C100 28.2747 100.108 28.5695 100.108 28.9511C100.108 29.0985 100.09 29.246 100.072 29.3934H97.7629C97.7539 29.4541 97.7539 29.5061 97.7539 29.5495C97.7539 29.827 97.8171 30.0351 97.9434 30.1825C98.0877 30.3299 98.2501 30.3993 98.4395 30.3993C98.62 30.3993 98.8094 30.3386 98.9808 30.2259C99.1703 30.1132 99.2966 29.9484 99.4048 29.7316Z" fill="#919191"/>
<path d="M102.79 29.5062C102.79 29.7143 102.808 29.8704 102.853 29.9918C102.898 30.1132 102.979 30.2086 103.079 30.2867C103.178 30.3647 103.304 30.4081 103.457 30.4081C103.692 30.4081 103.918 30.2867 104.107 30.0525C104.369 29.7403 104.504 29.3501 104.504 28.8905C104.504 28.6563 104.441 28.4742 104.314 28.3441C104.179 28.2141 104.017 28.1447 103.827 28.1447C103.692 28.1447 103.584 28.1707 103.484 28.2227C103.376 28.2748 103.268 28.3702 103.169 28.4916C103.07 28.6216 102.979 28.7864 102.907 28.9772C102.826 29.1766 102.79 29.3501 102.79 29.5062ZM104.26 30.3127C103.954 30.6422 103.629 30.807 103.304 30.807C103.006 30.807 102.754 30.7029 102.564 30.4948C102.357 30.2867 102.267 29.9918 102.267 29.6016C102.267 29.246 102.339 28.9165 102.501 28.6216C102.655 28.3268 102.844 28.1013 103.079 27.9539C103.313 27.8065 103.557 27.7284 103.791 27.7284C104.179 27.7284 104.477 27.9019 104.675 28.2574L105.018 26.6791H105.559L104.657 30.7376H104.161L104.26 30.3127Z" fill="#919191"/>
<path d="M105.495 30.7375L106.153 27.7977H106.623L106.487 28.3961C106.65 28.1706 106.803 27.9972 106.965 27.8931C107.119 27.7804 107.272 27.7284 107.434 27.7284C107.543 27.7284 107.669 27.7631 107.831 27.8324L107.606 28.3007C107.516 28.24 107.416 28.2053 107.299 28.2053C107.119 28.2053 106.92 28.3007 106.731 28.5002C106.541 28.6996 106.379 29.0465 106.262 29.5581L106 30.7375H105.495Z" fill="#919191"/>
<path d="M108.266 29.0031H110.025V28.8904C110.025 28.6389 109.952 28.4481 109.817 28.3094C109.682 28.1793 109.51 28.1099 109.294 28.1099C109.068 28.1099 108.87 28.188 108.671 28.3354C108.5 28.4828 108.356 28.7083 108.266 29.0031ZM109.808 29.7316L110.331 29.7836C110.259 30.0264 110.088 30.2519 109.826 30.4774C109.556 30.6942 109.24 30.8069 108.861 30.8069C108.626 30.8069 108.41 30.7549 108.22 30.6595C108.031 30.5641 107.887 30.4167 107.787 30.2172C107.688 30.0264 107.634 29.801 107.634 29.5581C107.634 29.2373 107.715 28.9251 107.878 28.6216C108.031 28.3181 108.229 28.0926 108.491 27.9452C108.744 27.7977 109.014 27.7284 109.303 27.7284C109.682 27.7284 109.971 27.8411 110.196 28.0579C110.422 28.2747 110.53 28.5695 110.53 28.9511C110.53 29.0985 110.521 29.246 110.494 29.3934H108.184C108.184 29.4541 108.175 29.5061 108.175 29.5495C108.175 29.827 108.247 30.0351 108.383 30.1825C108.518 30.3299 108.68 30.3993 108.879 30.3993C109.059 30.3993 109.231 30.3386 109.42 30.2259C109.574 30.1132 109.718 29.9484 109.808 29.7316Z" fill="#919191"/>
<path d="M113.183 29.2462C113.111 29.2722 113.03 29.2982 112.948 29.3069C112.858 29.3242 112.714 29.3329 112.524 29.3502C112.209 29.3762 111.983 29.4109 111.866 29.4456C111.731 29.489 111.64 29.5497 111.568 29.6364C111.505 29.7231 111.478 29.8185 111.478 29.9226C111.478 30.0613 111.532 30.1741 111.631 30.2695C111.731 30.3648 111.884 30.4082 112.064 30.4082C112.245 30.4082 112.407 30.3648 112.588 30.2781C112.75 30.1914 112.876 30.07 112.976 29.9139C113.057 29.7578 113.129 29.5323 113.183 29.2462ZM112.985 30.3735C112.804 30.5209 112.615 30.6337 112.452 30.7031C112.281 30.7724 112.091 30.8071 111.902 30.8071C111.604 30.8071 111.37 30.7291 111.198 30.5643C111.018 30.3995 110.937 30.2001 110.937 29.9486C110.937 29.7838 110.982 29.6364 111.045 29.515C111.126 29.3849 111.234 29.2895 111.37 29.2115C111.505 29.1334 111.658 29.0814 111.848 29.0467C111.974 29.0207 112.191 29.0033 112.533 28.9947C112.867 28.986 113.111 28.9513 113.255 28.8993C113.3 28.7605 113.318 28.6478 113.318 28.5611C113.318 28.4483 113.273 28.353 113.183 28.2836C113.057 28.1882 112.876 28.1448 112.642 28.1448C112.416 28.1448 112.236 28.1882 112.091 28.2836C111.938 28.379 111.839 28.509 111.776 28.6825L111.234 28.6391C111.343 28.3443 111.523 28.1188 111.749 27.9714C111.992 27.8153 112.299 27.7372 112.651 27.7372C113.039 27.7372 113.354 27.824 113.58 27.9974C113.751 28.1275 113.833 28.2922 113.833 28.5004C113.833 28.6565 113.815 28.8386 113.76 29.0467L113.589 29.7752C113.535 30.0093 113.508 30.2001 113.508 30.3388C113.508 30.4342 113.526 30.5643 113.571 30.7377H113.03C113.021 30.6423 112.994 30.5209 112.985 30.3735Z" fill="#919191"/>
<path d="M114.228 30.7375L114.886 27.7977H115.418L115.319 28.2834C115.509 28.0752 115.689 27.9278 115.852 27.8498C116.005 27.7717 116.176 27.7284 116.357 27.7284C116.546 27.7284 116.709 27.7804 116.844 27.8758C116.979 27.9712 117.06 28.1099 117.096 28.2834C117.259 28.1013 117.421 27.9625 117.602 27.8671C117.773 27.7804 117.953 27.7284 118.152 27.7284C118.414 27.7284 118.612 27.7891 118.738 27.9018C118.874 28.0145 118.946 28.1793 118.946 28.3961C118.946 28.4828 118.919 28.6389 118.874 28.847L118.45 30.7462H117.917L118.35 28.795C118.396 28.6389 118.414 28.5262 118.414 28.4568C118.414 28.3614 118.387 28.2834 118.314 28.2313C118.251 28.1706 118.161 28.1446 118.044 28.1446C117.89 28.1446 117.728 28.188 117.557 28.2834C117.394 28.3701 117.259 28.4915 117.178 28.6389C117.087 28.7863 117.006 29.0118 116.934 29.3153L116.618 30.7375H116.077L116.528 28.7517C116.555 28.6129 116.564 28.5175 116.564 28.4655C116.564 28.3701 116.537 28.292 116.474 28.2313C116.411 28.1706 116.321 28.1446 116.221 28.1446C116.068 28.1446 115.915 28.188 115.752 28.2834C115.581 28.3788 115.446 28.5002 115.346 28.6649C115.247 28.8297 115.157 29.0552 115.094 29.3587L114.778 30.7462L114.228 30.7375Z" fill="#919191"/>
<path d="M121.733 29.5235V29.6189C121.733 29.8704 121.796 30.0612 121.922 30.1913C122.049 30.3213 122.211 30.3907 122.4 30.3907C122.581 30.3907 122.752 30.33 122.906 30.2086C123.068 30.0872 123.194 29.8964 123.293 29.6363C123.393 29.3761 123.447 29.1333 123.447 28.9165C123.447 28.6737 123.384 28.4742 123.257 28.3441C123.131 28.2054 122.969 28.136 122.788 28.136C122.599 28.136 122.418 28.2054 122.256 28.3441C122.094 28.4829 121.958 28.6997 121.85 28.9859C121.778 29.2027 121.733 29.3848 121.733 29.5235ZM120.939 30.7376L121.841 26.6791H122.382L122.058 28.1273C122.229 27.9799 122.382 27.8759 122.518 27.8152C122.662 27.7544 122.806 27.7284 122.96 27.7284C123.248 27.7284 123.492 27.8325 123.69 28.0406C123.88 28.2488 123.988 28.5436 123.988 28.9338C123.988 29.194 123.952 29.4368 123.862 29.6449C123.781 29.8617 123.69 30.0438 123.564 30.1913C123.456 30.3387 123.33 30.4514 123.212 30.5468C123.086 30.6335 122.96 30.7029 122.833 30.7463C122.698 30.7896 122.572 30.807 122.454 30.807C122.238 30.807 122.067 30.7549 121.904 30.6509C121.751 30.5468 121.615 30.3907 121.534 30.1826L121.417 30.7376H120.939Z" fill="#919191"/>
<path d="M125.053 29.0031H126.812C126.821 28.9511 126.821 28.9164 126.821 28.8904C126.821 28.6389 126.749 28.4481 126.614 28.3094C126.479 28.1793 126.307 28.1099 126.1 28.1099C125.874 28.1099 125.667 28.188 125.477 28.3354C125.288 28.4828 125.144 28.7083 125.053 29.0031ZM126.614 29.7316L127.137 29.7836C127.065 30.0264 126.894 30.2519 126.614 30.4774C126.352 30.6942 126.037 30.8069 125.658 30.8069C125.423 30.8069 125.207 30.7549 125.017 30.6595C124.828 30.5641 124.683 30.4167 124.575 30.2172C124.476 30.0264 124.422 29.801 124.422 29.5581C124.422 29.2373 124.503 28.9251 124.656 28.6216C124.819 28.3181 125.026 28.0926 125.279 27.9452C125.522 27.7977 125.793 27.7284 126.091 27.7284C126.47 27.7284 126.767 27.8411 126.984 28.0579C127.209 28.2747 127.318 28.5695 127.318 28.9511C127.318 29.0985 127.3 29.246 127.282 29.3934H124.972C124.963 29.4541 124.963 29.5061 124.963 29.5495C124.963 29.827 125.026 30.0351 125.171 30.1825C125.306 30.3299 125.468 30.3993 125.658 30.3993C125.838 30.3993 126.028 30.3386 126.199 30.2259C126.379 30.1132 126.506 29.9484 126.614 29.7316Z" fill="#919191"/>
<path d="M128.312 29.4367C128.312 29.6362 128.33 29.7923 128.375 29.8877C128.438 30.0264 128.519 30.1392 128.627 30.2172C128.727 30.2953 128.853 30.3299 128.988 30.3299C129.169 30.3299 129.34 30.2692 129.52 30.1565C129.692 30.0438 129.836 29.8617 129.935 29.6189C130.044 29.376 130.098 29.1419 130.098 28.9251C130.098 28.6823 130.026 28.4915 129.881 28.3441C129.737 28.2053 129.557 28.1273 129.349 28.1273C129.214 28.1273 129.096 28.162 128.97 28.2227C128.844 28.292 128.736 28.3874 128.627 28.5262C128.528 28.6563 128.447 28.821 128.393 29.0031C128.33 29.1939 128.312 29.3413 128.312 29.4367ZM127.644 31.0064L128.185 31.0497C128.185 31.1625 128.194 31.2492 128.23 31.3099C128.276 31.3706 128.321 31.4139 128.393 31.44C128.492 31.4833 128.618 31.5007 128.772 31.5007C129.096 31.5007 129.331 31.4226 129.466 31.2665C129.566 31.1625 129.647 30.9283 129.728 30.5814L129.782 30.3386C129.511 30.6075 129.214 30.7375 128.898 30.7375C128.582 30.7375 128.321 30.6248 128.104 30.408C127.888 30.1912 127.779 29.879 127.779 29.4801C127.779 29.1506 127.87 28.847 128.032 28.5695C128.203 28.292 128.402 28.0839 128.636 27.9452C128.871 27.8064 129.106 27.7284 129.358 27.7284C129.764 27.7284 130.08 27.9105 130.305 28.2747L130.405 27.7891H130.892L130.26 30.6335C130.197 30.9457 130.107 31.1885 129.999 31.3619C129.89 31.5353 129.728 31.6741 129.53 31.7695C129.322 31.8649 129.106 31.9169 128.835 31.9169C128.582 31.9169 128.366 31.8909 128.185 31.8215C128.005 31.7608 127.87 31.6741 127.779 31.5527C127.689 31.4313 127.644 31.3012 127.644 31.1451C127.626 31.1018 127.626 31.0584 127.644 31.0064Z" fill="#919191"/>
<path d="M131.793 27.2428L131.919 26.6791H132.46L132.325 27.2428H131.793ZM131.008 30.7376L131.666 27.7978H132.198L131.549 30.7376H131.008Z" fill="#919191"/>
<path d="M132.371 30.7375L133.03 27.7977H133.508L133.399 28.3094C133.616 28.1099 133.805 27.9625 133.986 27.8671C134.166 27.7717 134.356 27.7284 134.545 27.7284C134.798 27.7284 135.005 27.7977 135.15 27.9191C135.294 28.0492 135.366 28.2227 135.366 28.4395C135.366 28.5435 135.348 28.717 135.294 28.9511L134.897 30.7375H134.356L134.771 28.8731C134.816 28.691 134.834 28.5609 134.834 28.4742C134.834 28.3788 134.807 28.3007 134.735 28.2313C134.662 28.1706 134.554 28.1359 134.419 28.1359C134.148 28.1359 133.896 28.2313 133.688 28.4135C133.472 28.5956 133.318 28.9164 133.219 29.3674L132.912 30.7375H132.371Z" fill="#919191"/>
<path d="M135.789 29.7317L136.321 29.7057C136.321 29.8531 136.339 29.9745 136.394 30.0699C136.448 30.174 136.529 30.252 136.655 30.3214C136.782 30.3908 136.926 30.4168 137.097 30.4168C137.332 30.4168 137.512 30.3734 137.63 30.2867C137.756 30.2 137.81 30.0959 137.81 29.9745C137.81 29.8878 137.774 29.8011 137.702 29.723C137.63 29.645 137.458 29.5496 137.169 29.4368C136.881 29.3241 136.709 29.2461 136.628 29.194C136.493 29.116 136.394 29.0293 136.33 28.9252C136.258 28.8211 136.231 28.7084 136.231 28.5696C136.231 28.3355 136.321 28.136 136.529 27.9713C136.718 27.8065 136.998 27.7198 137.35 27.7198C137.747 27.7198 138.045 27.8065 138.243 27.98C138.45 28.1534 138.559 28.3789 138.568 28.6564L138.036 28.6911C138.036 28.5089 137.963 28.3702 137.846 28.2748C137.711 28.1707 137.539 28.1187 137.305 28.1187C137.124 28.1187 136.98 28.1621 136.881 28.2401C136.782 28.3182 136.727 28.4049 136.727 28.5003C136.727 28.5957 136.763 28.6737 136.863 28.7431C136.926 28.7951 137.079 28.8645 137.323 28.9686C137.729 29.1333 137.981 29.2634 138.099 29.3588C138.261 29.5149 138.351 29.697 138.351 29.9138C138.351 30.0612 138.297 30.2 138.207 30.3387C138.108 30.4775 137.963 30.5902 137.774 30.6769C137.566 30.7637 137.35 30.807 137.079 30.807C136.709 30.807 136.412 30.7203 136.15 30.5555C135.888 30.3821 135.771 30.1133 135.789 29.7317Z" fill="#919191"/>
<path d="M80.7087 26.2484C76.7177 26.2484 74.3859 23.8642 74.2065 20.4998L74.1916 20.3243H77.495L77.5099 20.4559C77.6445 22.065 78.6759 23.3229 80.6788 23.3229C82.8911 23.3229 84.0869 22.0357 84.0869 19.6221V4.78977H87.4352V19.6514C87.4352 23.8056 84.9389 26.2484 80.7087 26.2484Z" fill="#BC2228"/>
<path d="M97.8237 26.2046C93.3096 26.2046 90.3649 23.1474 90.3649 18.2033V18.174C90.3649 13.2591 93.3395 10.2166 97.8088 10.2166C102.293 10.2166 105.283 13.2445 105.283 18.174V18.2033C105.283 23.162 102.323 26.2046 97.8237 26.2046ZM97.8387 23.557C100.365 23.557 101.979 21.5969 101.979 18.2033V18.174C101.979 14.8097 100.335 12.8642 97.8088 12.8642C95.3275 12.8642 93.6683 14.8097 93.6683 18.174V18.2033C93.6683 21.6115 95.3125 23.557 97.8387 23.557Z" fill="#BC2228"/>
<path d="M116.135 26.2046C113.877 26.2046 112.129 25.0929 111.202 23.2937H111.127V25.8974H107.898V4.78977H111.127V13.1275H111.202C112.144 11.3137 113.937 10.2166 116.164 10.2166C120.111 10.2166 122.712 13.2884 122.712 18.1886V18.2033C122.712 23.1035 120.126 26.2046 116.135 26.2046ZM115.283 23.4838C117.824 23.4838 119.408 21.4799 119.408 18.2033V18.1886C119.408 14.9413 117.824 12.9227 115.283 12.9227C112.846 12.9227 111.112 14.9998 111.112 18.1886V18.2033C111.112 21.4067 112.831 23.4838 115.283 23.4838Z" fill="#BC2228"/>
<path d="M131.097 26.2046C127.166 26.2046 124.864 24.303 124.535 21.4945L124.52 21.3628H127.719L127.749 21.5091C128.048 22.928 129.124 23.7618 131.112 23.7618C133.055 23.7618 134.221 22.9719 134.221 21.7285V21.7139C134.221 20.7192 133.653 20.1487 131.964 19.7538L129.393 19.1833C126.404 18.5105 124.924 17.1062 124.924 14.8682V14.8536C124.924 12.1036 127.375 10.2166 130.992 10.2166C134.714 10.2166 136.957 12.2498 137.121 14.8682L137.136 15.0437H134.102L134.087 14.9413C133.892 13.5956 132.816 12.6594 130.992 12.6594C129.259 12.6594 128.167 13.4639 128.167 14.6926V14.7073C128.167 15.6581 128.81 16.3017 130.499 16.6966L133.055 17.2671C136.269 17.9985 137.495 19.2418 137.495 21.4506V21.4652C137.495 24.2737 134.804 26.2046 131.097 26.2046Z" fill="#BC2228"/>
<defs>
<clipPath id="clip0_0_390">
<rect width="70.6047" height="32.093" fill="white" transform="scale(1.00296)"/>
</clipPath>
</defs>
</svg>
