<svg width="20" height="20" viewBox="0 0 20 20" fill="none" xmlns="http://www.w3.org/2000/svg">
<path d="M2.16797 10C2.16797 5.6845 5.68578 2.16669 10.0013 2.16669C14.3168 2.16669 17.8346 5.6845 17.8346 10C17.8346 14.3155 14.3168 17.8334 10.0013 17.8334C5.68578 17.8334 2.16797 14.3155 2.16797 10ZM11.1263 13.3334V11.125H13.3346C13.9524 11.125 14.4596 10.6178 14.4596 10C14.4596 9.38221 13.9524 8.87502 13.3346 8.87502H11.1263V6.66669C11.1263 6.04888 10.6191 5.54169 10.0013 5.54169C9.38349 5.54169 8.8763 6.04888 8.8763 6.66669V8.87502H6.66797C6.05016 8.87502 5.54297 9.38221 5.54297 10C5.54297 10.6178 6.05016 11.125 6.66797 11.125H8.8763V13.3334C8.8763 13.9512 9.38349 14.4584 10.0013 14.4584C10.6191 14.4584 11.1263 13.9512 11.1263 13.3334Z" fill="#AB1F24" stroke="#AB1F24"/>
</svg>
