<svg width="20" height="20" viewBox="0 0 20 20" fill="none" xmlns="http://www.w3.org/2000/svg">
<path d="M10.4156 18.9583H3.39896C2.09062 18.9583 1.01562 17.9083 1.01562 16.6083V4.24166C1.01562 2.96666 1.49062 1.97499 2.35729 1.43333C3.23229 0.883327 4.36563 0.899993 5.54063 1.48333L9.24062 3.29999C10.249 3.79999 11.0406 5.05833 11.0406 6.17499V18.3333C11.0406 18.675 10.7573 18.9583 10.4156 18.9583ZM3.79896 2.29166C3.50729 2.29166 3.24062 2.35833 3.01562 2.49999C2.53229 2.79999 2.26562 3.42499 2.26562 4.24166V16.6083C2.26562 17.2167 2.77396 17.7083 3.39896 17.7083H9.79062V6.17499C9.79062 5.53333 9.27396 4.70833 8.68229 4.42499L4.98229 2.60833C4.55729 2.39999 4.15729 2.29166 3.79896 2.29166Z" fill="#AB1F24"/>
<path d="M15.6763 18.9583H10.418C10.0763 18.9583 9.79297 18.675 9.79297 18.3333V8.68333C9.79297 8.49167 9.8763 8.31667 10.0263 8.2C10.1763 8.08333 10.3596 8.03333 10.5513 8.075L10.943 8.15833L16.393 9.375C18.0513 9.74167 18.8846 10.7167 18.9346 12.375C18.943 12.375 18.943 12.4583 18.943 12.55V15.7C18.9346 17.8333 17.8096 18.9583 15.6763 18.9583ZM11.043 17.7083H15.6763C17.143 17.7083 17.6846 17.1667 17.6846 15.7V12.4833C17.643 11.3417 17.2096 10.8333 16.118 10.5917L11.043 9.45833V17.7083Z" fill="#AB1F24"/>
<path d="M7.4737 8.125H4.58203C4.24036 8.125 3.95703 7.84167 3.95703 7.5C3.95703 7.15833 4.24036 6.875 4.58203 6.875H7.4737C7.81537 6.875 8.0987 7.15833 8.0987 7.5C8.0987 7.84167 7.8237 8.125 7.4737 8.125Z" fill="#AB1F24"/>
<path d="M7.4737 11.4583H4.58203C4.24036 11.4583 3.95703 11.175 3.95703 10.8333C3.95703 10.4917 4.24036 10.2083 4.58203 10.2083H7.4737C7.81537 10.2083 8.0987 10.4917 8.0987 10.8333C8.0987 11.175 7.8237 11.4583 7.4737 11.4583Z" fill="#AB1F24"/>
<path d="M12.6836 14.7917C11.3086 14.7917 10.1836 13.6667 10.1836 12.2917V8.76666C10.1836 8.57499 10.2669 8.39999 10.4169 8.27499C10.5669 8.14999 10.7586 8.10833 10.9419 8.14999L14.6919 8.99166C14.9753 9.05833 15.1836 9.30833 15.1836 9.59999V12.2833C15.1836 13.6667 14.0669 14.7917 12.6836 14.7917ZM11.4336 9.54999V12.2917C11.4336 12.9833 11.9919 13.5417 12.6836 13.5417C13.3753 13.5417 13.9336 12.9833 13.9336 12.2917V10.1083L11.4336 9.54999Z" fill="#AB1F24"/>
<path d="M16.4336 14.7917C15.0586 14.7917 13.9336 13.6667 13.9336 12.2917V9.60833C13.9336 9.41667 14.0169 9.24167 14.1669 9.125C14.3169 9.00833 14.5086 8.95833 14.6919 9L16.3836 9.375C18.0419 9.74167 18.8753 10.7167 18.9253 12.375C18.9253 12.3917 18.9253 12.4083 18.9253 12.425C18.8586 13.75 17.7669 14.7917 16.4336 14.7917ZM15.1836 10.3833V12.2917C15.1836 12.9833 15.7419 13.5417 16.4336 13.5417C17.0919 13.5417 17.6336 13.0333 17.6753 12.3833C17.6336 11.3333 17.2003 10.8333 16.1169 10.5917L15.1836 10.3833Z" fill="#AB1F24"/>
</svg>
