<svg width="16" height="16" viewBox="0 0 16 16" fill="none" xmlns="http://www.w3.org/2000/svg">
<path d="M7.9987 15.1666C4.04536 15.1666 0.832031 11.9533 0.832031 7.99998C0.832031 4.04665 4.04536 0.833313 7.9987 0.833313C11.952 0.833313 15.1654 4.04665 15.1654 7.99998C15.1654 11.9533 11.952 15.1666 7.9987 15.1666ZM7.9987 1.83331C4.5987 1.83331 1.83203 4.59998 1.83203 7.99998C1.83203 11.4 4.5987 14.1666 7.9987 14.1666C11.3987 14.1666 14.1654 11.4 14.1654 7.99998C14.1654 4.59998 11.3987 1.83331 7.9987 1.83331Z" fill="white"/>
<path d="M8.15885 11.1666C6.41219 11.1666 4.99219 9.74665 4.99219 7.99998C4.99219 6.25331 6.41219 4.83331 8.15885 4.83331C8.92552 4.83331 9.67219 5.11331 10.2455 5.62665C10.4522 5.80665 10.4722 6.12665 10.2922 6.33331C10.1122 6.53998 9.7922 6.55998 9.58553 6.37998C9.1922 6.03332 8.68552 5.83999 8.15885 5.83999C6.96552 5.83999 5.99219 6.81332 5.99219 8.00665C5.99219 9.19999 6.96552 10.1733 8.15885 10.1733C8.67885 10.1733 9.1922 9.97999 9.58553 9.63332C9.7922 9.45332 10.1122 9.47333 10.2922 9.67999C10.4722 9.88666 10.4522 10.2067 10.2455 10.3867C9.66552 10.8867 8.92552 11.1666 8.15885 11.1666Z" fill="white"/>
</svg>
