<svg width="20" height="20" viewBox="0 0 20 20" fill="none" xmlns="http://www.w3.org/2000/svg">
<path d="M16.7513 7.68333C15.243 7.68333 14.6263 6.61666 15.3763 5.30833C15.8096 4.55 15.5513 3.58333 14.793 3.15L13.3513 2.325C12.693 1.93333 11.843 2.16666 11.4513 2.825L11.3596 2.98333C10.6096 4.29166 9.3763 4.29166 8.61797 2.98333L8.5263 2.825C8.1513 2.16666 7.3013 1.93333 6.64297 2.325L5.2013 3.15C4.44297 3.58333 4.18464 4.55833 4.61797 5.31666C5.3763 6.61666 4.75964 7.68333 3.2513 7.68333C2.38464 7.68333 1.66797 8.39166 1.66797 9.26666V10.7333C1.66797 11.6 2.3763 12.3167 3.2513 12.3167C4.75964 12.3167 5.3763 13.3833 4.61797 14.6917C4.18464 15.45 4.44297 16.4167 5.2013 16.85L6.64297 17.675C7.3013 18.0667 8.1513 17.8333 8.54297 17.175L8.63464 17.0167C9.38464 15.7083 10.618 15.7083 11.3763 17.0167L11.468 17.175C11.8596 17.8333 12.7096 18.0667 13.368 17.675L14.8096 16.85C15.568 16.4167 15.8263 15.4417 15.393 14.6917C14.6346 13.3833 15.2513 12.3167 16.7596 12.3167C17.6263 12.3167 18.343 11.6083 18.343 10.7333V9.26666C18.3346 8.4 17.6263 7.68333 16.7513 7.68333ZM10.0013 12.7083C8.50964 12.7083 7.29297 11.4917 7.29297 10C7.29297 8.50833 8.50964 7.29167 10.0013 7.29167C11.493 7.29167 12.7096 8.50833 12.7096 10C12.7096 11.4917 11.493 12.7083 10.0013 12.7083Z" fill="#676767"/>
</svg>
