<svg width="16" height="16" viewBox="0 0 16 16" fill="none" xmlns="http://www.w3.org/2000/svg">
<path d="M7.36536 9.96665L6.13203 11.2C5.87203 11.46 5.4587 11.46 5.19203 11.2066C5.1187 11.1333 5.04536 11.0666 4.97203 10.9933C4.28536 10.3 3.66536 9.57331 3.11203 8.81331C2.56536 8.05331 2.12536 7.29331 1.80536 6.53998C1.49203 5.77998 1.33203 5.05331 1.33203 4.35998C1.33203 3.90665 1.41203 3.47331 1.57203 3.07331C1.73203 2.66665 1.98536 2.29331 2.3387 1.95998C2.76536 1.53998 3.23203 1.33331 3.72536 1.33331C3.91203 1.33331 4.0987 1.37331 4.26536 1.45331C4.4387 1.53331 4.59203 1.65331 4.71203 1.82665L6.2587 4.00665C6.3787 4.17331 6.46536 4.32665 6.52536 4.47331C6.58536 4.61331 6.6187 4.75331 6.6187 4.87998C6.6187 5.03998 6.57203 5.19998 6.4787 5.35331C6.39203 5.50665 6.26536 5.66665 6.10536 5.82665L5.5987 6.35331C5.52536 6.42665 5.49203 6.51331 5.49203 6.61998C5.49203 6.67331 5.4987 6.71998 5.51203 6.77331C5.53203 6.82665 5.55203 6.86665 5.56536 6.90665C5.68536 7.12665 5.89203 7.41331 6.18536 7.75998C6.48536 8.10665 6.80536 8.45998 7.15203 8.81331C7.2187 8.87998 7.29203 8.94665 7.3587 9.01331C7.62536 9.27331 7.63203 9.69998 7.36536 9.96665Z" fill="#BC2228"/>
<path d="M14.6451 12.22C14.6451 12.4067 14.6118 12.6 14.5451 12.7867C14.5251 12.84 14.5051 12.8933 14.4784 12.9467C14.3651 13.1867 14.2184 13.4133 14.0251 13.6267C13.6984 13.9867 13.3384 14.2467 12.9318 14.4133C12.9251 14.4133 12.9184 14.42 12.9118 14.42C12.5184 14.58 12.0918 14.6667 11.6318 14.6667C10.9518 14.6667 10.2251 14.5067 9.45844 14.18C8.69177 13.8533 7.9251 13.4133 7.1651 12.86C6.9051 12.6667 6.6451 12.4733 6.39844 12.2667L8.57844 10.0867C8.7651 10.2267 8.93177 10.3333 9.07177 10.4067C9.1051 10.42 9.1451 10.44 9.19177 10.46C9.2451 10.48 9.29844 10.4867 9.35844 10.4867C9.47177 10.4867 9.55844 10.4467 9.63177 10.3733L10.1384 9.87332C10.3051 9.70665 10.4651 9.57999 10.6184 9.49999C10.7718 9.40665 10.9251 9.35999 11.0918 9.35999C11.2184 9.35999 11.3518 9.38665 11.4984 9.44665C11.6451 9.50665 11.7984 9.59332 11.9651 9.70665L14.1718 11.2733C14.3451 11.3933 14.4651 11.5333 14.5384 11.7C14.6051 11.8667 14.6451 12.0333 14.6451 12.22Z" fill="#BC2228"/>
</svg>
