<svg width="16" height="16" viewBox="0 0 16 16" fill="none" xmlns="http://www.w3.org/2000/svg">
<path d="M14.0451 3.48668C12.9718 3.38001 11.8985 3.30001 10.8185 3.24001V3.23334L10.6718 2.36668C10.5718 1.75334 10.4251 0.833344 8.86514 0.833344H7.11848C5.56514 0.833344 5.41848 1.71334 5.31181 2.36001L5.17181 3.21334C4.55181 3.25334 3.93181 3.29334 3.31181 3.35334L1.95181 3.48668C1.67181 3.51334 1.47181 3.76001 1.49848 4.03334C1.52514 4.30668 1.76514 4.50668 2.04514 4.48001L3.40514 4.34668C6.89848 4.00001 10.4185 4.13334 13.9518 4.48668C13.9718 4.48668 13.9851 4.48668 14.0051 4.48668C14.2585 4.48668 14.4785 4.29334 14.5051 4.03334C14.5251 3.76001 14.3251 3.51334 14.0451 3.48668Z" fill="#BC2228"/>
<path d="M12.8211 5.42666C12.6611 5.25999 12.4411 5.16666 12.2145 5.16666H3.7878C3.56114 5.16666 3.33447 5.25999 3.18114 5.42666C3.0278 5.59332 2.94114 5.81999 2.95447 6.05332L3.3678 12.8933C3.44114 13.9067 3.53447 15.1733 5.86114 15.1733H10.1411C12.4678 15.1733 12.5611 13.9133 12.6345 12.8933L13.0478 6.05999C13.0611 5.81999 12.9745 5.59332 12.8211 5.42666ZM9.1078 11.8333H6.8878C6.61447 11.8333 6.3878 11.6067 6.3878 11.3333C6.3878 11.06 6.61447 10.8333 6.8878 10.8333H9.1078C9.38113 10.8333 9.6078 11.06 9.6078 11.3333C9.6078 11.6067 9.38113 11.8333 9.1078 11.8333ZM9.6678 9.16666H6.33447C6.06114 9.16666 5.83447 8.93999 5.83447 8.66666C5.83447 8.39332 6.06114 8.16666 6.33447 8.16666H9.6678C9.94113 8.16666 10.1678 8.39332 10.1678 8.66666C10.1678 8.93999 9.94113 9.16666 9.6678 9.16666Z" fill="#BC2228"/>
</svg>
