<svg width="16" height="16" viewBox="0 0 16 16" fill="none" xmlns="http://www.w3.org/2000/svg">
<path d="M7.9987 15.1667C4.04536 15.1667 0.832031 11.9534 0.832031 8.00004C0.832031 4.04671 4.04536 0.833374 7.9987 0.833374C11.952 0.833374 15.1654 4.04671 15.1654 8.00004C15.1654 11.9534 11.952 15.1667 7.9987 15.1667ZM7.9987 1.83337C4.5987 1.83337 1.83203 4.60004 1.83203 8.00004C1.83203 11.4 4.5987 14.1667 7.9987 14.1667C11.3987 14.1667 14.1654 11.4 14.1654 8.00004C14.1654 4.60004 11.3987 1.83337 7.9987 1.83337Z" fill="white"/>
<path d="M8.15885 11.1667C6.41219 11.1667 4.99219 9.74671 4.99219 8.00004C4.99219 6.25337 6.41219 4.83337 8.15885 4.83337C8.92552 4.83337 9.67219 5.11338 10.2455 5.62671C10.4522 5.80671 10.4722 6.12671 10.2922 6.33337C10.1122 6.54004 9.7922 6.56005 9.58553 6.38005C9.1922 6.03338 8.68552 5.84005 8.15885 5.84005C6.96552 5.84005 5.99219 6.81338 5.99219 8.00671C5.99219 9.20005 6.96552 10.1734 8.15885 10.1734C8.67885 10.1734 9.1922 9.98005 9.58553 9.63338C9.7922 9.45338 10.1122 9.47339 10.2922 9.68005C10.4722 9.88672 10.4522 10.2067 10.2455 10.3867C9.66552 10.8867 8.92552 11.1667 8.15885 11.1667Z" fill="white"/>
</svg>
