<svg width="16" height="16" viewBox="0 0 16 16" fill="none" xmlns="http://www.w3.org/2000/svg">
<path d="M11.6847 5.18001C11.6381 5.17334 11.5914 5.17334 11.5447 5.18001C10.5114 5.14668 9.69141 4.30001 9.69141 3.26001C9.69141 2.20001 10.5514 1.33334 11.6181 1.33334C12.6781 1.33334 13.5447 2.19334 13.5447 3.26001C13.5381 4.30001 12.7181 5.14668 11.6847 5.18001Z" fill="#BC2228"/>
<path d="M13.8597 9.79999C13.1131 10.3 12.0664 10.4867 11.0997 10.36C11.3531 9.81333 11.4864 9.20666 11.4931 8.56666C11.4931 7.89999 11.3464 7.26666 11.0664 6.71333C12.0531 6.57999 13.0997 6.76666 13.8531 7.26666C14.9064 7.95999 14.9064 9.09999 13.8597 9.79999Z" fill="#BC2228"/>
<path d="M4.29474 5.18001C4.34141 5.17334 4.38807 5.17334 4.43474 5.18001C5.46807 5.14668 6.28807 4.30001 6.28807 3.26001C6.28807 2.19334 5.42807 1.33334 4.36141 1.33334C3.30141 1.33334 2.44141 2.19334 2.44141 3.26001C2.44141 4.30001 3.26141 5.14668 4.29474 5.18001Z" fill="#BC2228"/>
<path d="M4.36479 8.56666C4.36479 9.21333 4.50479 9.82666 4.75813 10.38C3.81813 10.48 2.83813 10.28 2.11813 9.80666C1.06479 9.10666 1.06479 7.96666 2.11813 7.26666C2.83146 6.78666 3.83813 6.59333 4.78479 6.7C4.51146 7.26 4.36479 7.89333 4.36479 8.56666Z" fill="#BC2228"/>
<path d="M8.07922 10.58C8.02589 10.5733 7.96588 10.5733 7.90588 10.58C6.67922 10.54 5.69922 9.53333 5.69922 8.29333C5.70589 7.02667 6.72589 6 7.99922 6C9.26589 6 10.2926 7.02667 10.2926 8.29333C10.2859 9.53333 9.31255 10.54 8.07922 10.58Z" fill="#BC2228"/>
<path d="M5.91516 11.96C4.90849 12.6333 4.90849 13.74 5.91516 14.4067C7.06182 15.1733 8.94182 15.1733 10.0885 14.4067C11.0952 13.7333 11.0952 12.6267 10.0885 11.96C8.94849 11.1933 7.06849 11.1933 5.91516 11.96Z" fill="#BC2228"/>
</svg>
