<svg width="48" height="48" viewBox="0 0 48 48" fill="none" xmlns="http://www.w3.org/2000/svg">
<rect width="48" height="48" rx="24" fill="#F4F4F4"/>
<path d="M23.1785 14.6231C17.1548 14.6231 12.2734 19.4968 12.2734 25.5067C12.2734 31.5185 17.1548 36.3922 23.1785 36.3922C29.2023 36.3922 34.0836 31.5185 34.0836 25.5086C34.0836 19.4968 29.2023 14.6231 23.1785 14.6231Z" fill="#BC2228"/>
<path d="M30.7666 37.0999C23.1948 36.5778 12.4895 34.2329 10.9219 17.8166C12.033 19.1484 13.5732 20.623 15.3564 21.8747C17.5923 26.8422 21.4076 30.2921 25.6697 32.4082C26.7592 34.0764 28.372 35.7466 30.7666 37.1019V37.0999Z" fill="#72BEDB"/>
<path d="M25.6688 32.4058C21.4047 30.2897 17.5894 26.8398 15.3555 21.8723C17.7599 23.564 20.6072 24.8509 23.4544 24.8509C23.4544 24.8509 23.2036 28.6195 25.6688 32.4058Z" fill="#231651"/>
<path d="M25.6694 32.4062C23.2042 28.6199 23.4551 24.8512 23.4551 24.8512C20.6058 24.8512 17.7605 23.5644 15.3561 21.8727C13.9883 18.8413 13.2103 15.2467 13.2731 11.04C15.8852 14.1672 23.1964 20.1614 28.1561 20.1614C28.1561 20.1614 29.4612 30.5854 37.2956 35.0151C33.5881 35.109 29.4514 34.2797 25.6694 32.4062Z" fill="#1790BF"/>
</svg>
