<svg width="16" height="16" viewBox="0 0 16 16" fill="none" xmlns="http://www.w3.org/2000/svg">
<mask id="path-1-inside-1_0_2384" fill="white">
<path d="M8.00099 11.2C7.53432 11.2 7.06766 11.02 6.71432 10.6667L2.36766 6.31999C2.17432 6.12666 2.17432 5.80666 2.36766 5.61332C2.56099 5.41999 2.88099 5.41999 3.07432 5.61332L7.42099 9.95999C7.74099 10.28 8.26099 10.28 8.58099 9.95999L12.9277 5.61332C13.121 5.41999 13.441 5.41999 13.6343 5.61332C13.8277 5.80666 13.8277 6.12666 13.6343 6.31999L9.28766 10.6667C8.93432 11.02 8.46766 11.2 8.00099 11.2Z"/>
</mask>
<path d="M8.00099 11.2C7.53432 11.2 7.06766 11.02 6.71432 10.6667L2.36766 6.31999C2.17432 6.12666 2.17432 5.80666 2.36766 5.61332C2.56099 5.41999 2.88099 5.41999 3.07432 5.61332L7.42099 9.95999C7.74099 10.28 8.26099 10.28 8.58099 9.95999L12.9277 5.61332C13.121 5.41999 13.441 5.41999 13.6343 5.61332C13.8277 5.80666 13.8277 6.12666 13.6343 6.31999L9.28766 10.6667C8.93432 11.02 8.46766 11.2 8.00099 11.2Z" fill="#292D32"/>
<path d="M6.71432 10.6667L6.00722 11.3738L6.71432 10.6667ZM2.36766 6.31999L3.07476 5.61288V5.61288L2.36766 6.31999ZM3.07432 5.61332L2.36722 6.32043L3.07432 5.61332ZM7.42099 9.95999L8.1281 9.25288L7.42099 9.95999ZM8.58099 9.95999L9.2881 10.6671L8.58099 9.95999ZM12.9277 5.61332L12.2205 4.90622V4.90622L12.9277 5.61332ZM13.6343 6.31999L12.9272 5.61288V5.61288L13.6343 6.31999ZM9.28766 10.6667L9.99476 11.3738L9.28766 10.6667ZM8.00099 10.2C7.79037 10.2 7.58084 10.119 7.42143 9.95955L6.00722 11.3738C6.55447 11.921 7.27828 12.2 8.00099 12.2V10.2ZM7.42143 9.95955L3.07476 5.61288L1.66055 7.0271L6.00722 11.3738L7.42143 9.95955ZM3.07476 5.61288C3.27195 5.81007 3.27195 6.12324 3.07476 6.32043L1.66055 4.90622C1.07669 5.49007 1.07669 6.44324 1.66055 7.0271L3.07476 5.61288ZM3.07476 6.32043C2.87757 6.51762 2.56441 6.51762 2.36722 6.32043L3.78143 4.90622C3.19757 4.32236 2.24441 4.32236 1.66055 4.90622L3.07476 6.32043ZM2.36722 6.32043L6.71388 10.6671L8.1281 9.25288L3.78143 4.90622L2.36722 6.32043ZM6.71388 10.6671C7.42441 11.3776 8.57757 11.3776 9.2881 10.6671L7.87388 9.25288C7.94441 9.18236 8.05757 9.18236 8.1281 9.25288L6.71388 10.6671ZM9.2881 10.6671L13.6348 6.32043L12.2205 4.90622L7.87388 9.25288L9.2881 10.6671ZM13.6348 6.32043C13.4376 6.51762 13.1244 6.51762 12.9272 6.32043L14.3414 4.90622C13.7576 4.32236 12.8044 4.32236 12.2205 4.90622L13.6348 6.32043ZM12.9272 6.32043C12.73 6.12324 12.73 5.81007 12.9272 5.61288L14.3414 7.0271C14.9253 6.44324 14.9253 5.49007 14.3414 4.90622L12.9272 6.32043ZM12.9272 5.61288L8.58055 9.95955L9.99476 11.3738L14.3414 7.0271L12.9272 5.61288ZM8.58055 9.95955C8.42114 10.119 8.21161 10.2 8.00099 10.2V12.2C8.7237 12.2 9.44751 11.921 9.99476 11.3738L8.58055 9.95955Z" fill="#3D3D3D" mask="url(#path-1-inside-1_0_2384)"/>
</svg>
