<svg width="48" height="48" viewBox="0 0 48 48" fill="none" xmlns="http://www.w3.org/2000/svg">
<rect width="48" height="48" rx="24" fill="#F4F4F4"/>
<path d="M23.1746 14.6231C17.1509 14.6231 12.2695 19.4968 12.2695 25.5067C12.2695 31.5185 17.1509 36.3922 23.1746 36.3922C29.1984 36.3922 34.0797 31.5185 34.0797 25.5086C34.0797 19.4968 29.1984 14.6231 23.1746 14.6231Z" fill="#BC2228"/>
<path d="M30.7627 37.0999C23.1909 36.5778 12.4856 34.2329 10.918 17.8166C12.0291 19.1484 13.5693 20.623 15.3525 21.8747C17.5884 26.8422 21.4037 30.2921 25.6658 32.4082C26.7553 34.0764 28.3681 35.7466 30.7627 37.1019V37.0999Z" fill="#72BEDB"/>
<path d="M25.6649 32.4058C21.4008 30.2897 17.5855 26.8398 15.3516 21.8723C17.756 23.564 20.6033 24.8509 23.4505 24.8509C23.4505 24.8509 23.1997 28.6195 25.6649 32.4058Z" fill="#231651"/>
<path d="M25.6655 32.4062C23.2003 28.6199 23.4511 24.8512 23.4511 24.8512C20.6019 24.8512 17.7566 23.5644 15.3522 21.8727C13.9844 18.8413 13.2064 15.2467 13.2691 11.04C15.8813 14.1672 23.1925 20.1614 28.1522 20.1614C28.1522 20.1614 29.4573 30.5854 37.2917 35.0151C33.5842 35.109 29.4475 34.2797 25.6655 32.4062Z" fill="#1790BF"/>
</svg>
