<svg width="16" height="16" viewBox="0 0 16 16" fill="none" xmlns="http://www.w3.org/2000/svg">
<path d="M10 4.71332C10 4.26665 9.78 3.85332 9.40667 3.60665L6.74 1.82665C6.29333 1.52665 5.70667 1.52665 5.26 1.82665L2.59333 3.60665C2.22667 3.85332 2 4.26665 2 4.71332V8.49999C2 8.68665 2.14667 8.83332 2.33333 8.83332H9.66667C9.85333 8.83332 10 8.68665 10 8.49999V4.71332ZM6 7.16665C5.36 7.16665 4.83333 6.63999 4.83333 5.99999C4.83333 5.35999 5.36 4.83332 6 4.83332C6.64 4.83332 7.16667 5.35999 7.16667 5.99999C7.16667 6.63999 6.64 7.16665 6 7.16665Z" fill="#BC2228"/>
<path d="M14.6654 14.1667H13.8187V12.1667C14.452 11.96 14.912 11.3667 14.912 10.6667V9.33334C14.912 8.46001 14.1987 7.74667 13.3254 7.74667C12.452 7.74667 11.7387 8.46001 11.7387 9.33334V10.6667C11.7387 11.36 12.192 11.9467 12.812 12.16V14.1667H9.9987V10.1667C9.9987 9.98001 9.85203 9.83334 9.66537 9.83334H2.33203C2.14536 9.83334 1.9987 9.98001 1.9987 10.1667V14.1667H1.33203C1.0587 14.1667 0.832031 14.3933 0.832031 14.6667C0.832031 14.94 1.0587 15.1667 1.33203 15.1667H13.2854C13.2987 15.1667 13.3054 15.1733 13.3187 15.1733C13.332 15.1733 13.3387 15.1667 13.352 15.1667H14.6654C14.9387 15.1667 15.1654 14.94 15.1654 14.6667C15.1654 14.3933 14.9387 14.1667 14.6654 14.1667ZM5.4987 12.1667C5.4987 11.8933 5.72536 11.6667 5.9987 11.6667C6.27203 11.6667 6.4987 11.8933 6.4987 12.1667V14.1667H5.4987V12.1667Z" fill="#BC2228"/>
</svg>
