<svg width="20" height="20" viewBox="0 0 20 20" fill="none" xmlns="http://www.w3.org/2000/svg">
<path d="M14.168 18.125H5.83464C2.15964 18.125 1.04297 17.0083 1.04297 13.3333V6.66667C1.04297 2.99167 2.15964 1.875 5.83464 1.875H14.168C17.843 1.875 18.9596 2.99167 18.9596 6.66667V13.3333C18.9596 17.0083 17.843 18.125 14.168 18.125ZM5.83464 3.125C2.8513 3.125 2.29297 3.69167 2.29297 6.66667V13.3333C2.29297 16.3083 2.8513 16.875 5.83464 16.875H14.168C17.1513 16.875 17.7096 16.3083 17.7096 13.3333V6.66667C17.7096 3.69167 17.1513 3.125 14.168 3.125H5.83464Z" fill="#AB1F24"/>
<path d="M15.8346 7.29166H11.668C11.3263 7.29166 11.043 7.00832 11.043 6.66666C11.043 6.32499 11.3263 6.04166 11.668 6.04166H15.8346C16.1763 6.04166 16.4596 6.32499 16.4596 6.66666C16.4596 7.00832 16.1763 7.29166 15.8346 7.29166Z" fill="#AB1F24"/>
<path d="M15.8333 10.625H12.5C12.1583 10.625 11.875 10.3417 11.875 10C11.875 9.65833 12.1583 9.375 12.5 9.375H15.8333C16.175 9.375 16.4583 9.65833 16.4583 10C16.4583 10.3417 16.175 10.625 15.8333 10.625Z" fill="#AB1F24"/>
<path d="M15.8346 13.9583H14.168C13.8263 13.9583 13.543 13.675 13.543 13.3333C13.543 12.9917 13.8263 12.7083 14.168 12.7083H15.8346C16.1763 12.7083 16.4596 12.9917 16.4596 13.3333C16.4596 13.675 16.1763 13.9583 15.8346 13.9583Z" fill="#AB1F24"/>
<path d="M7.08255 10.0333C5.90755 10.0333 4.94922 9.07499 4.94922 7.9C4.94922 6.725 5.90755 5.76666 7.08255 5.76666C8.25755 5.76666 9.21589 6.725 9.21589 7.9C9.21589 9.07499 8.25755 10.0333 7.08255 10.0333ZM7.08255 7.01666C6.59922 7.01666 6.19922 7.41666 6.19922 7.9C6.19922 8.38333 6.59922 8.78333 7.08255 8.78333C7.56589 8.78333 7.96589 8.38333 7.96589 7.9C7.96589 7.41666 7.56589 7.01666 7.08255 7.01666Z" fill="#AB1F24"/>
<path d="M10.0009 14.2333C9.68423 14.2333 9.40923 13.9917 9.3759 13.6667C9.28423 12.7667 8.55923 12.0417 7.6509 11.9583C7.26757 11.925 6.88423 11.925 6.5009 11.9583C5.59257 12.0417 4.86757 12.7583 4.7759 13.6667C4.74257 14.0083 4.43423 14.2667 4.09256 14.225C3.7509 14.1917 3.5009 13.8833 3.53423 13.5417C3.68423 12.0417 4.8759 10.85 6.38423 10.7167C6.84257 10.675 7.30923 10.675 7.76756 10.7167C9.26756 10.8583 10.4676 12.05 10.6176 13.5417C10.6509 13.8833 10.4009 14.1917 10.0592 14.225C10.0426 14.2333 10.0176 14.2333 10.0009 14.2333Z" fill="#AB1F24"/>
</svg>
