<svg width="16" height="16" viewBox="0 0 16 16" fill="none" xmlns="http://www.w3.org/2000/svg">
<path d="M9.95354 1.66666V5.59999C9.95354 5.89333 9.60688 6.03999 9.39354 5.84666L8.22688 4.77333C8.10021 4.65333 7.90021 4.65333 7.77354 4.77333L6.60688 5.83999C6.39354 6.03999 6.04688 5.88666 6.04688 5.59999V1.66666C6.04688 1.47999 6.19354 1.33333 6.38021 1.33333H9.62021C9.80688 1.33333 9.95354 1.47999 9.95354 1.66666Z" fill="#BC2228"/>
<path d="M11.32 1.37333C11.1267 1.34666 10.9533 1.51333 10.9533 1.70666V5.72C10.9533 6.22666 10.6533 6.68666 10.1867 6.89333C9.72 7.09333 9.18 7.00666 8.80667 6.66L8.22667 6.12666C8.1 6.00666 7.90667 6.00666 7.77333 6.12666L7.19333 6.66C6.95333 6.88666 6.64 7 6.32667 7C6.15333 7 5.98 6.96666 5.81333 6.89333C5.34667 6.68666 5.04667 6.22666 5.04667 5.72V1.70666C5.04667 1.51333 4.87333 1.34666 4.68 1.37333C2.81333 1.60666 2 2.86666 2 4.66666V11.3333C2 13.3333 3 14.6667 5.33333 14.6667H10.6667C13 14.6667 14 13.3333 14 11.3333V4.66666C14 2.86666 13.1867 1.60666 11.32 1.37333ZM11.6667 12.5H6C5.72667 12.5 5.5 12.2733 5.5 12C5.5 11.7267 5.72667 11.5 6 11.5H11.6667C11.94 11.5 12.1667 11.7267 12.1667 12C12.1667 12.2733 11.94 12.5 11.6667 12.5ZM11.6667 9.83333H8.83333C8.56 9.83333 8.33333 9.60666 8.33333 9.33333C8.33333 9.06 8.56 8.83333 8.83333 8.83333H11.6667C11.94 8.83333 12.1667 9.06 12.1667 9.33333C12.1667 9.60666 11.94 9.83333 11.6667 9.83333Z" fill="#BC2228"/>
</svg>
