<svg width="20" height="20" viewBox="0 0 20 20" fill="none" xmlns="http://www.w3.org/2000/svg">
<path d="M14.166 17.5H5.83268C2.49935 17.5 1.66602 16.6667 1.66602 13.3333V6.66667C1.66602 3.33333 2.49935 2.5 5.83268 2.5H14.166C17.4993 2.5 18.3327 3.33333 18.3327 6.66667V13.3333C18.3327 16.6667 17.4993 17.5 14.166 17.5Z" stroke="#BC2228" stroke-width="1.5" stroke-linecap="round" stroke-linejoin="round"/>
<path d="M11.666 6.66667H15.8327" stroke="#BC2228" stroke-width="1.5" stroke-linecap="round" stroke-linejoin="round"/>
<path d="M12.5 10H15.8333" stroke="#BC2228" stroke-width="1.5" stroke-linecap="round" stroke-linejoin="round"/>
<path d="M14.166 13.3333H15.8327" stroke="#BC2228" stroke-width="1.5" stroke-linecap="round" stroke-linejoin="round"/>
<path d="M7.08255 9.40833C7.91558 9.40833 8.59089 8.73302 8.59089 7.9C8.59089 7.06697 7.91558 6.39166 7.08255 6.39166C6.24952 6.39166 5.57422 7.06697 5.57422 7.9C5.57422 8.73302 6.24952 9.40833 7.08255 9.40833Z" stroke="#BC2228" stroke-width="1.5" stroke-linecap="round" stroke-linejoin="round"/>
<path d="M9.99935 13.6083C9.88268 12.4 8.92435 11.45 7.71602 11.3417C7.29935 11.3 6.87435 11.3 6.44935 11.3417C5.24102 11.4583 4.28268 12.4 4.16602 13.6083" stroke="#BC2228" stroke-width="1.5" stroke-linecap="round" stroke-linejoin="round"/>
</svg>
