<svg width="16" height="16" viewBox="0 0 16 16" fill="none" xmlns="http://www.w3.org/2000/svg">
<path d="M10 4.71335C10 4.26668 9.78 3.85335 9.40667 3.60668L6.74 1.82668C6.29333 1.52668 5.70667 1.52668 5.26 1.82668L2.59333 3.60668C2.22667 3.85335 2 4.26668 2 4.71335V8.50002C2 8.68668 2.14667 8.83335 2.33333 8.83335H9.66667C9.85333 8.83335 10 8.68668 10 8.50002V4.71335ZM6 7.16668C5.36 7.16668 4.83333 6.64002 4.83333 6.00002C4.83333 5.36002 5.36 4.83335 6 4.83335C6.64 4.83335 7.16667 5.36002 7.16667 6.00002C7.16667 6.64002 6.64 7.16668 6 7.16668Z" fill="#BC2228"/>
<path d="M14.6673 14.1667H13.8207V12.1667C14.454 11.96 14.914 11.3667 14.914 10.6667V9.33337C14.914 8.46004 14.2007 7.7467 13.3273 7.7467C12.454 7.7467 11.7407 8.46004 11.7407 9.33337V10.6667C11.7407 11.36 12.194 11.9467 12.814 12.16V14.1667H10.0007V10.1667C10.0007 9.98004 9.85398 9.83337 9.66732 9.83337H2.33398C2.14732 9.83337 2.00065 9.98004 2.00065 10.1667V14.1667H1.33398C1.06065 14.1667 0.833984 14.3934 0.833984 14.6667C0.833984 14.94 1.06065 15.1667 1.33398 15.1667H13.2873C13.3007 15.1667 13.3073 15.1734 13.3207 15.1734C13.334 15.1734 13.3407 15.1667 13.354 15.1667H14.6673C14.9407 15.1667 15.1673 14.94 15.1673 14.6667C15.1673 14.3934 14.9407 14.1667 14.6673 14.1667ZM5.50065 12.1667C5.50065 11.8934 5.72732 11.6667 6.00065 11.6667C6.27398 11.6667 6.50065 11.8934 6.50065 12.1667V14.1667H5.50065V12.1667Z" fill="#BC2228"/>
</svg>
