<svg width="16" height="16" viewBox="0 0 16 16" fill="none" xmlns="http://www.w3.org/2000/svg">
<path d="M8.00065 15.1667C4.04732 15.1667 0.833984 11.9534 0.833984 8.00004C0.833984 4.04671 4.04732 0.833374 8.00065 0.833374C11.954 0.833374 15.1673 4.04671 15.1673 8.00004C15.1673 11.9534 11.954 15.1667 8.00065 15.1667ZM8.00065 1.83337C4.60065 1.83337 1.83398 4.60004 1.83398 8.00004C1.83398 11.4 4.60065 14.1667 8.00065 14.1667C11.4007 14.1667 14.1673 11.4 14.1673 8.00004C14.1673 4.60004 11.4007 1.83337 8.00065 1.83337Z" fill="white"/>
<path d="M8.16081 11.1667C6.41414 11.1667 4.99414 9.74671 4.99414 8.00004C4.99414 6.25337 6.41414 4.83337 8.16081 4.83337C8.92747 4.83337 9.67414 5.11338 10.2475 5.62671C10.4541 5.80671 10.4741 6.12671 10.2941 6.33337C10.1141 6.54004 9.79415 6.56005 9.58748 6.38005C9.19415 6.03338 8.68747 5.84005 8.16081 5.84005C6.96747 5.84005 5.99414 6.81338 5.99414 8.00671C5.99414 9.20005 6.96747 10.1734 8.16081 10.1734C8.68081 10.1734 9.19415 9.98005 9.58748 9.63338C9.79415 9.45338 10.1141 9.47339 10.2941 9.68005C10.4741 9.88672 10.4541 10.2067 10.2475 10.3867C9.66748 10.8867 8.92747 11.1667 8.16081 11.1667Z" fill="white"/>
</svg>
