<svg width="16" height="16" viewBox="0 0 16 16" fill="none" xmlns="http://www.w3.org/2000/svg">
<path d="M11.334 2.33337H4.66732C2.66732 2.33337 1.33398 3.33337 1.33398 5.66671V10.3334C1.33398 12.6667 2.66732 13.6667 4.66732 13.6667H11.334C13.334 13.6667 14.6673 12.6667 14.6673 10.3334V5.66671C14.6673 3.33337 13.334 2.33337 11.334 2.33337ZM11.6473 6.39337L9.56065 8.06004C9.12065 8.41337 8.56065 8.58671 8.00065 8.58671C7.44065 8.58671 6.87398 8.41337 6.44065 8.06004L4.35398 6.39337C4.14065 6.22004 4.10732 5.90004 4.27398 5.68671C4.44732 5.47337 4.76065 5.43337 4.97398 5.60671L7.06065 7.27337C7.56732 7.68004 8.42732 7.68004 8.93398 7.27337L11.0207 5.60671C11.234 5.43337 11.554 5.46671 11.7207 5.68671C11.894 5.90004 11.8607 6.22004 11.6473 6.39337Z" fill="#BC2228"/>
</svg>
