<svg width="16" height="16" viewBox="0 0 16 16" fill="none" xmlns="http://www.w3.org/2000/svg">
<path d="M11.2194 10.4267C11.6661 10.1333 12.2528 10.4533 12.2528 10.9867V11.8467C12.2528 12.6933 11.5928 13.6 10.7994 13.8667L8.67276 14.5733C8.29943 14.7 7.69276 14.7 7.32609 14.5733L5.19943 13.8667C4.39943 13.6 3.74609 12.6933 3.74609 11.8467V10.98C3.74609 10.4533 4.33276 10.1333 4.77276 10.42L6.14609 11.3133C6.67276 11.6667 7.33943 11.84 8.00609 11.84C8.67276 11.84 9.33943 11.6667 9.86609 11.3133L11.2194 10.4267Z" fill="#BC2228"/>
<path d="M13.319 4.30666L9.3257 1.68666C8.6057 1.21333 7.41904 1.21333 6.69904 1.68666L2.6857 4.30666C1.39904 5.14 1.39904 7.02666 2.6857 7.86666L3.75237 8.56L6.69904 10.48C7.41904 10.9533 8.6057 10.9533 9.3257 10.48L12.2524 8.56L13.1657 7.96V10C13.1657 10.2733 13.3924 10.5 13.6657 10.5C13.939 10.5 14.1657 10.2733 14.1657 10V6.72C14.4324 5.86 14.159 4.86 13.319 4.30666Z" fill="#BC2228"/>
</svg>
