<svg width="203" height="48" viewBox="0 0 203 48" fill="none" xmlns="http://www.w3.org/2000/svg">
<path d="M13.0516 21.7718H5.20239V5.2841H13.0229C13.0229 5.2841 21.2883 4.91101 21.2883 13.0759C21.2883 21.0543 13.6974 21.7718 13.0516 21.7718ZM16.7251 24.8713C16.7251 24.8713 26.7986 22.8911 26.7986 12.4446C26.7986 1.98369 17.0839 0.462626 14.0848 0.462626H0.00782455V45.9222H5.20239V26.3637H9.47858C11.8893 26.3637 14.2857 26.7511 17.6148 32.161L25.6219 45.9079H31.821L22.0489 29.8937C22.0489 29.8937 19.6955 25.8041 16.7251 24.8713Z" fill="white"/>
<path d="M40.3163 5.2841V0.462626H35.0931V5.2267" fill="white"/>
<path d="M35.0931 6.99184V46.1089H40.3163V7.03489" fill="white"/>
<path d="M102.666 6.99184H97.4567V46.0515H102.666V6.99184Z" fill="white"/>
<path d="M94.2556 6.91995H72.559V12.215H94.2556V6.91995Z" fill="white"/>
<path d="M94.2556 40.7995H72.559V46.0945H94.2556V40.7995Z" fill="white"/>
<path d="M87.1956 24.1682H72.559V29.4775H87.1956V24.1682Z" fill="white"/>
<path d="M59.8746 6.99184H54.6226L40.1438 26.5217L54.6226 46.0515H59.8746L45.4245 26.5217L59.8746 6.99184Z" fill="white"/>
<path d="M64.2376 6.99184L49.9597 26.5217L64.2376 46.0515H69.4465L55.1543 26.5217L69.4465 6.99184H64.2376Z" fill="white"/>
<path d="M108.741 45.3059L108.266 40.9026H109.031L109.229 42.8769L109.322 43.994C109.322 44.0719 109.335 44.2408 109.348 44.5006C109.44 44.2148 109.493 44.007 109.572 43.8511C109.625 43.6952 109.718 43.4874 109.849 43.2017L110.931 40.9026H111.776L111.921 43.1107C111.947 43.4484 111.96 43.8901 111.96 44.4486C112.105 44.0719 112.343 43.5654 112.673 42.9029L113.649 40.9026H114.427L112.198 45.3059H111.38L111.222 42.7211C111.208 42.5652 111.195 42.2534 111.195 41.7858C111.076 42.0846 110.944 42.3963 110.773 42.747L109.559 45.3189H108.741V45.3059Z" fill="white"/>
<path d="M114.256 45.3059L115.562 39.227H116.354L115.852 41.5651C116.156 41.2923 116.42 41.0975 116.657 40.9806C116.908 40.8507 117.172 40.7987 117.422 40.7987C117.805 40.7987 118.108 40.8896 118.319 41.0845C118.53 41.2793 118.636 41.5261 118.636 41.8508C118.636 42.0067 118.596 42.2925 118.504 42.7081L117.937 45.3059H117.145L117.726 42.6302C117.818 42.2405 117.858 42.0067 117.858 41.9028C117.858 41.7599 117.792 41.643 117.699 41.5521C117.594 41.4611 117.435 41.4222 117.251 41.4222C116.974 41.4222 116.697 41.5001 116.446 41.63C116.195 41.7729 115.984 41.9677 115.852 42.2145C115.707 42.4613 115.575 42.864 115.457 43.4095L115.034 45.3059H114.256Z" fill="white"/>
<path d="M120.27 42.7079H122.83C122.843 42.63 122.843 42.578 122.843 42.5391C122.843 42.1624 122.737 41.8766 122.539 41.6688C122.342 41.474 122.091 41.37 121.787 41.37C121.458 41.37 121.167 41.487 120.877 41.7078C120.6 41.9286 120.402 42.2663 120.27 42.7079ZM122.526 43.799L123.291 43.877C123.186 44.2407 122.935 44.5784 122.526 44.9161C122.144 45.2408 121.682 45.4097 121.128 45.4097C120.785 45.4097 120.468 45.3318 120.191 45.1889C119.914 45.046 119.703 44.8252 119.545 44.5264C119.4 44.2407 119.32 43.9029 119.32 43.5392C119.32 43.0586 119.439 42.591 119.663 42.1364C119.901 41.6818 120.204 41.3441 120.574 41.1233C120.93 40.9024 121.326 40.7985 121.761 40.7985C122.315 40.7985 122.737 40.9674 123.067 41.2921C123.397 41.6168 123.555 42.0585 123.555 42.63C123.555 42.8508 123.542 43.0716 123.503 43.2924H120.138C120.125 43.3834 120.125 43.4613 120.125 43.5263C120.125 43.9419 120.218 44.2536 120.429 44.4745C120.627 44.6953 120.864 44.7992 121.141 44.7992C121.405 44.7992 121.682 44.7083 121.933 44.5394C122.183 44.3706 122.381 44.1238 122.526 43.799Z" fill="white"/>
<path d="M124.086 45.3058L125.049 40.9024H125.735L125.537 41.7987C125.774 41.461 125.999 41.2012 126.236 41.0453C126.46 40.8765 126.685 40.7985 126.922 40.7985C127.08 40.7985 127.265 40.8505 127.503 40.9544L127.173 41.6558C127.041 41.5649 126.896 41.5129 126.724 41.5129C126.46 41.5129 126.17 41.6558 125.893 41.9546C125.616 42.2533 125.365 42.7729 125.207 43.5392L124.824 45.3058H124.086Z" fill="white"/>
<path d="M128.121 42.7079H130.681C130.694 42.63 130.694 42.578 130.694 42.5391C130.694 42.1624 130.588 41.8766 130.39 41.6688C130.193 41.474 129.942 41.37 129.625 41.37C129.295 41.37 129.005 41.487 128.715 41.7078C128.464 41.9286 128.253 42.2663 128.121 42.7079ZM130.39 43.799L131.156 43.877C131.05 44.2407 130.799 44.5784 130.39 44.9161C130.008 45.2408 129.546 45.4097 128.992 45.4097C128.649 45.4097 128.332 45.3318 128.055 45.1889C127.778 45.046 127.567 44.8252 127.422 44.5264C127.277 44.2407 127.198 43.9029 127.198 43.5392C127.198 43.0586 127.316 42.591 127.541 42.1364C127.778 41.6818 128.082 41.3441 128.451 41.1233C128.807 40.9024 129.203 40.7985 129.638 40.7985C130.193 40.7985 130.615 40.9674 130.945 41.2921C131.274 41.6168 131.433 42.0585 131.433 42.63C131.433 42.8508 131.42 43.0716 131.38 43.2924H127.989C127.976 43.3834 127.976 43.4613 127.976 43.5263C127.976 43.9419 128.069 44.2536 128.28 44.4745C128.477 44.6953 128.715 44.7992 128.992 44.7992C129.256 44.7992 129.533 44.7083 129.784 44.5394C130.047 44.3706 130.232 44.1238 130.39 43.799Z" fill="white"/>
<path d="M136.223 44.6953L136.091 45.3058C135.906 45.3578 135.721 45.3708 135.55 45.3708C135.233 45.3708 134.982 45.2928 134.811 45.15C134.679 45.0461 134.6 44.8902 134.6 44.6953C134.6 44.6044 134.626 44.3706 134.705 44.0199L135.273 41.461H134.653L134.784 40.8765H135.391L135.629 39.7984L136.526 39.2788L136.183 40.8765H136.935L136.816 41.461H136.038L135.51 43.89C135.431 44.2018 135.405 44.3836 135.405 44.4485C135.405 44.5395 135.431 44.6044 135.484 44.6564C135.55 44.7083 135.629 44.7213 135.748 44.7213C135.945 44.7473 136.091 44.7213 136.223 44.6953Z" fill="white"/>
<path d="M136.843 45.3059L138.163 39.227H138.954L138.453 41.5651C138.73 41.2923 139.007 41.0975 139.258 40.9806C139.508 40.8636 139.759 40.7987 140.036 40.7987C140.419 40.7987 140.709 40.8896 140.933 41.0845C141.144 41.2793 141.25 41.5261 141.25 41.8508C141.25 42.0067 141.21 42.2925 141.105 42.7081L140.538 45.3059H139.759L140.34 42.6302C140.432 42.2405 140.458 42.0067 140.458 41.9028C140.458 41.7599 140.419 41.643 140.313 41.5521C140.208 41.4611 140.063 41.4092 139.865 41.4092C139.588 41.4092 139.311 41.4871 139.06 41.617C138.796 41.7599 138.598 41.9547 138.453 42.2015C138.321 42.4483 138.189 42.851 138.057 43.3965L137.661 45.293H136.843V45.3059Z" fill="white"/>
<path d="M142.859 42.7079H145.431C145.431 42.63 145.445 42.578 145.445 42.5391C145.445 42.1624 145.339 41.8766 145.141 41.6688C144.943 41.474 144.693 41.37 144.376 41.37C144.046 41.37 143.73 41.487 143.466 41.7078C143.202 41.9286 142.991 42.2663 142.859 42.7079ZM145.141 43.799L145.893 43.877C145.774 44.2407 145.537 44.5784 145.141 44.9161C144.759 45.2408 144.284 45.4097 143.743 45.4097C143.4 45.4097 143.083 45.3318 142.806 45.1889C142.529 45.046 142.305 44.8252 142.146 44.5264C142.001 44.2407 141.935 43.9029 141.935 43.5392C141.935 43.0586 142.041 42.591 142.278 42.1364C142.516 41.6818 142.819 41.3441 143.175 41.1233C143.545 40.9024 143.954 40.7985 144.376 40.7985C144.917 40.7985 145.352 40.9674 145.682 41.2921C146.012 41.6168 146.17 42.0585 146.17 42.63C146.17 42.8508 146.144 43.0716 146.117 43.2924H142.74C142.727 43.3834 142.727 43.4613 142.727 43.5263C142.727 43.9419 142.819 44.2536 143.004 44.4745C143.215 44.6953 143.452 44.7992 143.73 44.7992C143.993 44.7992 144.27 44.7083 144.521 44.5394C144.798 44.3706 144.983 44.1238 145.141 43.799Z" fill="white"/>
<path d="M150.087 43.4615C150.087 43.7732 150.113 44.007 150.179 44.1889C150.245 44.3707 150.364 44.5136 150.509 44.6305C150.654 44.7474 150.839 44.8124 151.063 44.8124C151.406 44.8124 151.736 44.6305 152.013 44.2798C152.396 43.8122 152.594 43.2277 152.594 42.5393C152.594 42.1885 152.501 41.9158 152.316 41.7209C152.119 41.5261 151.881 41.4222 151.604 41.4222C151.406 41.4222 151.248 41.4612 151.103 41.5391C150.944 41.617 150.786 41.7599 150.641 41.9418C150.496 42.1366 150.364 42.3834 150.258 42.6691C150.14 42.9679 150.087 43.2277 150.087 43.4615ZM152.237 44.6695C151.789 45.1631 151.314 45.4099 150.839 45.4099C150.403 45.4099 150.034 45.254 149.757 44.9423C149.454 44.6305 149.322 44.1889 149.322 43.6044C149.322 43.0718 149.427 42.5782 149.665 42.1366C149.889 41.695 150.166 41.3572 150.509 41.1364C150.852 40.9156 151.208 40.7987 151.551 40.7987C152.119 40.7987 152.554 41.0585 152.844 41.591L153.346 39.227H154.137L152.818 45.3059H152.092L152.237 44.6695Z" fill="white"/>
<path d="M154.046 45.3058L155.009 40.9024H155.695L155.497 41.7987C155.734 41.461 155.959 41.2012 156.196 41.0453C156.42 40.8765 156.645 40.7985 156.882 40.7985C157.041 40.7985 157.225 40.8505 157.463 40.9544L157.133 41.6558C157.001 41.5649 156.856 41.5129 156.684 41.5129C156.42 41.5129 156.13 41.6558 155.853 41.9546C155.576 42.2533 155.339 42.7729 155.167 43.5392L154.785 45.3058H154.046Z" fill="white"/>
<path d="M158.095 42.7079H160.668V42.5391C160.668 42.1624 160.562 41.8766 160.364 41.6688C160.166 41.474 159.916 41.37 159.599 41.37C159.269 41.37 158.979 41.487 158.689 41.7078C158.438 41.9286 158.227 42.2663 158.095 42.7079ZM160.351 43.799L161.116 43.877C161.011 44.2407 160.76 44.5784 160.378 44.9161C159.982 45.2408 159.52 45.4097 158.966 45.4097C158.623 45.4097 158.306 45.3318 158.029 45.1889C157.752 45.046 157.541 44.8252 157.396 44.5264C157.251 44.2407 157.172 43.9029 157.172 43.5392C157.172 43.0586 157.29 42.591 157.528 42.1364C157.752 41.6818 158.042 41.3441 158.425 41.1233C158.794 40.9024 159.19 40.7985 159.612 40.7985C160.166 40.7985 160.589 40.9674 160.918 41.2921C161.248 41.6168 161.407 42.0585 161.407 42.63C161.407 42.8508 161.393 43.0716 161.354 43.2924H157.976C157.976 43.3834 157.963 43.4613 157.963 43.5263C157.963 43.9419 158.069 44.2536 158.267 44.4745C158.465 44.6953 158.702 44.7992 158.992 44.7992C159.256 44.7992 159.507 44.7083 159.784 44.5394C160.008 44.3706 160.219 44.1238 160.351 43.799Z" fill="white"/>
<path d="M165.286 43.0718C165.181 43.1108 165.062 43.1498 164.943 43.1628C164.811 43.1888 164.6 43.2017 164.323 43.2277C163.862 43.2667 163.532 43.3186 163.36 43.3706C163.162 43.4355 163.03 43.5265 162.925 43.6564C162.832 43.7863 162.793 43.9291 162.793 44.085C162.793 44.2928 162.872 44.4617 163.017 44.6046C163.162 44.7475 163.387 44.8124 163.65 44.8124C163.914 44.8124 164.152 44.7475 164.416 44.6176C164.653 44.4877 164.838 44.3058 164.983 44.072C165.102 43.8382 165.207 43.5005 165.286 43.0718ZM164.996 44.7604C164.732 44.9813 164.455 45.1501 164.218 45.254C163.967 45.3579 163.69 45.4099 163.413 45.4099C162.978 45.4099 162.635 45.293 162.384 45.0462C162.12 44.7994 162.001 44.5007 162.001 44.124C162.001 43.8772 162.067 43.6564 162.16 43.4745C162.278 43.2797 162.437 43.1368 162.635 43.0199C162.832 42.903 163.057 42.8251 163.334 42.7731C163.519 42.7341 163.835 42.7082 164.336 42.6952C164.825 42.6822 165.181 42.6302 165.392 42.5523C165.458 42.3445 165.484 42.1756 165.484 42.0457C165.484 41.8768 165.418 41.734 165.286 41.63C165.102 41.4872 164.838 41.4222 164.495 41.4222C164.165 41.4222 163.901 41.4872 163.69 41.63C163.466 41.7729 163.321 41.9678 163.228 42.2275L162.437 42.1626C162.595 41.721 162.859 41.3833 163.189 41.1624C163.545 40.9286 163.993 40.8117 164.508 40.8117C165.075 40.8117 165.537 40.9416 165.867 41.2014C166.118 41.3962 166.236 41.643 166.236 41.9548C166.236 42.1886 166.21 42.4614 166.131 42.7731L165.88 43.8642C165.801 44.2149 165.761 44.5007 165.761 44.7085C165.761 44.8514 165.788 45.0462 165.854 45.306H165.062C165.049 45.1631 165.009 44.9813 164.996 44.7604Z" fill="white"/>
<path d="M166.815 45.3058L167.778 40.9024H168.557L168.412 41.6298C168.689 41.3181 168.953 41.0973 169.19 40.9804C169.414 40.8635 169.665 40.7985 169.929 40.7985C170.206 40.7985 170.443 40.8765 170.641 41.0193C170.839 41.1622 170.958 41.37 171.011 41.6298C171.248 41.3571 171.486 41.1492 171.75 41.0064C172 40.8765 172.264 40.7985 172.554 40.7985C172.937 40.7985 173.227 40.8894 173.412 41.0583C173.61 41.2272 173.715 41.474 173.715 41.7987C173.715 41.9286 173.676 42.1624 173.61 42.4741L172.99 45.3188H172.211L172.845 42.3962C172.911 42.1624 172.937 41.9935 172.937 41.8896C172.937 41.7467 172.897 41.6298 172.792 41.5519C172.699 41.461 172.568 41.422 172.396 41.422C172.172 41.422 171.934 41.4869 171.684 41.6298C171.446 41.7597 171.248 41.9416 171.129 42.1624C170.998 42.3832 170.879 42.7209 170.773 43.1755L170.312 45.3058H169.52L170.18 42.3312C170.219 42.1234 170.232 41.9805 170.232 41.9026C170.232 41.7597 170.193 41.6428 170.1 41.5519C170.008 41.461 169.876 41.422 169.731 41.422C169.507 41.422 169.282 41.4869 169.045 41.6298C168.794 41.7727 168.596 41.9546 168.451 42.2014C168.306 42.4481 168.174 42.7859 168.082 43.2405L167.62 45.3188L166.815 45.3058Z" fill="white"/>
<path d="M177.794 43.4875V43.6303C177.794 44.007 177.887 44.2928 178.071 44.4876C178.256 44.6825 178.493 44.7864 178.771 44.7864C179.034 44.7864 179.285 44.6955 179.509 44.5136C179.747 44.3318 179.931 44.046 180.077 43.6563C180.222 43.2667 180.301 42.903 180.301 42.5782C180.301 42.2145 180.209 41.9158 180.024 41.7209C179.839 41.5131 179.602 41.4092 179.338 41.4092C179.061 41.4092 178.797 41.5131 178.559 41.7209C178.322 41.9288 178.124 42.2535 177.966 42.6821C177.86 43.0069 177.794 43.2796 177.794 43.4875ZM176.633 45.3059L177.953 39.227H178.744L178.269 41.3962C178.52 41.1754 178.744 41.0195 178.942 40.9286C179.153 40.8377 179.364 40.7987 179.588 40.7987C180.011 40.7987 180.367 40.9546 180.657 41.2663C180.934 41.5781 181.092 42.0197 181.092 42.6042C181.092 42.9939 181.04 43.3576 180.908 43.6693C180.789 43.994 180.657 44.2668 180.472 44.4876C180.314 44.7085 180.129 44.8773 179.958 45.0202C179.773 45.1501 179.588 45.254 179.404 45.3189C179.206 45.3839 179.021 45.4099 178.85 45.4099C178.533 45.4099 178.282 45.3319 178.045 45.1761C177.821 45.0202 177.623 44.7864 177.504 44.4746L177.332 45.3059H176.633Z" fill="white"/>
<path d="M182.649 42.7079H185.221C185.234 42.63 185.234 42.578 185.234 42.5391C185.234 42.1624 185.129 41.8766 184.931 41.6688C184.733 41.474 184.482 41.37 184.179 41.37C183.849 41.37 183.546 41.487 183.269 41.7078C182.992 41.9286 182.781 42.2663 182.649 42.7079ZM184.931 43.799L185.696 43.877C185.591 44.2407 185.34 44.5784 184.931 44.9161C184.548 45.2408 184.087 45.4097 183.532 45.4097C183.189 45.4097 182.873 45.3318 182.596 45.1889C182.319 45.046 182.108 44.8252 181.949 44.5264C181.804 44.2407 181.725 43.9029 181.725 43.5392C181.725 43.0586 181.844 42.591 182.068 42.1364C182.306 41.6818 182.609 41.3441 182.978 41.1233C183.335 40.9024 183.73 40.7985 184.166 40.7985C184.72 40.7985 185.155 40.9674 185.472 41.2921C185.802 41.6168 185.96 42.0585 185.96 42.63C185.96 42.8508 185.934 43.0716 185.907 43.2924H182.53C182.517 43.3834 182.517 43.4613 182.517 43.5263C182.517 43.9419 182.609 44.2536 182.82 44.4745C183.018 44.6953 183.255 44.7992 183.532 44.7992C183.796 44.7992 184.073 44.7083 184.324 44.5394C184.588 44.3706 184.773 44.1238 184.931 43.799Z" fill="white"/>
<path d="M187.41 43.3574C187.41 43.6561 187.436 43.8899 187.502 44.0328C187.595 44.2407 187.713 44.4095 187.872 44.5264C188.017 44.6433 188.202 44.6953 188.399 44.6953C188.663 44.6953 188.914 44.6044 189.178 44.4355C189.429 44.2666 189.64 43.9939 189.785 43.6302C189.943 43.2665 190.022 42.9158 190.022 42.591C190.022 42.2273 189.917 41.9416 189.706 41.7208C189.494 41.5129 189.231 41.396 188.927 41.396C188.729 41.396 188.558 41.448 188.373 41.5389C188.188 41.6428 188.03 41.7857 187.872 41.9935C187.727 42.1884 187.608 42.4352 187.529 42.7079C187.436 42.9937 187.41 43.2145 187.41 43.3574ZM186.434 45.7084L187.225 45.7734C187.225 45.9422 187.238 46.0721 187.291 46.1631C187.357 46.254 187.423 46.3189 187.529 46.3579C187.674 46.4228 187.859 46.4488 188.083 46.4488C188.558 46.4488 188.901 46.3319 189.099 46.0981C189.244 45.9422 189.363 45.5915 189.481 45.072L189.56 44.7083C189.165 45.1109 188.729 45.3058 188.268 45.3058C187.806 45.3058 187.423 45.1369 187.107 44.8122C186.79 44.4875 186.632 44.0198 186.632 43.4223C186.632 42.9288 186.764 42.4741 187.001 42.0585C187.252 41.6428 187.542 41.3311 187.885 41.1233C188.228 40.9154 188.571 40.7985 188.94 40.7985C189.534 40.7985 189.996 41.0713 190.326 41.6168L190.471 40.8894H191.183L190.26 45.1499C190.167 45.6175 190.035 45.9812 189.877 46.241C189.719 46.5008 189.481 46.7086 189.191 46.8515C188.888 46.9944 188.571 47.0723 188.175 47.0723C187.806 47.0723 187.489 47.0333 187.225 46.9294C186.961 46.8385 186.764 46.7086 186.632 46.5268C186.5 46.3449 186.434 46.1501 186.434 45.9163C186.407 45.8513 186.407 45.7864 186.434 45.7084Z" fill="white"/>
<path d="M192.503 40.0713L192.688 39.227H193.479L193.281 40.0713H192.503ZM191.355 45.3059L192.318 40.9026H193.097L192.147 45.3059H191.355Z" fill="white"/>
<path d="M193.348 45.3058L194.312 40.9024H195.011L194.852 41.6688C195.169 41.37 195.446 41.1492 195.71 41.0064C195.974 40.8635 196.251 40.7985 196.528 40.7985C196.897 40.7985 197.201 40.9024 197.412 41.0843C197.623 41.2791 197.728 41.5389 197.728 41.8636C197.728 42.0195 197.702 42.2793 197.623 42.63L197.042 45.3058H196.251L196.858 42.5131C196.924 42.2403 196.95 42.0455 196.95 41.9156C196.95 41.7727 196.911 41.6558 196.805 41.5519C196.699 41.461 196.541 41.409 196.343 41.409C195.947 41.409 195.578 41.5519 195.275 41.8247C194.958 42.0974 194.734 42.578 194.589 43.2535L194.14 45.3058H193.348Z" fill="white"/>
<path d="M198.347 43.7993L199.125 43.7603C199.125 43.9812 199.152 44.163 199.231 44.3059C199.31 44.4618 199.429 44.5787 199.614 44.6826C199.798 44.7865 200.009 44.8254 200.26 44.8254C200.603 44.8254 200.867 44.7605 201.038 44.6306C201.223 44.5007 201.302 44.3449 201.302 44.163C201.302 44.0331 201.249 43.9032 201.144 43.7863C201.038 43.6694 200.788 43.5265 200.366 43.3577C199.943 43.1888 199.693 43.0719 199.574 42.994C199.376 42.8771 199.231 42.7472 199.139 42.5913C199.033 42.4354 198.993 42.2666 198.993 42.0587C198.993 41.708 199.125 41.4093 199.429 41.1625C199.706 40.9157 200.115 40.7858 200.629 40.7858C201.21 40.7858 201.645 40.9157 201.936 41.1755C202.239 41.4353 202.397 41.773 202.41 42.1886L201.632 42.2406C201.632 41.9678 201.527 41.76 201.355 41.6171C201.157 41.4613 200.906 41.3833 200.563 41.3833C200.3 41.3833 200.089 41.4483 199.943 41.5652C199.798 41.6821 199.719 41.812 199.719 41.9548C199.719 42.0977 199.772 42.2146 199.917 42.3185C200.009 42.3965 200.234 42.5004 200.59 42.6563C201.184 42.903 201.553 43.0979 201.724 43.2408C201.962 43.4746 202.094 43.7473 202.094 44.0721C202.094 44.2929 202.015 44.5007 201.883 44.7085C201.738 44.9164 201.527 45.0852 201.249 45.2151C200.946 45.345 200.629 45.41 200.234 45.41C199.693 45.41 199.257 45.2801 198.875 45.0333C198.492 44.7735 198.321 44.3708 198.347 43.7993Z" fill="white"/>
<path d="M117.797 37.6579C111.961 37.6579 108.55 34.1711 108.288 29.251L108.266 28.9943H113.097L113.119 29.1868C113.316 31.5399 114.824 33.3796 117.753 33.3796C120.989 33.3796 122.737 31.4971 122.737 27.9675V6.27626H127.634V28.0102C127.634 34.0855 123.983 37.6579 117.797 37.6579Z" fill="white"/>
<path d="M142.826 37.5937C136.225 37.5937 131.918 33.1229 131.918 25.8925V25.8497C131.918 18.6621 136.269 14.2126 142.805 14.2126C149.363 14.2126 153.734 18.6407 153.734 25.8497V25.8925C153.734 33.1443 149.406 37.5937 142.826 37.5937ZM142.848 33.7218C146.543 33.7218 148.903 30.8553 148.903 25.8925V25.8497C148.903 20.9296 146.499 18.0845 142.805 18.0845C139.176 18.0845 136.749 20.9296 136.749 25.8497V25.8925C136.749 30.8767 139.154 33.7218 142.848 33.7218Z" fill="white"/>
<path d="M169.605 37.5937C166.304 37.5937 163.746 35.968 162.391 33.3368H162.282V37.1445H157.56V6.27626H162.282V18.4695H162.391C163.768 15.817 166.391 14.2126 169.648 14.2126C175.419 14.2126 179.223 18.7048 179.223 25.8711V25.8925C179.223 33.0587 175.441 37.5937 169.605 37.5937ZM168.359 33.6149C172.075 33.6149 174.392 30.6842 174.392 25.8925V25.8711C174.392 21.1221 172.075 18.1701 168.359 18.1701C164.795 18.1701 162.26 21.2077 162.26 25.8711V25.8925C162.26 30.5772 164.774 33.6149 168.359 33.6149Z" fill="white"/>
<path d="M191.486 37.5937C185.737 37.5937 182.371 34.8128 181.89 30.7056L181.868 30.5131H186.546L186.59 30.727C187.027 32.802 188.601 34.0213 191.508 34.0213C194.35 34.0213 196.055 32.8662 196.055 31.0479V31.0265C196.055 29.5718 195.224 28.7376 192.754 28.16L188.994 27.3257C184.622 26.3417 182.458 24.2881 182.458 21.0152V20.9938C182.458 16.9721 186.043 14.2126 191.333 14.2126C196.776 14.2126 200.055 17.186 200.296 21.0152L200.317 21.2719H195.88L195.858 21.1221C195.574 19.1541 194 17.785 191.333 17.785C188.797 17.785 187.202 18.9615 187.202 20.7585V20.7798C187.202 22.1703 188.142 23.1115 190.612 23.6891L194.35 24.5234C199.05 25.593 200.842 27.4113 200.842 30.6414V30.6628C200.842 34.77 196.907 37.5937 191.486 37.5937Z" fill="white"/>
</svg>
