<svg width="20" height="20" viewBox="0 0 20 20" fill="none" xmlns="http://www.w3.org/2000/svg">
<path d="M3.55078 9.18333V13.325C3.55078 14.8417 3.55078 14.8417 4.98411 15.8083L8.92578 18.0833C9.51745 18.425 10.4841 18.425 11.0758 18.0833L15.0174 15.8083C16.4508 14.8417 16.4508 14.8417 16.4508 13.325V9.18333C16.4508 7.66666 16.4508 7.66666 15.0174 6.7L11.0758 4.425C10.4841 4.08333 9.51745 4.08333 8.92578 4.425L4.98411 6.7C3.55078 7.66666 3.55078 7.66666 3.55078 9.18333Z" stroke="#BC2228" stroke-width="1.5" stroke-linecap="round" stroke-linejoin="round"/>
<path d="M14.5827 6.35834V4.16667C14.5827 2.50001 13.7493 1.66667 12.0827 1.66667H7.91602C6.24935 1.66667 5.41602 2.50001 5.41602 4.16667V6.30001" stroke="#BC2228" stroke-width="1.5" stroke-linecap="round" stroke-linejoin="round"/>
<path d="M10.5245 9.15833L10.9995 9.9C11.0745 10.0167 11.2412 10.1333 11.3662 10.1667L12.2162 10.3833C12.7412 10.5167 12.8828 10.9667 12.5412 11.3833L11.9828 12.0583C11.8995 12.1667 11.8328 12.3583 11.8412 12.4917L11.8912 13.3667C11.9245 13.9083 11.5412 14.1833 11.0412 13.9833L10.2245 13.6583C10.0995 13.6083 9.89116 13.6083 9.76616 13.6583L8.94949 13.9833C8.44949 14.1833 8.06616 13.9 8.09949 13.3667L8.14949 12.4917C8.15782 12.3583 8.09116 12.1583 8.00782 12.0583L7.44949 11.3833C7.10782 10.9667 7.24949 10.5167 7.77449 10.3833L8.62449 10.1667C8.75783 10.1333 8.92449 10.0083 8.99116 9.9L9.46616 9.15833C9.76616 8.70833 10.2328 8.70833 10.5245 9.15833Z" stroke="#BC2228" stroke-width="1.5" stroke-linecap="round" stroke-linejoin="round"/>
</svg>
