<svg width="16" height="16" viewBox="0 0 16 16" fill="none" xmlns="http://www.w3.org/2000/svg">
<g clip-path="url(#clip0_0_481)">
<path d="M13.7448 5.63335C13.0448 2.55335 10.3581 1.16669 7.99811 1.16669C7.99811 1.16669 7.99811 1.16669 7.99144 1.16669C5.63811 1.16669 2.94478 2.54669 2.24478 5.62669C1.46478 9.06669 3.57144 11.98 5.47811 13.8134C6.18478 14.4934 7.09144 14.8334 7.99811 14.8334C8.90478 14.8334 9.81144 14.4934 10.5114 13.8134C12.4181 11.98 14.5248 9.07335 13.7448 5.63335ZM7.99811 8.97335C6.83811 8.97335 5.89811 8.03335 5.89811 6.87335C5.89811 5.71335 6.83811 4.77335 7.99811 4.77335C9.15811 4.77335 10.0981 5.71335 10.0981 6.87335C10.0981 8.03335 9.15811 8.97335 7.99811 8.97335Z" fill="#BC2228"/>
</g>
<defs>
<clipPath id="clip0_0_481">
<rect width="16" height="16" fill="white"/>
</clipPath>
</defs>
</svg>
