<svg width="203" height="48" viewBox="0 0 203 48" fill="none" xmlns="http://www.w3.org/2000/svg">
<path d="M13.0516 21.7719H5.20239V5.28413H13.0229C13.0229 5.28413 21.2883 4.91104 21.2883 13.076C21.2883 21.0544 13.6974 21.7719 13.0516 21.7719ZM16.7251 24.8714C16.7251 24.8714 26.7986 22.8911 26.7986 12.4446C26.7986 1.98372 17.0839 0.462657 14.0848 0.462657H0.00782455V45.9223H5.20239V26.3637H9.47858C11.8893 26.3637 14.2857 26.7512 17.6148 32.161L25.6219 45.9079H31.821L22.0489 29.8937C22.0489 29.8937 19.6955 25.8041 16.7251 24.8714Z" fill="white"/>
<path d="M40.3163 5.28413V0.462657H35.0931V5.22673" fill="white"/>
<path d="M35.0931 6.9919V46.109H40.3163V7.03495" fill="white"/>
<path d="M102.664 6.9919H97.4547V46.0516H102.664V6.9919Z" fill="white"/>
<path d="M94.2576 6.91998H72.5609V12.215H94.2576V6.91998Z" fill="white"/>
<path d="M94.2576 40.7994H72.5609V46.0945H94.2576V40.7994Z" fill="white"/>
<path d="M87.1975 24.1682H72.5609V29.4775H87.1975V24.1682Z" fill="white"/>
<path d="M59.8746 6.9919H54.6226L40.1438 26.5217L54.6226 46.0516H59.8746L45.4245 26.5217L59.8746 6.9919Z" fill="white"/>
<path d="M64.2376 6.9919L49.9597 26.5217L64.2376 46.0516H69.4465L55.1543 26.5217L69.4465 6.9919H64.2376Z" fill="white"/>
<path d="M108.743 45.306L108.268 40.9026H109.033L109.231 42.877L109.324 43.9941C109.324 44.072 109.337 44.2409 109.35 44.5006C109.442 44.2149 109.495 44.007 109.574 43.8512C109.627 43.6953 109.719 43.4875 109.851 43.2017L110.933 40.9026H111.778L111.923 43.1108C111.949 43.4485 111.962 43.8901 111.962 44.4487C112.107 44.072 112.345 43.5654 112.675 42.903L113.651 40.9026H114.429L112.2 45.306H111.382L111.223 42.7211C111.21 42.5652 111.197 42.2535 111.197 41.7859C111.078 42.0846 110.946 42.3964 110.775 42.7471L109.561 45.319H108.743V45.306Z" fill="white"/>
<path d="M114.258 45.3059L115.564 39.227H116.356L115.854 41.5651C116.158 41.2923 116.422 41.0975 116.659 40.9806C116.91 40.8507 117.174 40.7987 117.424 40.7987C117.807 40.7987 118.11 40.8896 118.321 41.0845C118.532 41.2793 118.638 41.5261 118.638 41.8508C118.638 42.0067 118.598 42.2925 118.506 42.7081L117.939 45.3059H117.147L117.728 42.6302C117.82 42.2405 117.86 42.0067 117.86 41.9028C117.86 41.7599 117.794 41.643 117.701 41.5521C117.596 41.4611 117.437 41.4222 117.253 41.4222C116.976 41.4222 116.699 41.5001 116.448 41.63C116.197 41.7729 115.986 41.9677 115.854 42.2145C115.709 42.4613 115.577 42.864 115.458 43.4095L115.036 45.3059H114.258Z" fill="white"/>
<path d="M120.274 42.708H122.834C122.847 42.6301 122.847 42.5781 122.847 42.5391C122.847 42.1625 122.741 41.8767 122.543 41.6689C122.346 41.474 122.095 41.3701 121.791 41.3701C121.462 41.3701 121.171 41.487 120.881 41.7078C120.604 41.9286 120.406 42.2664 120.274 42.708ZM122.53 43.7991L123.295 43.877C123.19 44.2407 122.939 44.5784 122.53 44.9162C122.148 45.2409 121.686 45.4097 121.132 45.4097C120.789 45.4097 120.472 45.3318 120.195 45.1889C119.918 45.0461 119.707 44.8252 119.549 44.5265C119.403 44.2407 119.324 43.903 119.324 43.5393C119.324 43.0587 119.443 42.5911 119.667 42.1365C119.905 41.6818 120.208 41.3441 120.578 41.1233C120.934 40.9025 121.33 40.7986 121.765 40.7986C122.319 40.7986 122.741 40.9674 123.071 41.2922C123.401 41.6169 123.559 42.0585 123.559 42.6301C123.559 42.8509 123.546 43.0717 123.506 43.2925H120.142C120.129 43.3834 120.129 43.4614 120.129 43.5263C120.129 43.942 120.221 44.2537 120.433 44.4745C120.63 44.6953 120.868 44.7993 121.145 44.7993C121.409 44.7993 121.686 44.7083 121.937 44.5395C122.187 44.3706 122.385 44.1238 122.53 43.7991Z" fill="white"/>
<path d="M124.086 45.3058L125.049 40.9025H125.735L125.537 41.7988C125.774 41.461 125.999 41.2012 126.236 41.0454C126.46 40.8765 126.685 40.7986 126.922 40.7986C127.08 40.7986 127.265 40.8505 127.503 40.9545L127.173 41.6559C127.041 41.5649 126.896 41.513 126.724 41.513C126.46 41.513 126.17 41.6559 125.893 41.9546C125.616 42.2534 125.365 42.7729 125.207 43.5393L124.824 45.3058H124.086Z" fill="white"/>
<path d="M128.123 42.708H130.683C130.696 42.6301 130.696 42.5781 130.696 42.5391C130.696 42.1625 130.59 41.8767 130.392 41.6689C130.195 41.474 129.944 41.3701 129.627 41.3701C129.297 41.3701 129.007 41.487 128.717 41.7078C128.466 41.9286 128.255 42.2664 128.123 42.708ZM130.392 43.7991L131.158 43.877C131.052 44.2407 130.801 44.5784 130.392 44.9162C130.01 45.2409 129.548 45.4097 128.994 45.4097C128.651 45.4097 128.334 45.3318 128.057 45.1889C127.78 45.0461 127.569 44.8252 127.424 44.5265C127.279 44.2407 127.2 43.903 127.2 43.5393C127.2 43.0587 127.318 42.5911 127.543 42.1365C127.78 41.6818 128.084 41.3441 128.453 41.1233C128.809 40.9025 129.205 40.7986 129.64 40.7986C130.195 40.7986 130.617 40.9674 130.947 41.2922C131.276 41.6169 131.435 42.0585 131.435 42.6301C131.435 42.8509 131.421 43.0717 131.382 43.2925H127.991C127.978 43.3834 127.978 43.4614 127.978 43.5263C127.978 43.942 128.07 44.2537 128.282 44.4745C128.479 44.6953 128.717 44.7993 128.994 44.7993C129.258 44.7993 129.535 44.7083 129.786 44.5395C130.049 44.3706 130.234 44.1238 130.392 43.7991Z" fill="white"/>
<path d="M136.224 44.6954L136.093 45.3059C135.908 45.3579 135.723 45.3708 135.552 45.3708C135.235 45.3708 134.984 45.2929 134.813 45.15C134.681 45.0461 134.602 44.8902 134.602 44.6954C134.602 44.6045 134.628 44.3707 134.707 44.02L135.275 41.4611H134.655L134.786 40.8766H135.393L135.631 39.7985L136.528 39.2789L136.185 40.8766H136.937L136.818 41.4611H136.04L135.512 43.8901C135.433 44.2018 135.407 44.3837 135.407 44.4486C135.407 44.5395 135.433 44.6045 135.486 44.6564C135.552 44.7084 135.631 44.7214 135.75 44.7214C135.947 44.7474 136.093 44.7214 136.224 44.6954Z" fill="white"/>
<path d="M136.843 45.3059L138.163 39.227H138.954L138.453 41.5651C138.73 41.2923 139.007 41.0975 139.258 40.9806C139.508 40.8636 139.759 40.7987 140.036 40.7987C140.419 40.7987 140.709 40.8896 140.933 41.0845C141.144 41.2793 141.25 41.5261 141.25 41.8508C141.25 42.0067 141.21 42.2925 141.105 42.7081L140.538 45.3059H139.759L140.34 42.6302C140.432 42.2405 140.458 42.0067 140.458 41.9028C140.458 41.7599 140.419 41.643 140.313 41.5521C140.208 41.4611 140.063 41.4092 139.865 41.4092C139.588 41.4092 139.311 41.4871 139.06 41.617C138.796 41.7599 138.598 41.9547 138.453 42.2015C138.321 42.4483 138.189 42.851 138.057 43.3965L137.661 45.293H136.843V45.3059Z" fill="white"/>
<path d="M142.861 42.708H145.433C145.433 42.6301 145.447 42.5781 145.447 42.5391C145.447 42.1625 145.341 41.8767 145.143 41.6689C144.945 41.474 144.695 41.3701 144.378 41.3701C144.048 41.3701 143.731 41.487 143.468 41.7078C143.204 41.9286 142.993 42.2664 142.861 42.708ZM145.143 43.7991L145.895 43.877C145.776 44.2407 145.539 44.5784 145.143 44.9162C144.761 45.2409 144.286 45.4097 143.745 45.4097C143.402 45.4097 143.085 45.3318 142.808 45.1889C142.531 45.0461 142.307 44.8252 142.148 44.5265C142.003 44.2407 141.937 43.903 141.937 43.5393C141.937 43.0587 142.043 42.5911 142.28 42.1365C142.518 41.6818 142.821 41.3441 143.177 41.1233C143.547 40.9025 143.956 40.7986 144.378 40.7986C144.919 40.7986 145.354 40.9674 145.684 41.2922C146.014 41.6169 146.172 42.0585 146.172 42.6301C146.172 42.8509 146.146 43.0717 146.119 43.2925H142.742C142.729 43.3834 142.729 43.4614 142.729 43.5263C142.729 43.942 142.821 44.2537 143.006 44.4745C143.217 44.6953 143.454 44.7993 143.731 44.7993C143.995 44.7993 144.272 44.7083 144.523 44.5395C144.8 44.3706 144.985 44.1238 145.143 43.7991Z" fill="white"/>
<path d="M150.089 43.4615C150.089 43.7732 150.115 44.007 150.181 44.1889C150.247 44.3707 150.366 44.5136 150.511 44.6305C150.656 44.7474 150.841 44.8124 151.065 44.8124C151.408 44.8124 151.738 44.6305 152.015 44.2798C152.398 43.8122 152.595 43.2277 152.595 42.5393C152.595 42.1885 152.503 41.9158 152.318 41.7209C152.121 41.5261 151.883 41.4222 151.606 41.4222C151.408 41.4222 151.25 41.4612 151.105 41.5391C150.946 41.617 150.788 41.7599 150.643 41.9418C150.498 42.1366 150.366 42.3834 150.26 42.6691C150.142 42.9679 150.089 43.2277 150.089 43.4615ZM152.239 44.6695C151.791 45.1631 151.316 45.4099 150.841 45.4099C150.405 45.4099 150.036 45.254 149.759 44.9423C149.456 44.6305 149.324 44.1889 149.324 43.6044C149.324 43.0718 149.429 42.5782 149.667 42.1366C149.891 41.695 150.168 41.3572 150.511 41.1364C150.854 40.9156 151.21 40.7987 151.553 40.7987C152.121 40.7987 152.556 41.0585 152.846 41.591L153.347 39.227H154.139L152.82 45.3059H152.094L152.239 44.6695Z" fill="white"/>
<path d="M154.046 45.3058L155.009 40.9025H155.695L155.497 41.7988C155.734 41.461 155.959 41.2012 156.196 41.0454C156.42 40.8765 156.645 40.7986 156.882 40.7986C157.041 40.7986 157.225 40.8505 157.463 40.9545L157.133 41.6559C157.001 41.5649 156.856 41.513 156.684 41.513C156.42 41.513 156.13 41.6559 155.853 41.9546C155.576 42.2534 155.339 42.7729 155.167 43.5393L154.785 45.3058H154.046Z" fill="white"/>
<path d="M158.099 42.708H160.672V42.5391C160.672 42.1625 160.566 41.8767 160.368 41.6689C160.17 41.474 159.92 41.3701 159.603 41.3701C159.273 41.3701 158.983 41.487 158.693 41.7078C158.442 41.9286 158.231 42.2664 158.099 42.708ZM160.355 43.7991L161.12 43.877C161.015 44.2407 160.764 44.5784 160.381 44.9162C159.986 45.2409 159.524 45.4097 158.97 45.4097C158.627 45.4097 158.31 45.3318 158.033 45.1889C157.756 45.0461 157.545 44.8252 157.4 44.5265C157.255 44.2407 157.176 43.903 157.176 43.5393C157.176 43.0587 157.294 42.5911 157.532 42.1365C157.756 41.6818 158.046 41.3441 158.429 41.1233C158.798 40.9025 159.194 40.7986 159.616 40.7986C160.17 40.7986 160.593 40.9674 160.922 41.2922C161.252 41.6169 161.411 42.0585 161.411 42.6301C161.411 42.8509 161.397 43.0717 161.358 43.2925H157.98C157.98 43.3834 157.967 43.4614 157.967 43.5263C157.967 43.942 158.073 44.2537 158.271 44.4745C158.468 44.6953 158.706 44.7993 158.996 44.7993C159.26 44.7993 159.511 44.7083 159.788 44.5395C160.012 44.3706 160.223 44.1238 160.355 43.7991Z" fill="white"/>
<path d="M165.288 43.0719C165.183 43.1109 165.064 43.1498 164.945 43.1628C164.813 43.1888 164.602 43.2018 164.325 43.2278C163.864 43.2667 163.534 43.3187 163.362 43.3707C163.164 43.4356 163.032 43.5265 162.927 43.6564C162.834 43.7863 162.795 43.9292 162.795 44.0851C162.795 44.2929 162.874 44.4618 163.019 44.6046C163.164 44.7475 163.389 44.8125 163.652 44.8125C163.916 44.8125 164.154 44.7475 164.418 44.6176C164.655 44.4877 164.84 44.3059 164.985 44.0721C165.104 43.8383 165.209 43.5006 165.288 43.0719ZM164.998 44.7605C164.734 44.9813 164.457 45.1502 164.22 45.2541C163.969 45.358 163.692 45.41 163.415 45.41C162.98 45.41 162.637 45.2931 162.386 45.0463C162.122 44.7995 162.003 44.5007 162.003 44.124C162.003 43.8772 162.069 43.6564 162.162 43.4746C162.28 43.2797 162.439 43.1369 162.637 43.02C162.834 42.903 163.059 42.8251 163.336 42.7732C163.52 42.7342 163.837 42.7082 164.338 42.6952C164.827 42.6822 165.183 42.6303 165.394 42.5523C165.46 42.3445 165.486 42.1757 165.486 42.0458C165.486 41.8769 165.42 41.734 165.288 41.6301C165.104 41.4872 164.84 41.4223 164.497 41.4223C164.167 41.4223 163.903 41.4872 163.692 41.6301C163.468 41.773 163.323 41.9678 163.23 42.2276L162.439 42.1627C162.597 41.721 162.861 41.3833 163.191 41.1625C163.547 40.9287 163.995 40.8118 164.51 40.8118C165.077 40.8118 165.539 40.9417 165.869 41.2015C166.12 41.3963 166.238 41.6431 166.238 41.9548C166.238 42.1886 166.212 42.4614 166.133 42.7732L165.882 43.8643C165.803 44.215 165.763 44.5007 165.763 44.7085C165.763 44.8514 165.79 45.0463 165.856 45.306H165.064C165.051 45.1632 165.011 44.9813 164.998 44.7605Z" fill="white"/>
<path d="M166.819 45.3058L167.782 40.9025H168.561L168.416 41.6299C168.693 41.3182 168.957 41.0973 169.194 40.9804C169.418 40.8635 169.669 40.7986 169.933 40.7986C170.21 40.7986 170.447 40.8765 170.645 41.0194C170.843 41.1623 170.962 41.3701 171.015 41.6299C171.252 41.3571 171.49 41.1493 171.753 41.0064C172.004 40.8765 172.268 40.7986 172.558 40.7986C172.941 40.7986 173.231 40.8895 173.416 41.0584C173.614 41.2272 173.719 41.474 173.719 41.7988C173.719 41.9286 173.68 42.1625 173.614 42.4742L172.994 45.3188H172.215L172.848 42.3963C172.914 42.1624 172.941 41.9936 172.941 41.8897C172.941 41.7468 172.901 41.6299 172.796 41.552C172.703 41.461 172.571 41.4221 172.4 41.4221C172.176 41.4221 171.938 41.487 171.688 41.6299C171.45 41.7598 171.252 41.9416 171.133 42.1624C171.001 42.3833 170.883 42.721 170.777 43.1756L170.315 45.3058H169.524L170.184 42.3313C170.223 42.1235 170.236 41.9806 170.236 41.9027C170.236 41.7598 170.197 41.6429 170.104 41.552C170.012 41.461 169.88 41.4221 169.735 41.4221C169.511 41.4221 169.286 41.487 169.049 41.6299C168.798 41.7728 168.6 41.9546 168.455 42.2014C168.31 42.4482 168.178 42.7859 168.086 43.2406L167.624 45.3188L166.819 45.3058Z" fill="white"/>
<path d="M177.796 43.4875V43.6303C177.796 44.007 177.889 44.2928 178.073 44.4876C178.258 44.6825 178.495 44.7864 178.772 44.7864C179.036 44.7864 179.287 44.6955 179.511 44.5136C179.749 44.3318 179.933 44.046 180.079 43.6563C180.224 43.2667 180.303 42.903 180.303 42.5782C180.303 42.2145 180.21 41.9158 180.026 41.7209C179.841 41.5131 179.604 41.4092 179.34 41.4092C179.063 41.4092 178.799 41.5131 178.561 41.7209C178.324 41.9288 178.126 42.2535 177.968 42.6821C177.862 43.0069 177.796 43.2796 177.796 43.4875ZM176.635 45.3059L177.954 39.227H178.746L178.271 41.3962C178.522 41.1754 178.746 41.0195 178.944 40.9286C179.155 40.8377 179.366 40.7987 179.59 40.7987C180.013 40.7987 180.369 40.9546 180.659 41.2663C180.936 41.5781 181.094 42.0197 181.094 42.6042C181.094 42.9939 181.042 43.3576 180.91 43.6693C180.791 43.994 180.659 44.2668 180.474 44.4876C180.316 44.7085 180.131 44.8773 179.96 45.0202C179.775 45.1501 179.59 45.254 179.406 45.3189C179.208 45.3839 179.023 45.4099 178.852 45.4099C178.535 45.4099 178.284 45.3319 178.047 45.1761C177.823 45.0202 177.625 44.7864 177.506 44.4746L177.334 45.3059H176.635Z" fill="white"/>
<path d="M182.652 42.708H185.225C185.238 42.6301 185.238 42.5781 185.238 42.5391C185.238 42.1625 185.133 41.8767 184.935 41.6689C184.737 41.474 184.486 41.3701 184.183 41.3701C183.853 41.3701 183.55 41.487 183.273 41.7078C182.996 41.9286 182.784 42.2664 182.652 42.708ZM184.935 43.7991L185.7 43.877C185.595 44.2407 185.344 44.5784 184.935 44.9162C184.552 45.2409 184.091 45.4097 183.536 45.4097C183.193 45.4097 182.877 45.3318 182.6 45.1889C182.323 45.0461 182.112 44.8252 181.953 44.5265C181.808 44.2407 181.729 43.903 181.729 43.5393C181.729 43.0587 181.848 42.5911 182.072 42.1365C182.309 41.6818 182.613 41.3441 182.982 41.1233C183.339 40.9025 183.734 40.7986 184.17 40.7986C184.724 40.7986 185.159 40.9674 185.476 41.2922C185.806 41.6169 185.964 42.0585 185.964 42.6301C185.964 42.8509 185.938 43.0717 185.911 43.2925H182.534C182.521 43.3834 182.521 43.4614 182.521 43.5263C182.521 43.942 182.613 44.2537 182.824 44.4745C183.022 44.6953 183.259 44.7993 183.536 44.7993C183.8 44.7993 184.077 44.7083 184.328 44.5395C184.592 44.3706 184.777 44.1238 184.935 43.7991Z" fill="white"/>
<path d="M187.412 43.3575C187.412 43.6562 187.438 43.89 187.504 44.0329C187.597 44.2407 187.715 44.4096 187.874 44.5265C188.019 44.6434 188.204 44.6953 188.401 44.6953C188.665 44.6953 188.916 44.6044 189.18 44.4356C189.43 44.2667 189.642 43.9939 189.787 43.6302C189.945 43.2665 190.024 42.9158 190.024 42.5911C190.024 42.2274 189.919 41.9416 189.708 41.7208C189.496 41.513 189.233 41.3961 188.929 41.3961C188.731 41.3961 188.56 41.448 188.375 41.539C188.19 41.6429 188.032 41.7858 187.874 41.9936C187.729 42.1884 187.61 42.4352 187.531 42.708C187.438 42.9938 187.412 43.2146 187.412 43.3575ZM186.436 45.7085L187.227 45.7734C187.227 45.9423 187.24 46.0722 187.293 46.1631C187.359 46.254 187.425 46.319 187.531 46.358C187.676 46.4229 187.861 46.4489 188.085 46.4489C188.56 46.4489 188.903 46.332 189.101 46.0982C189.246 45.9423 189.365 45.5916 189.483 45.072L189.562 44.7083C189.167 45.111 188.731 45.3058 188.269 45.3058C187.808 45.3058 187.425 45.137 187.109 44.8122C186.792 44.4875 186.634 44.0199 186.634 43.4224C186.634 42.9288 186.765 42.4742 187.003 42.0585C187.254 41.6429 187.544 41.3311 187.887 41.1233C188.23 40.9155 188.573 40.7986 188.942 40.7986C189.536 40.7986 189.998 41.0714 190.328 41.6169L190.473 40.8895H191.185L190.262 45.15C190.169 45.6176 190.037 45.9813 189.879 46.2411C189.721 46.5008 189.483 46.7087 189.193 46.8515C188.89 46.9944 188.573 47.0724 188.177 47.0724C187.808 47.0724 187.491 47.0334 187.227 46.9295C186.963 46.8386 186.765 46.7087 186.634 46.5268C186.502 46.345 186.436 46.1501 186.436 45.9163C186.409 45.8514 186.409 45.7864 186.436 45.7085Z" fill="white"/>
<path d="M192.505 40.0713L192.69 39.227H193.481L193.283 40.0713H192.505ZM191.357 45.3059L192.32 40.9026H193.099L192.149 45.3059H191.357Z" fill="white"/>
<path d="M193.348 45.3058L194.312 40.9025H195.011L194.852 41.6689C195.169 41.3701 195.446 41.1493 195.71 41.0064C195.974 40.8635 196.251 40.7986 196.528 40.7986C196.897 40.7986 197.201 40.9025 197.412 41.0843C197.623 41.2792 197.728 41.539 197.728 41.8637C197.728 42.0196 197.702 42.2794 197.623 42.6301L197.042 45.3058H196.251L196.858 42.5132C196.924 42.2404 196.95 42.0455 196.95 41.9157C196.95 41.7728 196.911 41.6559 196.805 41.552C196.699 41.461 196.541 41.4091 196.343 41.4091C195.947 41.4091 195.578 41.552 195.275 41.8247C194.958 42.0975 194.734 42.5781 194.589 43.2535L194.14 45.3058H193.348Z" fill="white"/>
<path d="M198.351 43.7993L199.129 43.7603C199.129 43.9812 199.156 44.163 199.235 44.3059C199.314 44.4618 199.433 44.5787 199.617 44.6826C199.802 44.7865 200.013 44.8254 200.264 44.8254C200.607 44.8254 200.871 44.7605 201.042 44.6306C201.227 44.5007 201.306 44.3449 201.306 44.163C201.306 44.0331 201.253 43.9032 201.148 43.7863C201.042 43.6694 200.792 43.5265 200.369 43.3577C199.947 43.1888 199.697 43.0719 199.578 42.994C199.38 42.8771 199.235 42.7472 199.143 42.5913C199.037 42.4354 198.997 42.2666 198.997 42.0587C198.997 41.708 199.129 41.4093 199.433 41.1625C199.71 40.9157 200.119 40.7858 200.633 40.7858C201.214 40.7858 201.649 40.9157 201.939 41.1755C202.243 41.4353 202.401 41.773 202.414 42.1886L201.636 42.2406C201.636 41.9678 201.53 41.76 201.359 41.6171C201.161 41.4613 200.91 41.3833 200.567 41.3833C200.304 41.3833 200.092 41.4483 199.947 41.5652C199.802 41.6821 199.723 41.812 199.723 41.9548C199.723 42.0977 199.776 42.2146 199.921 42.3185C200.013 42.3965 200.238 42.5004 200.594 42.6563C201.187 42.903 201.557 43.0979 201.728 43.2408C201.966 43.4746 202.098 43.7473 202.098 44.0721C202.098 44.2929 202.019 44.5007 201.887 44.7085C201.742 44.9164 201.53 45.0852 201.253 45.2151C200.95 45.345 200.633 45.41 200.238 45.41C199.697 45.41 199.261 45.2801 198.879 45.0333C198.496 44.7735 198.325 44.3708 198.351 43.7993Z" fill="white"/>
<path d="M117.799 37.6579C111.963 37.6579 108.552 34.171 108.29 29.2509L108.268 28.9942H113.099L113.121 29.1868C113.318 31.5398 114.826 33.3795 117.755 33.3795C120.991 33.3795 122.739 31.4971 122.739 27.9674V6.27623H127.636V28.0102C127.636 34.0855 123.985 37.6579 117.799 37.6579Z" fill="white"/>
<path d="M142.828 37.5937C136.227 37.5937 131.92 33.1228 131.92 25.8924V25.8496C131.92 18.662 136.271 14.2126 142.807 14.2126C149.364 14.2126 153.736 18.6406 153.736 25.8496V25.8924C153.736 33.1442 149.408 37.5937 142.828 37.5937ZM142.85 33.7218C146.545 33.7218 148.905 30.8553 148.905 25.8924V25.8496C148.905 20.9296 146.501 18.0845 142.807 18.0845C139.178 18.0845 136.751 20.9296 136.751 25.8496V25.8924C136.751 30.8767 139.156 33.7218 142.85 33.7218Z" fill="white"/>
<path d="M169.607 37.5937C166.306 37.5937 163.748 35.9679 162.393 33.3367H162.284V37.1445H157.562V6.27623H162.284V18.4695H162.393C163.77 15.8169 166.393 14.2126 169.65 14.2126C175.421 14.2126 179.225 18.7048 179.225 25.871V25.8924C179.225 33.0587 175.443 37.5937 169.607 37.5937ZM168.361 33.6148C172.077 33.6148 174.394 30.6842 174.394 25.8924V25.871C174.394 21.1221 172.077 18.17 168.361 18.17C164.797 18.17 162.262 21.2076 162.262 25.871V25.8924C162.262 30.5772 164.776 33.6148 168.361 33.6148Z" fill="white"/>
<path d="M191.488 37.5937C185.739 37.5937 182.373 34.8128 181.892 30.7056L181.87 30.513H186.548L186.592 30.727C187.029 32.802 188.603 34.0213 191.51 34.0213C194.352 34.0213 196.057 32.8661 196.057 31.0478V31.0264C196.057 29.5718 195.226 28.7375 192.756 28.16L188.996 27.3257C184.624 26.3417 182.46 24.2881 182.46 21.0151V20.9937C182.46 16.9721 186.045 14.2126 191.335 14.2126C196.778 14.2126 200.057 17.186 200.298 21.0151L200.319 21.2718H195.882L195.86 21.1221C195.576 19.154 194.002 17.785 191.335 17.785C188.799 17.785 187.204 18.9615 187.204 20.7584V20.7798C187.204 22.1703 188.144 23.1115 190.614 23.6891L194.352 24.5234C199.052 25.5929 200.844 27.4112 200.844 30.6414V30.6628C200.844 34.77 196.909 37.5937 191.488 37.5937Z" fill="white"/>
</svg>
