<svg width="138" height="33" viewBox="0 0 138 33" fill="none" xmlns="http://www.w3.org/2000/svg">
<g clip-path="url(#clip0_43_16896)">
<path d="M8.87113 14.8006H3.53519V3.59217H8.85162C8.85162 3.59217 14.4705 3.33854 14.4705 8.88909C14.4705 14.3128 9.3101 14.8006 8.87113 14.8006ZM11.3684 16.9076C11.3684 16.9076 18.2163 15.5615 18.2163 8.45987C18.2163 1.34854 11.6123 0.314514 9.57348 0.314514H0.00390625V31.2181H3.53519V17.9221H6.44215C8.08098 17.9221 9.71005 18.1855 11.9732 21.8631L17.4164 31.2083H21.6306L14.9875 20.3219C14.9875 20.3219 13.3877 17.5417 11.3684 16.9076Z" fill="#BC2228"/>
<path d="M27.4063 3.59217V0.314514H23.8555V3.55315" fill="#919191"/>
<path d="M23.8555 4.75308V31.345H27.4063V4.78235" fill="#919191"/>
<path d="M69.791 4.75308H66.25V31.306H69.791V4.75308Z" fill="#919191"/>
<path d="M64.0737 4.70425H49.3242V8.30382H64.0737V4.70425Z" fill="#919191"/>
<path d="M64.0737 27.7356H49.3242V31.3352H64.0737V27.7356Z" fill="#919191"/>
<path d="M59.2742 16.4296H49.3242V20.0389H59.2742V16.4296Z" fill="#919191"/>
<path d="M40.7021 4.75308H37.1318L27.2891 18.0295L37.1318 31.306H40.7021L30.8789 18.0295L40.7021 4.75308Z" fill="#919191"/>
<path d="M43.6671 4.75308L33.9609 18.0295L43.6671 31.306H47.2081L37.4922 18.0295L47.2081 4.75308H43.6671Z" fill="#BC2228"/>
</g>
<path d="M73.9243 30.7991L73.6014 27.8057H74.1216L74.2561 29.1478L74.3189 29.9072C74.3189 29.9602 74.3279 30.075 74.3369 30.2516C74.3996 30.0573 74.4355 29.9161 74.4893 29.8101C74.5252 29.7041 74.588 29.5629 74.6777 29.3686L75.4131 27.8057H75.9871L76.0857 29.3068C76.1037 29.5364 76.1127 29.8366 76.1127 30.2163C76.2113 29.9602 76.3727 29.6158 76.597 29.1655L77.2606 27.8057H77.7898L76.2741 30.7991H75.718L75.6104 29.0419C75.6014 28.9359 75.5925 28.724 75.5925 28.4061C75.5118 28.6092 75.4221 28.8211 75.3055 29.0595L74.4804 30.8079H73.9243V30.7991Z" fill="#919191"/>
<path d="M77.6718 30.799L78.5597 26.6666H79.0978L78.757 28.256C78.9633 28.0705 79.1427 27.9381 79.3041 27.8586C79.4745 27.7703 79.6539 27.735 79.8243 27.735C80.0844 27.735 80.2907 27.7968 80.4342 27.9293C80.5777 28.0617 80.6494 28.2295 80.6494 28.4502C80.6494 28.5562 80.6225 28.7505 80.5597 29.033L80.1741 30.799H79.6359L80.0306 28.98C80.0933 28.7151 80.1203 28.5562 80.1203 28.4856C80.1203 28.3884 80.0754 28.309 80.0126 28.2471C79.9409 28.1853 79.8333 28.1588 79.7077 28.1588C79.5194 28.1588 79.331 28.2118 79.1606 28.3001C78.9902 28.3973 78.8467 28.5297 78.757 28.6975C78.6584 28.8653 78.5687 29.139 78.488 29.5099L78.201 30.799H77.6718Z" fill="#919191"/>
<path d="M81.7629 29.033H83.5028C83.5118 28.98 83.5118 28.9447 83.5118 28.9182C83.5118 28.6621 83.44 28.4679 83.3055 28.3266C83.1709 28.1941 83.0005 28.1235 82.7943 28.1235C82.57 28.1235 82.3727 28.203 82.1754 28.3531C81.9871 28.5032 81.8526 28.7328 81.7629 29.033ZM83.2965 29.7747L83.8167 29.8277C83.7449 30.075 83.5745 30.3045 83.2965 30.5341C83.0364 30.7549 82.7225 30.8697 82.3458 30.8697C82.1126 30.8697 81.8974 30.8167 81.7091 30.7196C81.5207 30.6224 81.3772 30.4723 81.2696 30.2692C81.1709 30.075 81.1171 29.8454 81.1171 29.5981C81.1171 29.2714 81.1978 28.9535 81.3503 28.6445C81.5117 28.3354 81.718 28.1058 81.9691 27.9557C82.2113 27.8056 82.4804 27.735 82.7763 27.735C83.153 27.735 83.44 27.8498 83.6642 28.0705C83.8884 28.2913 83.9961 28.5915 83.9961 28.98C83.9961 29.1301 83.9871 29.2803 83.9602 29.4304H81.6732C81.6642 29.4922 81.6642 29.5452 81.6642 29.5893C81.6642 29.8719 81.727 30.0838 81.8705 30.2339C82.005 30.384 82.1665 30.4547 82.3548 30.4547C82.5342 30.4547 82.7225 30.3928 82.8929 30.2781C83.0633 30.1633 83.1978 29.9955 83.2965 29.7747Z" fill="#919191"/>
<path d="M84.3554 30.799L85.0101 27.8056H85.4765L85.342 28.4149C85.5034 28.1853 85.6559 28.0087 85.8173 27.9028C85.9698 27.788 86.1222 27.735 86.2837 27.735C86.3913 27.735 86.5168 27.7703 86.6783 27.8409L86.4541 28.3178C86.3644 28.256 86.2657 28.2206 86.1491 28.2206C85.9698 28.2206 85.7725 28.3178 85.5841 28.5209C85.3958 28.724 85.2254 29.0772 85.1177 29.5981L84.8577 30.799H84.3554Z" fill="#919191"/>
<path d="M87.1004 29.033H88.8403C88.8493 28.98 88.8493 28.9447 88.8493 28.9182C88.8493 28.6621 88.7775 28.4679 88.643 28.3266C88.5085 28.1941 88.3381 28.1235 88.1228 28.1235C87.8986 28.1235 87.7013 28.203 87.504 28.3531C87.3336 28.5032 87.1901 28.7328 87.1004 29.033ZM88.643 29.7747L89.1632 29.8277C89.0914 30.075 88.921 30.3045 88.643 30.5341C88.3829 30.7549 88.069 30.8697 87.6923 30.8697C87.4591 30.8697 87.2439 30.8167 87.0556 30.7196C86.8672 30.6224 86.7237 30.4723 86.6251 30.2692C86.5264 30.075 86.4726 29.8454 86.4726 29.5981C86.4726 29.2714 86.5533 28.9535 86.7058 28.6445C86.8672 28.3354 87.0735 28.1058 87.3246 27.9557C87.5668 27.8056 87.8358 27.735 88.1318 27.735C88.5085 27.735 88.7955 27.8498 89.0197 28.0705C89.2439 28.2913 89.3515 28.5915 89.3515 28.98C89.3515 29.1301 89.3426 29.2803 89.3157 29.4304H87.0107C87.0017 29.4922 87.0017 29.5452 87.0017 29.5893C87.0017 29.8719 87.0645 30.0838 87.208 30.2339C87.3426 30.384 87.504 30.4547 87.6923 30.4547C87.8717 30.4547 88.06 30.3928 88.2304 30.2781C88.4098 30.1633 88.5354 29.9955 88.643 29.7747Z" fill="#919191"/>
<path d="M92.607 30.384L92.5173 30.799C92.3917 30.8344 92.2662 30.8432 92.1496 30.8432C91.9343 30.8432 91.7639 30.7902 91.6473 30.6931C91.5577 30.6224 91.5038 30.5165 91.5038 30.384C91.5038 30.3222 91.5218 30.1633 91.5756 29.9249L91.9612 28.1853H91.5397L91.6294 27.788H92.042L92.2034 27.0551L92.8133 26.7019L92.5801 27.788H93.0913L93.0106 28.1853H92.4814L92.1227 29.8366C92.0689 30.0485 92.0509 30.1721 92.0509 30.2162C92.0509 30.2781 92.0689 30.3222 92.1047 30.3575C92.1496 30.3929 92.2034 30.4017 92.2841 30.4017C92.4186 30.4193 92.5173 30.4017 92.607 30.384Z" fill="#919191"/>
<path d="M93.0273 30.799L93.9241 26.6666H94.4623L94.1215 28.256C94.3098 28.0705 94.4981 27.9381 94.6685 27.8586C94.8389 27.7792 95.0094 27.735 95.1977 27.735C95.4578 27.735 95.6551 27.7968 95.8076 27.9293C95.9511 28.0617 96.0228 28.2295 96.0228 28.4502C96.0228 28.5562 95.9959 28.7505 95.9242 29.033L95.5385 30.799H95.0094L95.404 28.98C95.4668 28.7151 95.4847 28.5562 95.4847 28.4856C95.4847 28.3884 95.4578 28.309 95.386 28.2471C95.3143 28.1853 95.2156 28.15 95.0811 28.15C94.8928 28.15 94.7044 28.203 94.534 28.2913C94.3546 28.3884 94.2201 28.5209 94.1215 28.6887C94.0318 28.8564 93.9421 29.1302 93.8524 29.501L93.5833 30.7902H93.0273V30.799Z" fill="#919191"/>
<path d="M97.116 29.033H98.8649C98.8649 28.98 98.8739 28.9447 98.8739 28.9182C98.8739 28.6621 98.8021 28.4679 98.6676 28.3266C98.5331 28.1941 98.3627 28.1235 98.1474 28.1235C97.9232 28.1235 97.708 28.203 97.5286 28.3531C97.3492 28.5032 97.2057 28.7328 97.116 29.033ZM98.6676 29.7747L99.1788 29.8277C99.0981 30.075 98.9367 30.3045 98.6676 30.5341C98.4075 30.7549 98.0846 30.8697 97.7169 30.8697C97.4837 30.8697 97.2685 30.8167 97.0801 30.7196C96.8918 30.6224 96.7393 30.4723 96.6317 30.2692C96.5331 30.075 96.4882 29.8454 96.4882 29.5981C96.4882 29.2714 96.56 28.9535 96.7214 28.6445C96.8828 28.3354 97.0891 28.1058 97.3313 27.9557C97.5824 27.8056 97.8604 27.735 98.1474 27.735C98.5151 27.735 98.8111 27.8498 99.0353 28.0705C99.2595 28.2913 99.3672 28.5915 99.3672 28.98C99.3672 29.1301 99.3492 29.2803 99.3313 29.4304H97.0353C97.0263 29.4922 97.0263 29.5452 97.0263 29.5893C97.0263 29.8719 97.0891 30.0838 97.2147 30.2339C97.3582 30.384 97.5196 30.4547 97.708 30.4547C97.8873 30.4547 98.0757 30.3928 98.2461 30.2781C98.4344 30.1633 98.56 29.9955 98.6676 29.7747Z" fill="#919191"/>
<path d="M102.032 29.5452C102.032 29.7571 102.05 29.916 102.095 30.0397C102.139 30.1633 102.22 30.2604 102.319 30.3399C102.417 30.4194 102.543 30.4635 102.696 30.4635C102.929 30.4635 103.153 30.3399 103.341 30.1015C103.601 29.7836 103.736 29.3862 103.736 28.9182C103.736 28.6798 103.673 28.4944 103.548 28.3619C103.413 28.2295 103.252 28.1588 103.063 28.1588C102.929 28.1588 102.821 28.1853 102.722 28.2383C102.615 28.2913 102.507 28.3884 102.409 28.5121C102.31 28.6445 102.22 28.8123 102.148 29.0065C102.068 29.2096 102.032 29.3862 102.032 29.5452ZM103.494 30.3664C103.189 30.7019 102.866 30.8697 102.543 30.8697C102.247 30.8697 101.996 30.7637 101.808 30.5518C101.601 30.3399 101.512 30.0397 101.512 29.6423C101.512 29.2803 101.583 28.9447 101.745 28.6445C101.897 28.3443 102.086 28.1147 102.319 27.9646C102.552 27.8145 102.794 27.735 103.027 27.735C103.413 27.735 103.709 27.9116 103.906 28.2736L104.247 26.6666H104.785L103.888 30.799H103.395L103.494 30.3664Z" fill="#919191"/>
<path d="M104.723 30.799L105.377 27.8056H105.844L105.709 28.4149C105.871 28.1853 106.023 28.0087 106.184 27.9028C106.337 27.788 106.489 27.735 106.651 27.735C106.758 27.735 106.884 27.7703 107.045 27.8409L106.821 28.3178C106.732 28.256 106.633 28.2206 106.516 28.2206C106.337 28.2206 106.14 28.3178 105.951 28.5209C105.763 28.724 105.602 29.0772 105.485 29.5981L105.225 30.799H104.723Z" fill="#919191"/>
<path d="M107.475 29.033H109.224V28.9182C109.224 28.6621 109.153 28.4679 109.018 28.3266C108.883 28.1941 108.713 28.1235 108.498 28.1235C108.274 28.1235 108.076 28.203 107.879 28.3531C107.709 28.5032 107.565 28.7328 107.475 29.033ZM109.009 29.7747L109.529 29.8277C109.457 30.075 109.287 30.3045 109.027 30.5341C108.758 30.7549 108.444 30.8697 108.067 30.8697C107.834 30.8697 107.619 30.8167 107.431 30.7196C107.242 30.6224 107.099 30.4723 107 30.2692C106.901 30.075 106.848 29.8454 106.848 29.5981C106.848 29.2714 106.928 28.9535 107.09 28.6445C107.242 28.3354 107.44 28.1058 107.7 27.9557C107.951 27.8056 108.22 27.735 108.507 27.735C108.883 27.735 109.17 27.8498 109.395 28.0705C109.619 28.2913 109.727 28.5915 109.727 28.98C109.727 29.1301 109.718 29.2803 109.691 29.4304H107.395C107.395 29.4922 107.386 29.5452 107.386 29.5893C107.386 29.8719 107.457 30.0838 107.592 30.2339C107.727 30.384 107.888 30.4547 108.085 30.4547C108.265 30.4547 108.435 30.3928 108.623 30.2781C108.776 30.1633 108.919 29.9955 109.009 29.7747Z" fill="#919191"/>
<path d="M112.362 29.2803C112.29 29.3068 112.21 29.3333 112.129 29.3421C112.039 29.3598 111.896 29.3686 111.707 29.3863C111.393 29.4128 111.169 29.4481 111.053 29.4834C110.918 29.5276 110.828 29.5894 110.757 29.6777C110.694 29.766 110.667 29.8631 110.667 29.9691C110.667 30.1104 110.721 30.2252 110.819 30.3223C110.918 30.4194 111.071 30.4636 111.25 30.4636C111.429 30.4636 111.591 30.4194 111.77 30.3311C111.932 30.2428 112.057 30.1192 112.156 29.9603C112.236 29.8013 112.308 29.5717 112.362 29.2803ZM112.165 30.4282C111.985 30.5784 111.797 30.6931 111.636 30.7638C111.465 30.8344 111.277 30.8697 111.088 30.8697C110.793 30.8697 110.559 30.7903 110.389 30.6225C110.21 30.4547 110.129 30.2516 110.129 29.9956C110.129 29.8278 110.174 29.6777 110.236 29.5541C110.317 29.4216 110.425 29.3245 110.559 29.245C110.694 29.1655 110.846 29.1126 111.035 29.0772C111.16 29.0508 111.375 29.0331 111.716 29.0243C112.048 29.0154 112.29 28.9801 112.434 28.9271C112.479 28.7858 112.497 28.6711 112.497 28.5828C112.497 28.468 112.452 28.3708 112.362 28.3002C112.236 28.2031 112.057 28.1589 111.824 28.1589C111.6 28.1589 111.42 28.2031 111.277 28.3002C111.124 28.3973 111.026 28.5298 110.963 28.7064L110.425 28.6622C110.532 28.362 110.712 28.1324 110.936 27.9823C111.178 27.8234 111.483 27.7439 111.833 27.7439C112.219 27.7439 112.532 27.8322 112.757 28.0088C112.927 28.1412 113.008 28.309 113.008 28.5209C113.008 28.6799 112.99 28.8653 112.936 29.0772L112.766 29.819C112.712 30.0574 112.685 30.2516 112.685 30.3929C112.685 30.4901 112.703 30.6225 112.748 30.7991H112.21C112.201 30.702 112.174 30.5784 112.165 30.4282Z" fill="#919191"/>
<path d="M113.402 30.799L114.057 27.8056H114.586L114.487 28.3001C114.676 28.0882 114.855 27.9381 115.017 27.8586C115.169 27.7791 115.34 27.735 115.519 27.735C115.707 27.735 115.869 27.788 116.003 27.8851C116.138 27.9822 116.218 28.1235 116.254 28.3001C116.416 28.1147 116.577 27.9734 116.757 27.8763C116.927 27.788 117.106 27.735 117.304 27.735C117.564 27.735 117.761 27.7968 117.887 27.9116C118.021 28.0264 118.093 28.1942 118.093 28.4149C118.093 28.5032 118.066 28.6621 118.021 28.8741L117.6 30.8079H117.07L117.501 28.8211C117.546 28.6621 117.564 28.5474 117.564 28.4767C117.564 28.3796 117.537 28.3001 117.465 28.2471C117.402 28.1853 117.313 28.1588 117.196 28.1588C117.044 28.1588 116.882 28.203 116.712 28.3001C116.55 28.3884 116.416 28.512 116.335 28.6621C116.245 28.8123 116.165 29.0418 116.093 29.3509L115.779 30.799H115.241L115.689 28.7769C115.716 28.6357 115.725 28.5385 115.725 28.4855C115.725 28.3884 115.698 28.3089 115.635 28.2471C115.573 28.1853 115.483 28.1588 115.384 28.1588C115.232 28.1588 115.079 28.203 114.918 28.3001C114.748 28.3972 114.613 28.5209 114.514 28.6886C114.416 28.8564 114.326 29.086 114.263 29.395L113.949 30.8079L113.402 30.799Z" fill="#919191"/>
<path d="M120.867 29.5628V29.66C120.867 29.916 120.93 30.1103 121.056 30.2428C121.181 30.3752 121.343 30.4458 121.531 30.4458C121.71 30.4458 121.881 30.384 122.033 30.2604C122.195 30.1368 122.32 29.9425 122.419 29.6776C122.518 29.4127 122.571 29.1655 122.571 28.9447C122.571 28.6975 122.509 28.4944 122.383 28.3619C122.257 28.2207 122.096 28.15 121.917 28.15C121.728 28.15 121.549 28.2207 121.387 28.3619C121.226 28.5032 121.092 28.724 120.984 29.0154C120.912 29.2361 120.867 29.4216 120.867 29.5628ZM120.078 30.799L120.975 26.6666H121.513L121.19 28.1412C121.361 27.9911 121.513 27.8851 121.648 27.8233C121.791 27.7615 121.935 27.735 122.087 27.735C122.374 27.735 122.616 27.841 122.813 28.0529C123.002 28.2648 123.109 28.565 123.109 28.9624C123.109 29.2273 123.074 29.4745 122.984 29.6865C122.903 29.9072 122.813 30.0926 122.688 30.2428C122.58 30.3929 122.455 30.5077 122.338 30.6048C122.213 30.6931 122.087 30.7637 121.961 30.8079C121.827 30.852 121.701 30.8697 121.585 30.8697C121.37 30.8697 121.199 30.8167 121.038 30.7107C120.885 30.6048 120.751 30.4458 120.67 30.2339L120.553 30.799H120.078Z" fill="#919191"/>
<path d="M124.167 29.033H125.916C125.925 28.98 125.925 28.9447 125.925 28.9182C125.925 28.6621 125.853 28.4679 125.718 28.3266C125.584 28.1941 125.413 28.1235 125.207 28.1235C124.983 28.1235 124.777 28.203 124.588 28.3531C124.4 28.5032 124.256 28.7328 124.167 29.033ZM125.718 29.7747L126.239 29.8277C126.167 30.075 125.996 30.3045 125.718 30.5341C125.458 30.7549 125.144 30.8697 124.768 30.8697C124.535 30.8697 124.319 30.8167 124.131 30.7196C123.943 30.6224 123.799 30.4723 123.691 30.2692C123.593 30.075 123.539 29.8454 123.539 29.5981C123.539 29.2714 123.62 28.9535 123.772 28.6445C123.934 28.3354 124.14 28.1058 124.391 27.9557C124.633 27.8056 124.902 27.735 125.198 27.735C125.575 27.735 125.871 27.8498 126.086 28.0705C126.31 28.2913 126.418 28.5915 126.418 28.98C126.418 29.1301 126.4 29.2803 126.382 29.4304H124.086C124.077 29.4922 124.077 29.5452 124.077 29.5893C124.077 29.8719 124.14 30.0838 124.283 30.2339C124.418 30.384 124.579 30.4547 124.768 30.4547C124.947 30.4547 125.135 30.3928 125.306 30.2781C125.485 30.1633 125.611 29.9955 125.718 29.7747Z" fill="#919191"/>
<path d="M127.404 29.4745C127.404 29.6776 127.422 29.8365 127.466 29.9337C127.529 30.075 127.61 30.1897 127.718 30.2692C127.816 30.3487 127.942 30.384 128.076 30.384C128.256 30.384 128.426 30.3222 128.605 30.2074C128.776 30.0926 128.919 29.9072 129.018 29.6599C129.126 29.4127 129.179 29.1743 129.179 28.9535C129.179 28.7063 129.108 28.512 128.964 28.3619C128.821 28.2206 128.641 28.1412 128.435 28.1412C128.3 28.1412 128.184 28.1765 128.058 28.2383C127.933 28.3089 127.825 28.4061 127.718 28.5474C127.619 28.6798 127.538 28.8476 127.484 29.033C127.422 29.2273 127.404 29.3774 127.404 29.4745ZM126.74 31.0728L127.278 31.1169C127.278 31.2317 127.287 31.32 127.323 31.3818C127.368 31.4436 127.413 31.4878 127.484 31.5143C127.583 31.5584 127.709 31.5761 127.861 31.5761C128.184 31.5761 128.417 31.4966 128.552 31.3377C128.65 31.2317 128.731 30.9933 128.812 30.6401L128.866 30.3928C128.596 30.6666 128.3 30.799 127.987 30.799C127.673 30.799 127.413 30.6842 127.197 30.4635C126.982 30.2427 126.874 29.9248 126.874 29.5187C126.874 29.1831 126.964 28.8741 127.126 28.5915C127.296 28.3089 127.493 28.097 127.727 27.9557C127.96 27.8145 128.193 27.735 128.444 27.735C128.848 27.735 129.161 27.9204 129.386 28.2913L129.484 27.7968H129.969L129.341 30.6931C129.278 31.0109 129.188 31.2582 129.081 31.4348C128.973 31.6114 128.812 31.7527 128.614 31.8498C128.408 31.9469 128.193 31.9999 127.924 31.9999C127.673 31.9999 127.457 31.9734 127.278 31.9028C127.099 31.841 126.964 31.7527 126.874 31.6291C126.785 31.5054 126.74 31.373 126.74 31.214C126.722 31.1699 126.722 31.1257 126.74 31.0728Z" fill="#919191"/>
<path d="M130.866 27.2405L130.991 26.6666H131.53L131.395 27.2405H130.866ZM130.086 30.799L130.74 27.8056H131.27L130.624 30.799H130.086Z" fill="#919191"/>
<path d="M131.441 30.799L132.096 27.8056H132.571L132.464 28.3266C132.679 28.1235 132.867 27.9734 133.047 27.8763C133.226 27.7791 133.414 27.735 133.603 27.735C133.854 27.735 134.06 27.8056 134.204 27.9292C134.347 28.0617 134.419 28.2383 134.419 28.4591C134.419 28.565 134.401 28.7416 134.347 28.98L133.953 30.799H133.414L133.827 28.9006C133.872 28.7151 133.89 28.5827 133.89 28.4944C133.89 28.3972 133.863 28.3178 133.791 28.2471C133.719 28.1853 133.612 28.15 133.477 28.15C133.208 28.15 132.957 28.2471 132.751 28.4326C132.536 28.618 132.383 28.9447 132.284 29.4039L131.979 30.799H131.441Z" fill="#919191"/>
<path d="M134.838 29.7748L135.367 29.7483C135.367 29.8985 135.385 30.0221 135.439 30.1192C135.492 30.2252 135.573 30.3046 135.699 30.3753C135.824 30.4459 135.968 30.4724 136.138 30.4724C136.371 30.4724 136.551 30.4283 136.667 30.34C136.793 30.2517 136.847 30.1457 136.847 30.0221C136.847 29.9338 136.811 29.8455 136.739 29.766C136.667 29.6865 136.497 29.5894 136.21 29.4746C135.923 29.3598 135.752 29.2804 135.672 29.2274C135.537 29.1479 135.439 29.0596 135.376 28.9536C135.304 28.8477 135.277 28.7329 135.277 28.5916C135.277 28.3532 135.367 28.1501 135.573 27.9823C135.761 27.8146 136.039 27.7263 136.389 27.7263C136.784 27.7263 137.08 27.8146 137.277 27.9912C137.483 28.1678 137.591 28.3973 137.6 28.6799L137.071 28.7152C137.071 28.5298 136.999 28.3885 136.883 28.2914C136.748 28.1854 136.578 28.1324 136.344 28.1324C136.165 28.1324 136.022 28.1766 135.923 28.2561C135.824 28.3355 135.77 28.4238 135.77 28.521C135.77 28.6181 135.806 28.6976 135.905 28.7682C135.968 28.8212 136.12 28.8918 136.362 28.9978C136.766 29.1656 137.017 29.298 137.134 29.3951C137.295 29.5541 137.385 29.7395 137.385 29.9603C137.385 30.1104 137.331 30.2517 137.241 30.3929C137.143 30.5342 136.999 30.649 136.811 30.7373C136.604 30.8256 136.389 30.8698 136.12 30.8698C135.752 30.8698 135.457 30.7815 135.196 30.6137C134.936 30.4371 134.82 30.1634 134.838 29.7748Z" fill="#919191"/>
<path d="M80.0808 25.5999C76.1131 25.5999 73.7949 23.2296 73.6166 19.8849L73.6017 19.7104H76.8859L76.9007 19.8412C77.0345 21.4409 78.0598 22.6915 80.0511 22.6915C82.2504 22.6915 83.4393 21.4118 83.4393 19.0123V4.2666H86.768V19.0414C86.768 23.1714 84.2863 25.5999 80.0808 25.5999Z" fill="#BC2228"/>
<path d="M97.0959 25.5563C92.6081 25.5563 89.6806 22.517 89.6806 17.6018V17.5727C89.6806 12.6865 92.6378 9.66174 97.081 9.66174C101.539 9.66174 104.511 12.672 104.511 17.5727V17.6018C104.511 22.5315 101.569 25.5563 97.0959 25.5563ZM97.1107 22.9242C99.6221 22.9242 101.227 20.9755 101.227 17.6018V17.5727C101.227 14.228 99.5924 12.2939 97.081 12.2939C94.6142 12.2939 92.9647 14.228 92.9647 17.5727V17.6018C92.9647 20.9901 94.5993 22.9242 97.1107 22.9242Z" fill="#BC2228"/>
<path d="M115.3 25.5563C113.056 25.5563 111.317 24.4511 110.396 22.6624H110.322V25.2509H107.112V4.2666H110.322V12.5556H110.396C111.332 10.7524 113.115 9.66174 115.329 9.66174C119.253 9.66174 121.838 12.7156 121.838 17.5872V17.6018C121.838 22.4734 119.267 25.5563 115.3 25.5563ZM114.453 22.8515C116.979 22.8515 118.554 20.8592 118.554 17.6018V17.5872C118.554 14.3589 116.979 12.352 114.453 12.352C112.03 12.352 110.307 14.417 110.307 17.5872V17.6018C110.307 20.7865 112.016 22.8515 114.453 22.8515Z" fill="#BC2228"/>
<path d="M130.175 25.5563C126.267 25.5563 123.978 23.6658 123.651 20.8737L123.636 20.7429H126.816L126.846 20.8883C127.143 22.2989 128.213 23.1278 130.19 23.1278C132.122 23.1278 133.281 22.3425 133.281 21.1064V21.0919C133.281 20.103 132.716 19.5359 131.037 19.1432L128.481 18.5761C125.509 17.9071 124.038 16.5111 124.038 14.2861V14.2716C124.038 11.5377 126.475 9.66174 130.071 9.66174C133.771 9.66174 136 11.6831 136.164 14.2861L136.178 14.4606H133.162L133.147 14.3589C132.954 13.021 131.884 12.0903 130.071 12.0903C128.347 12.0903 127.262 12.8901 127.262 14.1116V14.1262C127.262 15.0714 127.901 15.7113 129.58 16.1039L132.122 16.6711C135.317 17.3982 136.535 18.6342 136.535 20.8301V20.8447C136.535 23.6367 133.86 25.5563 130.175 25.5563Z" fill="#BC2228"/>
<defs>
<clipPath id="clip0_43_16896">
<rect width="70.4" height="32" fill="white"/>
</clipPath>
</defs>
</svg>
