<svg width="16" height="16" viewBox="0 0 16 16" fill="none" xmlns="http://www.w3.org/2000/svg">
<path d="M6.31334 10.1867C6.18668 10.1867 6.06001 10.14 5.96001 10.04C5.41334 9.49334 5.11334 8.76667 5.11334 8C5.11334 6.40667 6.40668 5.11333 8.00001 5.11333C8.76668 5.11333 9.49334 5.41333 10.04 5.96C10.1333 6.05333 10.1867 6.18 10.1867 6.31333C10.1867 6.44667 10.1333 6.57333 10.04 6.66667L6.66668 10.04C6.56668 10.14 6.44001 10.1867 6.31334 10.1867ZM8.00001 6.11333C6.96001 6.11333 6.11334 6.96 6.11334 8C6.11334 8.33333 6.20001 8.65333 6.36001 8.93333L8.93334 6.36C8.65334 6.2 8.33334 6.11333 8.00001 6.11333Z" fill="#919191"/>
<path d="M3.73332 12.34C3.61999 12.34 3.49999 12.3 3.40665 12.22C2.69332 11.6133 2.05332 10.8667 1.50665 10C0.799987 8.9 0.799987 7.10666 1.50665 6C3.13332 3.45333 5.49999 1.98666 7.99999 1.98666C9.46665 1.98666 10.9133 2.49333 12.18 3.44666C12.4 3.61333 12.4467 3.92666 12.28 4.14666C12.1133 4.36666 11.8 4.41333 11.58 4.24666C10.4867 3.42 9.24665 2.98666 7.99999 2.98666C5.84665 2.98666 3.78665 4.28 2.34665 6.54C1.84665 7.32 1.84665 8.68 2.34665 9.46C2.84665 10.24 3.41999 10.9133 4.05332 11.46C4.25999 11.64 4.28665 11.9533 4.10665 12.1667C4.01332 12.28 3.87332 12.34 3.73332 12.34Z" fill="#919191"/>
<path d="M7.99999 14.0133C7.11332 14.0133 6.24666 13.8333 5.41332 13.48C5.15999 13.3733 5.03999 13.08 5.14666 12.8267C5.25332 12.5733 5.54666 12.4533 5.79999 12.56C6.50666 12.86 7.24666 13.0133 7.99332 13.0133C10.1467 13.0133 12.2067 11.72 13.6467 9.46C14.1467 8.68 14.1467 7.32 13.6467 6.54C13.44 6.21333 13.2133 5.9 12.9733 5.60666C12.8 5.39333 12.8333 5.08 13.0467 4.9C13.26 4.72666 13.5733 4.75333 13.7533 4.97333C14.0133 5.29333 14.2667 5.64 14.4933 6C15.2 7.1 15.2 8.89333 14.4933 10C12.8667 12.5467 10.5 14.0133 7.99999 14.0133Z" fill="#919191"/>
<path d="M8.46 10.8467C8.22667 10.8467 8.01334 10.68 7.96667 10.44C7.91334 10.1667 8.09334 9.90667 8.36667 9.86C9.1 9.72667 9.71334 9.11333 9.84667 8.38C9.9 8.10667 10.16 7.93333 10.4333 7.98C10.7067 8.03333 10.8867 8.29333 10.8333 8.56667C10.62 9.72 9.7 10.6333 8.55334 10.8467C8.52 10.84 8.49334 10.8467 8.46 10.8467Z" fill="#919191"/>
<path d="M1.33332 15.1667C1.20666 15.1667 1.07999 15.12 0.979991 15.02C0.786658 14.8267 0.786658 14.5067 0.979991 14.3133L5.95999 9.33333C6.15332 9.14 6.47333 9.14 6.66666 9.33333C6.85999 9.52666 6.85999 9.84667 6.66666 10.04L1.68666 15.02C1.58666 15.12 1.45999 15.1667 1.33332 15.1667Z" fill="#919191"/>
<path d="M9.68666 6.81333C9.55999 6.81333 9.43332 6.76667 9.33332 6.66667C9.13999 6.47333 9.13999 6.15333 9.33332 5.96L14.3133 0.979999C14.5067 0.786666 14.8267 0.786666 15.02 0.979999C15.2133 1.17333 15.2133 1.49333 15.02 1.68667L10.04 6.66667C9.93999 6.76667 9.81332 6.81333 9.68666 6.81333Z" fill="#919191"/>
</svg>
