<svg width="20" height="20" viewBox="0 0 20 20" fill="none" xmlns="http://www.w3.org/2000/svg">
<path d="M15 8.95833C14.6583 8.95833 14.375 8.675 14.375 8.33333V6.66667C14.375 4.04167 13.6333 2.29167 10 2.29167C6.36667 2.29167 5.625 4.04167 5.625 6.66667V8.33333C5.625 8.675 5.34167 8.95833 5 8.95833C4.65833 8.95833 4.375 8.675 4.375 8.33333V6.66667C4.375 4.25 4.95833 1.04167 10 1.04167C15.0417 1.04167 15.625 4.25 15.625 6.66667V8.33333C15.625 8.675 15.3417 8.95833 15 8.95833Z" fill="#A7A7A7"/>
<path d="M10 16.0417C8.50833 16.0417 7.29166 14.825 7.29166 13.3333C7.29166 11.8417 8.50833 10.625 10 10.625C11.4917 10.625 12.7083 11.8417 12.7083 13.3333C12.7083 14.825 11.4917 16.0417 10 16.0417ZM10 11.875C9.2 11.875 8.54166 12.5333 8.54166 13.3333C8.54166 14.1333 9.2 14.7917 10 14.7917C10.8 14.7917 11.4583 14.1333 11.4583 13.3333C11.4583 12.5333 10.8 11.875 10 11.875Z" fill="#A7A7A7"/>
<path d="M14.1667 18.9583H5.83333C2.15833 18.9583 1.04166 17.8417 1.04166 14.1667V12.5C1.04166 8.825 2.15833 7.70833 5.83333 7.70833H14.1667C17.8417 7.70833 18.9583 8.825 18.9583 12.5V14.1667C18.9583 17.8417 17.8417 18.9583 14.1667 18.9583ZM5.83333 8.95833C2.85 8.95833 2.29166 9.525 2.29166 12.5V14.1667C2.29166 17.1417 2.85 17.7083 5.83333 17.7083H14.1667C17.15 17.7083 17.7083 17.1417 17.7083 14.1667V12.5C17.7083 9.525 17.15 8.95833 14.1667 8.95833H5.83333Z" fill="#A7A7A7"/>
</svg>
