<svg width="858" height="620" viewBox="0 0 858 620" fill="none" xmlns="http://www.w3.org/2000/svg">
<g clip-path="url(#clip0_5_40598)">
<path d="M506.142 335.902L308.493 207.014L556.016 145.828L506.142 335.902Z" stroke="#DDDDDD" stroke-width="0.7021" stroke-miterlimit="10" stroke-linecap="round" stroke-linejoin="round"/>
<path d="M664.09 318.293L701.708 513.517L540.457 458.159L664.09 318.293Z" stroke="#DDDDDD" stroke-width="0.7021" stroke-miterlimit="10" stroke-linecap="round" stroke-linejoin="round"/>
<path d="M187.572 315.618L308.493 207.014L334.776 441.496L187.572 315.618Z" stroke="#DDDDDD" stroke-width="0.3511" stroke-miterlimit="10" stroke-linecap="round" stroke-linejoin="round"/>
<path d="M334.776 441.496L104.544 582.719L140.972 255.961L334.776 441.496Z" stroke="#DDDDDD" stroke-width="0.7021" stroke-miterlimit="10" stroke-linecap="round" stroke-linejoin="round"/>
<path d="M540.457 458.159L334.776 441.496L506.142 335.902L540.457 458.159Z" stroke="#DDDDDD" stroke-width="0.7021" stroke-miterlimit="10" stroke-linecap="round" stroke-linejoin="round"/>
<path d="M173.688 540.298L421.734 612.844L334.776 441.496L173.688 540.298Z" stroke="#DDDDDD" stroke-width="0.7021" stroke-miterlimit="10" stroke-linecap="round" stroke-linejoin="round"/>
<path d="M540.457 458.159L417.395 337.717L575.667 265.009L540.457 458.159Z" stroke="#DDDDDD" stroke-width="0.7021" stroke-miterlimit="10" stroke-linecap="round" stroke-linejoin="round"/>
<path d="M417.395 337.717L334.776 441.496L540.457 458.159L417.395 337.717Z" stroke="#DDDDDD" stroke-width="0.7021" stroke-miterlimit="10" stroke-linecap="round" stroke-linejoin="round"/>
<path d="M417.395 337.717L140.971 255.961H383.546L417.395 337.717Z" stroke="#DDDDDD" stroke-width="0.3511" stroke-miterlimit="10" stroke-linecap="round" stroke-linejoin="round"/>
<path d="M141.162 13.9684L0.333066 294.388L140.972 255.961L141.162 13.9684Z" stroke="#DDDDDD" stroke-width="0.7021" stroke-miterlimit="10" stroke-linecap="round" stroke-linejoin="round"/>
<path d="M334.776 441.496L0.333074 294.388L173.688 540.298L334.776 441.496Z" stroke="#DDDDDD" stroke-width="0.7021" stroke-miterlimit="10" stroke-linecap="round" stroke-linejoin="round"/>
<path d="M664.338 318.58L506.142 335.902L575.667 265.009L664.338 318.58Z" stroke="#DDDDDD" stroke-width="0.7021" stroke-miterlimit="10" stroke-linecap="round" stroke-linejoin="round"/>
<path d="M416.491 337.755L187.572 315.618L251.187 450.162L416.491 337.755Z" stroke="#DDDDDD" stroke-width="0.3511" stroke-miterlimit="10" stroke-linecap="round" stroke-linejoin="round"/>
<path d="M540.457 458.159L593.329 619.828L421.734 612.844L540.457 458.159Z" stroke="#DDDDDD" stroke-width="0.3511" stroke-miterlimit="10" stroke-linecap="round" stroke-linejoin="round"/>
<path d="M255.593 538.836L421.734 612.844L334.776 441.496L255.593 538.836Z" stroke="#DDDDDD" stroke-width="0.3511" stroke-miterlimit="10" stroke-linecap="round" stroke-linejoin="round"/>
<path d="M672.693 503.944L578.626 570.308L664.338 318.58" stroke="#DDDDDD" stroke-width="0.5" stroke-miterlimit="10" stroke-linecap="round" stroke-linejoin="round"/>
<path d="M450.54 370.164L421.735 612.844" stroke="#DDDDDD" stroke-width="0.3511" stroke-miterlimit="10" stroke-linecap="round" stroke-linejoin="round"/>
<path d="M255.593 538.836L540.457 458.159" stroke="#DDDDDD" stroke-width="0.3511" stroke-miterlimit="10" stroke-linecap="round" stroke-linejoin="round"/>
<path d="M575.667 265.009L556.016 145.828L599.076 106.435L578.141 29.8095" stroke="#DDDDDD" stroke-width="0.3511" stroke-miterlimit="10" stroke-linecap="round" stroke-linejoin="round"/>
<path d="M437.617 175.102L416.491 337.755" stroke="#DDDDDD" stroke-width="0.3511" stroke-miterlimit="10" stroke-linecap="round" stroke-linejoin="round"/>
<path d="M701.708 513.517L506.142 335.902L437.617 175.102L285.321 92.1229L308.493 207.014" stroke="#DDDDDD" stroke-width="0.3511" stroke-miterlimit="10" stroke-linecap="round" stroke-linejoin="round"/>
<path d="M577.875 149.411L600.218 255.464L674.834 297.971L577.875 149.411Z" stroke="#DDDDDD" stroke-width="0.7021" stroke-miterlimit="10" stroke-linecap="round" stroke-linejoin="round"/>
<path d="M727.477 424.375L701.708 324.255L803.425 361.584L734.605 480.812" stroke="#DDDDDD" stroke-width="0.7021" stroke-miterlimit="10" stroke-linecap="round" stroke-linejoin="round"/>
<path d="M811.39 344.061L704.762 300.455L644.335 194.66L811.39 344.061Z" stroke="#DDDDDD" stroke-width="0.3511" stroke-miterlimit="10" stroke-linecap="round" stroke-linejoin="round"/>
<path d="M544.426 127.101L440.101 154.178L297.711 77.8201L544.426 127.101Z" stroke="#DDDDDD" stroke-width="0.3511" stroke-miterlimit="10" stroke-linecap="round" stroke-linejoin="round"/>
<path d="M549.716 33.3829L566.208 98.4861L450.54 69.0779L549.716 33.3829Z" stroke="#DDDDDD" stroke-width="0.3511" stroke-miterlimit="10" stroke-linecap="round" stroke-linejoin="round"/>
<path d="M659.361 318.656C659.361 320.978 661.236 322.86 663.548 322.86C665.86 322.86 667.735 320.978 667.735 318.656C667.735 316.335 665.86 314.452 663.548 314.452C661.236 314.462 659.361 316.335 659.361 318.656Z" fill="#CCCCCC"/>
<path d="M536.27 458.159C536.27 460.481 538.145 462.363 540.457 462.363C542.77 462.363 544.644 460.481 544.644 458.159C544.644 455.837 542.77 453.955 540.457 453.955C538.145 453.965 536.27 455.847 536.27 458.159Z" fill="#CCCCCC"/>
<path d="M412.314 337.755C412.314 340.077 414.188 341.959 416.501 341.959C418.813 341.959 420.688 340.077 420.688 337.755C420.688 335.434 418.813 333.551 416.501 333.551C414.179 333.551 412.314 335.434 412.314 337.755Z" fill="#CCCCCC"/>
<path d="M596.031 255.464C596.031 257.786 597.906 259.668 600.218 259.668C602.531 259.668 604.406 257.786 604.406 255.464C604.406 253.142 602.531 251.26 600.218 251.26C597.906 251.27 596.031 253.152 596.031 255.464Z" fill="#CCCCCC"/>
<path d="M799.248 361.584C799.248 363.906 801.122 365.788 803.435 365.788C805.747 365.788 807.622 363.906 807.622 361.584C807.622 359.262 805.747 357.38 803.435 357.38C801.113 357.38 799.248 359.262 799.248 361.584Z" fill="#CCCCCC"/>
<path d="M330.589 441.496C330.589 443.818 332.464 445.7 334.776 445.7C337.089 445.7 338.963 443.818 338.963 441.496C338.963 439.175 337.089 437.292 334.776 437.292C332.464 437.292 330.589 439.175 330.589 441.496Z" fill="#CCCCCC"/>
<path d="M551.838 145.828C551.838 148.15 553.713 150.032 556.026 150.032C558.338 150.032 560.213 148.15 560.213 145.828C560.213 143.506 558.338 141.624 556.026 141.624C553.713 141.624 551.838 143.516 551.838 145.828Z" fill="#CCCCCC"/>
<path d="M501.955 335.902C501.955 338.223 503.83 340.106 506.142 340.106C508.455 340.106 510.329 338.223 510.329 335.902C510.329 333.58 508.455 331.698 506.142 331.698C503.83 331.698 501.955 333.58 501.955 335.902Z" fill="#CCCCCC"/>
<path d="M304.315 207.014C304.315 209.336 306.19 211.218 308.502 211.218C310.815 211.218 312.689 209.336 312.689 207.014C312.689 204.692 310.815 202.81 308.502 202.81C306.18 202.81 304.315 204.692 304.315 207.014Z" fill="#CCCCCC"/>
<path d="M697.521 513.517C697.521 515.839 699.395 517.721 701.708 517.721C704.02 517.721 705.895 515.839 705.895 513.517C705.895 511.195 704.02 509.313 701.708 509.313C699.395 509.313 697.521 511.195 697.521 513.517Z" fill="#CCCCCC"/>
<path d="M704.762 302.557C703.606 302.557 702.669 301.616 702.669 300.455C702.669 299.294 703.606 298.353 704.762 298.353C705.918 298.353 706.856 299.294 706.856 300.455C706.856 301.616 705.918 302.557 704.762 302.557Z" fill="#CCCCCC"/>
<path d="M448.446 69.0778C448.446 70.2339 449.379 71.1798 450.54 71.1798C451.691 71.1798 452.633 70.2435 452.633 69.0778C452.633 67.9218 451.701 66.9759 450.54 66.9759C449.388 66.9759 448.446 67.9122 448.446 69.0778Z" fill="#CCCCCC"/>
<path d="M297.711 79.922C296.555 79.922 295.618 78.981 295.618 77.8201C295.618 76.6592 296.555 75.7181 297.711 75.7181C298.867 75.7181 299.805 76.6592 299.805 77.8201C299.805 78.981 298.867 79.922 297.711 79.922Z" fill="#CCCCCC"/>
<path d="M578.141 29.8096C576.985 29.8096 576.048 28.8685 576.048 27.7076C576.048 26.5467 576.985 25.6057 578.141 25.6057C579.297 25.6057 580.235 26.5467 580.235 27.7076C580.235 28.8685 579.297 29.8096 578.141 29.8096Z" fill="#CCCCCC"/>
<path d="M576.009 150.032C576.009 151.188 576.942 152.134 578.103 152.134C579.254 152.134 580.197 151.197 580.197 150.032C580.197 148.866 579.264 147.93 578.103 147.93C576.942 147.93 576.009 148.876 576.009 150.032Z" fill="#CCCCCC"/>
<path d="M450.54 372.266C449.384 372.266 448.446 371.325 448.446 370.164C448.446 369.003 449.384 368.062 450.54 368.062C451.696 368.062 452.633 369.003 452.633 370.164C452.633 371.325 451.696 372.266 450.54 372.266Z" fill="#CCCCCC" stroke="#DDDDDD" stroke-miterlimit="10"/>
<path d="M585.792 409.585C584.636 409.585 583.698 408.644 583.698 407.483C583.698 406.322 584.636 405.381 585.792 405.381C586.948 405.381 587.885 406.322 587.885 407.483C587.885 408.644 586.948 409.585 585.792 409.585Z" fill="#CCCCCC" stroke="#DDDDDD" stroke-miterlimit="10"/>
<path d="M434.334 487.013C434.334 488.169 435.266 489.115 436.427 489.115C437.588 489.115 438.521 488.179 438.521 487.013C438.521 485.857 437.588 484.911 436.427 484.911C435.266 484.911 434.334 485.857 434.334 487.013Z" fill="#CCCCCC"/>
<path d="M437.617 177.204C436.461 177.204 435.523 176.263 435.523 175.102C435.523 173.941 436.461 173 437.617 173C438.773 173 439.71 173.941 439.71 175.102C439.71 176.263 438.773 177.204 437.617 177.204Z" fill="#CCCCCC" stroke="#DDDDDD" stroke-miterlimit="10"/>
<path d="M493.143 434.55C491.307 434.55 491.307 431.684 493.143 431.684C494.98 431.684 494.98 434.55 493.143 434.55Z" fill="#DDDDDD"/>
<path d="M449.598 255.712C447.761 255.712 447.761 252.846 449.598 252.846C451.434 252.846 451.434 255.712 449.598 255.712Z" fill="#DDDDDD"/>
<path d="M510.558 197.689C508.721 197.689 508.721 194.823 510.558 194.823C512.394 194.823 512.394 197.689 510.558 197.689Z" fill="#DDDDDD"/>
<path d="M655.431 436.939C653.594 436.939 653.594 434.073 655.431 434.073C657.267 434.073 657.277 436.939 655.431 436.939Z" fill="#DDDDDD"/>
<path d="M782.889 518.81C781.053 518.81 781.053 515.944 782.889 515.944C784.726 515.944 784.736 518.81 782.889 518.81Z" fill="#DDDDDD"/>
<path d="M824.855 471.115C823.019 471.115 823.019 468.249 824.855 468.249C826.692 468.249 826.692 471.115 824.855 471.115Z" fill="#DDDDDD"/>
<path d="M831.184 533.113C829.347 533.113 829.347 530.247 831.184 530.247C833.02 530.247 833.03 533.113 831.184 533.113Z" fill="#DDDDDD"/>
<path d="M631.679 158.736C629.842 158.736 629.842 155.869 631.679 155.869C633.525 155.869 633.525 158.736 631.679 158.736Z" fill="#DDDDDD"/>
<path d="M733.805 208.447C731.969 208.447 731.969 205.581 733.805 205.581C735.642 205.581 735.652 208.447 733.805 208.447Z" fill="#DDDDDD"/>
<path d="M373.593 35.5326C371.756 35.5326 371.756 32.6663 373.593 32.6663C375.429 32.6663 375.439 35.5326 373.593 35.5326Z" fill="#DDDDDD"/>
<path d="M381.51 474.296C379.673 474.296 379.673 471.43 381.51 471.43C383.346 471.43 383.356 474.296 381.51 474.296Z" fill="#DDDDDD"/>
<path d="M307.094 368.578C305.257 368.578 305.257 365.711 307.094 365.711C308.931 365.711 308.94 368.578 307.094 368.578Z" fill="#DDDDDD"/>
<path d="M469.391 518.007C467.554 518.007 467.554 515.141 469.391 515.141C471.228 515.141 471.228 518.007 469.391 518.007Z" fill="#DDDDDD"/>
<path d="M615.853 349.498C614.017 349.498 614.017 346.631 615.853 346.631C617.69 346.631 617.69 349.498 615.853 349.498Z" fill="#DDDDDD"/>
<path d="M342.722 169.867C340.886 169.867 340.886 167 342.722 167C344.559 167 344.559 169.867 342.722 169.867Z" fill="#DDDDDD"/>
<path d="M334.015 545.83C332.179 545.83 332.179 542.963 334.015 542.963C335.852 542.963 335.852 545.83 334.015 545.83Z" fill="#DDDDDD"/>
<path d="M851.767 325.497C848.094 325.497 848.084 319.765 851.767 319.765C855.44 319.765 855.45 325.497 851.767 325.497Z" fill="#DDDDDD"/>
<path d="M733.805 538.521C730.132 538.521 730.123 532.788 733.805 532.788C737.479 532.788 737.488 538.521 733.805 538.521Z" fill="#DDDDDD"/>
<path d="M655.764 118.044C652.091 118.044 652.081 112.311 655.764 112.311C659.437 112.311 659.447 118.044 655.764 118.044Z" fill="#DDDDDD"/>
<path d="M356.968 362.062C353.295 362.062 353.285 356.329 356.968 356.329C360.641 356.329 360.651 362.062 356.968 362.062Z" fill="#DDDDDD"/>
<path d="M325.308 40.9403C321.635 40.9403 321.625 35.2077 325.308 35.2077C328.981 35.2077 328.981 40.9403 325.308 40.9403Z" fill="#DDDDDD"/>
<path d="M448.018 133.149C444.345 133.149 444.335 127.417 448.018 127.417C451.691 127.417 451.691 133.149 448.018 133.149Z" fill="#DDDDDD"/>
<path d="M626.93 473.341C623.257 473.341 623.247 467.608 626.93 467.608C630.603 467.608 630.613 473.341 626.93 473.341Z" fill="#DDDDDD"/>
<path d="M623.771 394.088C622.848 394.088 622.848 392.655 623.771 392.655C624.684 392.655 624.684 394.088 623.771 394.088Z" fill="#DDDDDD"/>
<path d="M410.011 530.81C409.088 530.81 409.088 529.377 410.011 529.377C410.934 529.377 410.934 530.81 410.011 530.81Z" fill="#DDDDDD"/>
<path d="M429.014 426.678C428.091 426.678 428.091 425.244 429.014 425.244C429.937 425.244 429.937 426.678 429.014 426.678Z" fill="#DDDDDD"/>
<path d="M777.351 467.217C776.428 467.217 776.428 465.783 777.351 465.783C778.274 465.783 778.274 467.217 777.351 467.217Z" fill="#DDDDDD"/>
<path d="M738.563 503.781C737.64 503.781 737.64 502.348 738.563 502.348C739.477 502.348 739.477 503.781 738.563 503.781Z" fill="#DDDDDD"/>
<path d="M809.021 488.676C808.098 488.676 808.098 487.242 809.021 487.242C809.934 487.242 809.934 488.676 809.021 488.676Z" fill="#DDDDDD"/>
<path d="M740.933 389.32C740.01 389.32 740.01 387.887 740.933 387.887C741.856 387.887 741.856 389.32 740.933 389.32Z" fill="#DDDDDD"/>
<path d="M733.015 440.197C732.092 440.197 732.092 438.764 733.015 438.764C733.939 438.764 733.939 440.197 733.015 440.197Z" fill="#DDDDDD"/>
<path d="M691.849 425.885C690.926 425.885 690.926 424.451 691.849 424.451C692.772 424.451 692.772 425.885 691.849 425.885Z" fill="#DDDDDD"/>
<path d="M698.977 162.787C698.053 162.787 698.053 161.354 698.977 161.354C699.89 161.354 699.9 162.787 698.977 162.787Z" fill="#DDDDDD"/>
<path d="M787.647 195.74C786.268 195.74 786.268 193.59 787.647 193.59C789.018 193.59 789.027 195.74 787.647 195.74Z" fill="#DDDDDD"/>
<path d="M851.767 231.148C850.844 231.148 850.844 229.715 851.767 229.715C852.69 229.715 852.69 231.148 851.767 231.148Z" fill="#DDDDDD"/>
<path d="M756.768 262.505C755.388 262.505 755.388 260.356 756.768 260.356C758.148 260.356 758.148 262.505 756.768 262.505Z" fill="#DDDDDD"/>
<path d="M704.762 130.999C703.839 130.999 703.839 129.566 704.762 129.566C705.685 129.566 705.685 130.999 704.762 130.999Z" fill="#DDDDDD"/>
<path d="M799.248 231.148C798.325 231.148 798.325 229.715 799.248 229.715C800.161 229.715 800.161 231.148 799.248 231.148Z" fill="#DDDDDD"/>
<path d="M825.645 270.092C824.722 270.092 824.722 268.658 825.645 268.658C826.559 268.658 826.559 270.092 825.645 270.092Z" fill="#DDDDDD"/>
<path d="M738.563 304.277C737.64 304.277 737.64 302.844 738.563 302.844C739.477 302.844 739.477 304.277 738.563 304.277Z" fill="#DDDDDD"/>
<path d="M838.311 415.556C837.388 415.556 837.388 414.123 838.311 414.123C839.225 414.123 839.234 415.556 838.311 415.556Z" fill="#DDDDDD"/>
<path d="M672.855 180.271C671.932 180.271 671.932 178.838 672.855 178.838C673.768 178.838 673.768 180.271 672.855 180.271Z" fill="#DDDDDD"/>
<path d="M642.765 51.8705C641.385 51.8705 641.385 49.7208 642.765 49.7208C644.145 49.7208 644.145 51.8705 642.765 51.8705Z" fill="#DDDDDD"/>
<path d="M621.392 66.6128C620.469 66.6128 620.469 65.1797 621.392 65.1797C622.305 65.1797 622.315 66.6128 621.392 66.6128Z" fill="#DDDDDD"/>
<path d="M593.681 3.01915C592.758 3.01915 592.758 1.586 593.681 1.586C594.604 1.586 594.604 3.01915 593.681 3.01915Z" fill="#DDDDDD"/>
<path d="M516.096 1.43315C515.173 1.43315 515.173 0 516.096 0C517.019 0 517.019 1.43315 516.096 1.43315Z" fill="#DDDDDD"/>
<path d="M429.014 57.0776C428.091 57.0776 428.091 55.6445 429.014 55.6445C429.937 55.6445 429.937 57.0776 429.014 57.0776Z" fill="#DDDDDD"/>
<path d="M512.927 110.324C512.004 110.324 512.004 108.891 512.927 108.891C513.85 108.891 513.85 110.324 512.927 110.324Z" fill="#DDDDDD"/>
<path d="M410.81 115.894C409.887 115.894 409.887 114.461 410.81 114.461C411.724 114.461 411.724 115.894 410.81 115.894Z" fill="#DDDDDD"/>
<path d="M398.135 14.1499C397.212 14.1499 397.212 12.7168 398.135 12.7168C399.058 12.7168 399.058 14.1499 398.135 14.1499Z" fill="#DDDDDD"/>
<path d="M308.683 154.045C307.76 154.045 307.76 152.611 308.683 152.611C309.597 152.611 309.597 154.045 308.683 154.045Z" fill="#DDDDDD"/>
<path d="M472.56 200.947C471.637 200.947 471.637 199.514 472.56 199.514C473.474 199.514 473.474 200.947 472.56 200.947Z" fill="#DDDDDD"/>
<path d="M392.596 224.785C391.673 224.785 391.673 223.352 392.596 223.352C393.519 223.352 393.519 224.785 392.596 224.785Z" fill="#DDDDDD"/>
<path d="M356.178 285.99C355.255 285.99 355.255 284.557 356.178 284.557C357.101 284.557 357.101 285.99 356.178 285.99Z" fill="#DDDDDD"/>
<path d="M398.934 313.812C398.011 313.812 398.011 312.379 398.934 312.379C399.848 312.379 399.848 313.812 398.934 313.812Z" fill="#DDDDDD"/>
<path d="M550.145 504.574C549.222 504.574 549.222 503.141 550.145 503.141C551.058 503.141 551.058 504.574 550.145 504.574Z" fill="#DDDDDD"/>
<path d="M582.595 488.676C581.672 488.676 581.672 487.242 582.595 487.242C583.518 487.242 583.518 488.676 582.595 488.676Z" fill="#DDDDDD"/>
<path d="M581.805 429.066C580.882 429.066 580.882 427.633 581.805 427.633C582.728 427.633 582.728 429.066 581.805 429.066Z" fill="#DDDDDD"/>
<path d="M542.227 347.988C541.304 347.988 541.304 346.555 542.227 346.555C543.141 346.555 543.141 347.988 542.227 347.988Z" fill="#DDDDDD"/>
<path d="M548.556 255.789C547.632 255.789 547.632 254.356 548.556 254.356C549.479 254.356 549.479 255.789 548.556 255.789Z" fill="#DDDDDD"/>
<path d="M586.553 297.914C585.63 297.914 585.63 296.481 586.553 296.481C587.476 296.481 587.476 297.914 586.553 297.914Z" fill="#DDDDDD"/>
<path d="M815.349 426.678C814.426 426.678 814.426 425.244 815.349 425.244C816.272 425.244 816.272 426.678 815.349 426.678Z" fill="#DDDDDD"/>
<path d="M857.315 496.625C856.392 496.625 856.392 495.192 857.315 495.192C858.228 495.192 858.228 496.625 857.315 496.625Z" fill="#DDDDDD"/>
<path d="M765.76 554.228C766.027 553.96 766.284 553.702 766.55 553.435C766.617 553.368 766.693 553.32 766.779 553.282C766.864 553.234 766.96 553.215 767.055 553.225C767.15 553.225 767.245 553.244 767.331 553.282C767.416 553.311 767.492 553.359 767.559 553.435C767.683 553.569 767.778 553.75 767.768 553.941C767.759 554.132 767.692 554.314 767.559 554.448C767.293 554.715 767.036 554.973 766.769 555.241C766.703 555.308 766.626 555.355 766.541 555.394C766.455 555.441 766.36 555.46 766.265 555.451C766.17 555.451 766.075 555.432 765.989 555.394C765.903 555.365 765.827 555.317 765.76 555.241C765.637 555.107 765.542 554.925 765.551 554.734C765.561 554.543 765.627 554.362 765.76 554.228Z" fill="#DDDDDD"/>
</g>
<defs>
<clipPath id="clip0_5_40598">
<rect width="858" height="620" fill="white" transform="matrix(-1 0 0 1 858 0)"/>
</clipPath>
</defs>
</svg>
