<svg width="16" height="16" viewBox="0 0 16 16" fill="none" xmlns="http://www.w3.org/2000/svg">
<path d="M9.9533 1.66671V5.60004C9.9533 5.89337 9.60663 6.04004 9.3933 5.84671L8.22663 4.77337C8.09996 4.65337 7.89996 4.65337 7.7733 4.77337L6.60663 5.84004C6.3933 6.04004 6.04663 5.88671 6.04663 5.60004V1.66671C6.04663 1.48004 6.1933 1.33337 6.37996 1.33337H9.61996C9.80663 1.33337 9.9533 1.48004 9.9533 1.66671Z" fill="#BC2228"/>
<path d="M11.32 1.3733C11.1267 1.34663 10.9533 1.5133 10.9533 1.70663V5.71997C10.9533 6.22663 10.6533 6.68663 10.1867 6.8933C9.72 7.0933 9.18 7.00663 8.80667 6.65997L8.22667 6.12663C8.1 6.00663 7.90667 6.00663 7.77333 6.12663L7.19333 6.65997C6.95333 6.88663 6.64 6.99997 6.32667 6.99997C6.15333 6.99997 5.98 6.96663 5.81333 6.8933C5.34667 6.68663 5.04667 6.22663 5.04667 5.71997V1.70663C5.04667 1.5133 4.87333 1.34663 4.68 1.3733C2.81333 1.60663 2 2.86663 2 4.66663V11.3333C2 13.3333 3 14.6666 5.33333 14.6666H10.6667C13 14.6666 14 13.3333 14 11.3333V4.66663C14 2.86663 13.1867 1.60663 11.32 1.3733ZM11.6667 12.5H6C5.72667 12.5 5.5 12.2733 5.5 12C5.5 11.7266 5.72667 11.5 6 11.5H11.6667C11.94 11.5 12.1667 11.7266 12.1667 12C12.1667 12.2733 11.94 12.5 11.6667 12.5ZM11.6667 9.8333H8.83333C8.56 9.8333 8.33333 9.60663 8.33333 9.3333C8.33333 9.05997 8.56 8.8333 8.83333 8.8333H11.6667C11.94 8.8333 12.1667 9.05997 12.1667 9.3333C12.1667 9.60663 11.94 9.8333 11.6667 9.8333Z" fill="#BC2228"/>
</svg>
