<svg width="16" height="16" viewBox="0 0 16 16" fill="none" xmlns="http://www.w3.org/2000/svg">
<path d="M7.99992 14.4333C7.79325 14.4333 7.59325 14.4067 7.42659 14.3467C4.87992 13.4733 0.833252 10.3733 0.833252 5.79333C0.833252 3.46 2.71992 1.56667 5.03992 1.56667C6.16659 1.56667 7.21992 2.00667 7.99992 2.79333C8.77992 2.00667 9.83325 1.56667 10.9599 1.56667C13.2799 1.56667 15.1666 3.46667 15.1666 5.79333C15.1666 10.38 11.1199 13.4733 8.57325 14.3467C8.40659 14.4067 8.20659 14.4333 7.99992 14.4333ZM5.03992 2.56667C3.27325 2.56667 1.83325 4.01333 1.83325 5.79333C1.83325 10.3467 6.21325 12.88 7.75325 13.4067C7.87325 13.4467 8.13325 13.4467 8.25325 13.4067C9.78659 12.88 14.1733 10.3533 14.1733 5.79333C14.1733 4.01333 12.7333 2.56667 10.9666 2.56667C9.95325 2.56667 9.01325 3.04 8.40659 3.86C8.21992 4.11333 7.79325 4.11333 7.60659 3.86C6.98659 3.03333 6.05325 2.56667 5.03992 2.56667Z" fill="#676767"/>
</svg>
