<svg width="12" height="12" viewBox="0 0 12 12" fill="none" xmlns="http://www.w3.org/2000/svg">
<path d="M7.5138 1.85843L7.61679 2.46701V2.65188C6.52797 2.6024 5.43912 2.59241 4.35146 2.63561L4.37519 2.49095L4.48012 1.85137C4.52344 1.58877 4.55887 1.43762 4.64563 1.33072C4.70467 1.25798 4.85665 1.125 5.34179 1.125H6.65179C7.13289 1.125 7.28702 1.26141 7.34875 1.33894C7.43827 1.45137 7.47273 1.6066 7.5133 1.85546L7.5133 1.85546L7.5138 1.85843ZM1.51557 3.11261C1.51532 3.11264 1.51507 3.11266 1.51481 3.11269L1.51557 3.11261Z" fill="white" stroke="white"/>
<path d="M9.61585 4.07C9.49585 3.945 9.33085 3.875 9.16085 3.875H2.84085C2.67085 3.875 2.50085 3.945 2.38585 4.07C2.27085 4.195 2.20585 4.365 2.21585 4.54L2.52585 9.67C2.58085 10.43 2.65085 11.38 4.39585 11.38H7.60585C9.35085 11.38 9.42085 10.435 9.47585 9.67L9.78585 4.545C9.79585 4.365 9.73085 4.195 9.61585 4.07ZM6.83085 8.875H5.16585C4.96085 8.875 4.79085 8.705 4.79085 8.5C4.79085 8.295 4.96085 8.125 5.16585 8.125H6.83085C7.03585 8.125 7.20585 8.295 7.20585 8.5C7.20585 8.705 7.03585 8.875 6.83085 8.875ZM7.25085 6.875H4.75085C4.54585 6.875 4.37585 6.705 4.37585 6.5C4.37585 6.295 4.54585 6.125 4.75085 6.125H7.25085C7.45585 6.125 7.62585 6.295 7.62585 6.5C7.62585 6.705 7.45585 6.875 7.25085 6.875Z" fill="white"/>
</svg>
