<svg width="12" height="12" viewBox="0 0 12 12" fill="none" xmlns="http://www.w3.org/2000/svg">
<path d="M10.2032 4.84343L10.2033 4.84361C10.3911 5.13844 10.5 5.55593 10.5 5.99937C10.5 6.44296 10.391 6.8585 10.2041 7.15016L10.2034 7.15126C9.65891 8.00548 9.00083 8.66367 8.28243 9.10948C7.5646 9.54996 6.78962 9.78 6 9.78C4.42787 9.78 2.88201 8.86153 1.79717 7.15208L1.79672 7.15138C1.6088 6.85634 1.5 6.44001 1.5 5.9975C1.5 5.55504 1.60877 5.13877 1.79664 4.84373C2.34109 3.98951 2.99918 3.33131 3.71759 2.8855C4.43542 2.44503 5.21039 2.215 6 2.215C7.57154 2.215 9.11782 3.13788 10.2032 4.84343ZM3.48 6C3.48 7.39033 4.60305 8.52 6 8.52C7.39695 8.52 8.52 7.39033 8.52 6C8.52 4.60966 7.39695 3.48 6 3.48C4.60305 3.48 3.48 4.60966 3.48 6Z" fill="white" stroke="white"/>
<path d="M5.99922 4.57C5.21422 4.57 4.57422 5.21 4.57422 6C4.57422 6.785 5.21422 7.425 5.99922 7.425C6.78422 7.425 7.42922 6.785 7.42922 6C7.42922 5.215 6.78422 4.57 5.99922 4.57Z" fill="white"/>
</svg>
