<svg width="16" height="16" viewBox="0 0 16 16" fill="none" xmlns="http://www.w3.org/2000/svg">
<path d="M7.99967 15.1666C4.04634 15.1666 0.833008 11.9533 0.833008 7.99998C0.833008 4.04665 4.04634 0.833313 7.99967 0.833313C11.953 0.833313 15.1663 4.04665 15.1663 7.99998C15.1663 11.9533 11.953 15.1666 7.99967 15.1666ZM7.99967 1.83331C4.59967 1.83331 1.83301 4.59998 1.83301 7.99998C1.83301 11.4 4.59967 14.1666 7.99967 14.1666C11.3997 14.1666 14.1663 11.4 14.1663 7.99998C14.1663 4.59998 11.3997 1.83331 7.99967 1.83331Z" fill="white"/>
<path d="M8.15983 11.1666C6.41316 11.1666 4.99316 9.74665 4.99316 7.99998C4.99316 6.25331 6.41316 4.83331 8.15983 4.83331C8.9265 4.83331 9.67317 5.11331 10.2465 5.62665C10.4532 5.80665 10.4732 6.12665 10.2932 6.33331C10.1132 6.53998 9.79317 6.55998 9.58651 6.37998C9.19317 6.03332 8.6865 5.83999 8.15983 5.83999C6.9665 5.83999 5.99316 6.81332 5.99316 8.00665C5.99316 9.19999 6.9665 10.1733 8.15983 10.1733C8.67983 10.1733 9.19317 9.97999 9.58651 9.63332C9.79317 9.45332 10.1132 9.47333 10.2932 9.67999C10.4732 9.88666 10.4532 10.2067 10.2465 10.3867C9.6665 10.8867 8.9265 11.1666 8.15983 11.1666Z" fill="white"/>
</svg>
