<svg width="20" height="20" viewBox="0 0 20 20" fill="none" xmlns="http://www.w3.org/2000/svg">
<path d="M12.5003 18.9583H7.50033C2.97533 18.9583 1.04199 17.025 1.04199 12.5V7.49999C1.04199 2.97499 2.97533 1.04166 7.50033 1.04166H11.667C12.0087 1.04166 12.292 1.32499 12.292 1.66666C12.292 2.00832 12.0087 2.29166 11.667 2.29166H7.50033C3.65866 2.29166 2.29199 3.65832 2.29199 7.49999V12.5C2.29199 16.3417 3.65866 17.7083 7.50033 17.7083H12.5003C16.342 17.7083 17.7087 16.3417 17.7087 12.5V8.33332C17.7087 7.99166 17.992 7.70832 18.3337 7.70832C18.6753 7.70832 18.9587 7.99166 18.9587 8.33332V12.5C18.9587 17.025 17.0253 18.9583 12.5003 18.9583Z" fill="#3D3D3D"/>
<path d="M18.3337 8.95834H15.0003C12.1503 8.95834 11.042 7.85001 11.042 5.00001V1.66668C11.042 1.41668 11.192 1.18334 11.4253 1.09168C11.6587 0.991678 11.9253 1.05001 12.1087 1.22501L18.7753 7.89168C18.9503 8.06668 19.0087 8.34168 18.9087 8.57501C18.8087 8.80834 18.5837 8.95834 18.3337 8.95834ZM12.292 3.17501V5.00001C12.292 7.15001 12.8503 7.70834 15.0003 7.70834H16.8253L12.292 3.17501Z" fill="#3D3D3D"/>
<path d="M10.833 11.4583H5.83301C5.49134 11.4583 5.20801 11.175 5.20801 10.8333C5.20801 10.4917 5.49134 10.2083 5.83301 10.2083H10.833C11.1747 10.2083 11.458 10.4917 11.458 10.8333C11.458 11.175 11.1747 11.4583 10.833 11.4583Z" fill="#292D32"/>
<path d="M9.16634 14.7917H5.83301C5.49134 14.7917 5.20801 14.5083 5.20801 14.1667C5.20801 13.825 5.49134 13.5417 5.83301 13.5417H9.16634C9.50801 13.5417 9.79134 13.825 9.79134 14.1667C9.79134 14.5083 9.50801 14.7917 9.16634 14.7917Z" fill="#292D32"/>
</svg>
