<svg width="20" height="20" viewBox="0 0 20 20" fill="none" xmlns="http://www.w3.org/2000/svg">
<path d="M14.167 18.125H5.83366C2.15866 18.125 1.04199 17.0083 1.04199 13.3333V6.66667C1.04199 2.99167 2.15866 1.875 5.83366 1.875H14.167C17.842 1.875 18.9587 2.99167 18.9587 6.66667V13.3333C18.9587 17.0083 17.842 18.125 14.167 18.125ZM5.83366 3.125C2.85033 3.125 2.29199 3.69167 2.29199 6.66667V13.3333C2.29199 16.3083 2.85033 16.875 5.83366 16.875H14.167C17.1503 16.875 17.7087 16.3083 17.7087 13.3333V6.66667C17.7087 3.69167 17.1503 3.125 14.167 3.125H5.83366Z" fill="#AB1F24"/>
<path d="M15.8337 7.29166H11.667C11.3253 7.29166 11.042 7.00832 11.042 6.66666C11.042 6.32499 11.3253 6.04166 11.667 6.04166H15.8337C16.1753 6.04166 16.4587 6.32499 16.4587 6.66666C16.4587 7.00832 16.1753 7.29166 15.8337 7.29166Z" fill="#AB1F24"/>
<path d="M15.8333 10.625H12.5C12.1583 10.625 11.875 10.3417 11.875 10C11.875 9.65833 12.1583 9.375 12.5 9.375H15.8333C16.175 9.375 16.4583 9.65833 16.4583 10C16.4583 10.3417 16.175 10.625 15.8333 10.625Z" fill="#AB1F24"/>
<path d="M15.8337 13.9583H14.167C13.8253 13.9583 13.542 13.675 13.542 13.3333C13.542 12.9917 13.8253 12.7083 14.167 12.7083H15.8337C16.1753 12.7083 16.4587 12.9917 16.4587 13.3333C16.4587 13.675 16.1753 13.9583 15.8337 13.9583Z" fill="#AB1F24"/>
<path d="M7.08353 10.0333C5.90853 10.0333 4.9502 9.07499 4.9502 7.9C4.9502 6.725 5.90853 5.76666 7.08353 5.76666C8.25853 5.76666 9.21686 6.725 9.21686 7.9C9.21686 9.07499 8.25853 10.0333 7.08353 10.0333ZM7.08353 7.01666C6.6002 7.01666 6.2002 7.41666 6.2002 7.9C6.2002 8.38333 6.6002 8.78333 7.08353 8.78333C7.56686 8.78333 7.96686 8.38333 7.96686 7.9C7.96686 7.41666 7.56686 7.01666 7.08353 7.01666Z" fill="#AB1F24"/>
<path d="M9.99992 14.2333C9.68326 14.2333 9.40826 13.9917 9.37492 13.6667C9.28326 12.7667 8.55826 12.0417 7.64992 11.9583C7.26659 11.925 6.88326 11.925 6.49992 11.9583C5.59159 12.0417 4.86659 12.7583 4.77492 13.6667C4.74159 14.0083 4.43325 14.2667 4.09159 14.225C3.74992 14.1917 3.49992 13.8833 3.53325 13.5417C3.68325 12.0417 4.87492 10.85 6.38326 10.7167C6.84159 10.675 7.30825 10.675 7.76659 10.7167C9.26659 10.8583 10.4666 12.05 10.6166 13.5417C10.6499 13.8833 10.3999 14.1917 10.0583 14.225C10.0416 14.2333 10.0166 14.2333 9.99992 14.2333Z" fill="#AB1F24"/>
</svg>
