<svg width="20" height="20" viewBox="0 0 20 20" fill="none" xmlns="http://www.w3.org/2000/svg">
<path d="M9.9998 18.9583C9.4998 18.9583 9.00814 18.8417 8.60814 18.6167L4.66647 16.3417C3.03314 15.2417 2.9248 15.0417 2.9248 13.3167V9.18333C2.9248 7.45833 3.03314 7.25833 4.63314 6.18333L8.61647 3.88333C9.40814 3.425 10.5998 3.425 11.3915 3.88333L15.3331 6.15833C16.9665 7.25833 17.0748 7.45833 17.0748 9.18333V13.3167C17.0748 15.0417 16.9665 15.2417 15.3665 16.3167L11.3831 18.6167C10.9915 18.85 10.4915 18.9583 9.9998 18.9583ZM9.9998 4.79166C9.71647 4.79166 9.43314 4.85 9.23314 4.96666L5.29147 7.24166C4.1748 8 4.1748 8 4.1748 9.18333V13.3167C4.1748 14.5 4.1748 14.5 5.33314 15.2833L9.24147 17.5333C9.64147 17.7667 10.3665 17.7667 10.7665 17.5333L14.7081 15.2583C15.8248 14.5 15.8248 14.5 15.8248 13.3167V9.18333C15.8248 8 15.8248 8 14.6665 7.21666L10.7581 4.96666C10.5665 4.85 10.2831 4.79166 9.9998 4.79166Z" fill="#2D2C2C"/>
<path d="M14.5837 6.98332C14.242 6.98332 13.9587 6.69999 13.9587 6.35832V4.16666C13.9587 2.84999 13.4003 2.29166 12.0837 2.29166H7.91699C6.60033 2.29166 6.04199 2.84999 6.04199 4.16666V6.29999C6.04199 6.64166 5.75866 6.92499 5.41699 6.92499C5.07533 6.92499 4.79199 6.64999 4.79199 6.29999V4.16666C4.79199 2.14999 5.90033 1.04166 7.91699 1.04166H12.0837C14.1003 1.04166 15.2087 2.14999 15.2087 4.16666V6.35832C15.2087 6.69999 14.9253 6.98332 14.5837 6.98332Z" fill="#2D2C2C"/>
<path d="M11.3579 14.6917C11.1829 14.6917 10.9995 14.6583 10.8162 14.5833L9.99955 14.2667L9.18288 14.5917C8.74121 14.7667 8.29121 14.725 7.95788 14.4833C7.62455 14.2417 7.44955 13.825 7.47455 13.35L7.52455 12.475L6.96621 11.8C6.66621 11.425 6.56621 10.9917 6.69955 10.5917C6.82455 10.2 7.16621 9.90001 7.62455 9.78334L8.47455 9.56667L8.94955 8.82501C9.45788 8.02501 10.5495 8.02501 11.0579 8.82501L11.5329 9.56667L12.3829 9.78334C12.8412 9.90001 13.1829 10.2 13.3079 10.5917C13.4329 10.9833 13.3329 11.425 13.0329 11.7917L12.4745 12.4667L12.5245 13.3417C12.5495 13.8167 12.3745 14.225 12.0412 14.475C11.8412 14.6167 11.6079 14.6917 11.3579 14.6917ZM7.93288 11L8.49121 11.675C8.68288 11.9 8.79121 12.2583 8.77455 12.55L8.72455 13.425L9.54121 13.1C9.81621 12.9917 10.1829 12.9917 10.4579 13.1L11.2745 13.425L11.2245 12.55C11.2079 12.2583 11.3162 11.9083 11.5079 11.675L12.0662 11L11.2162 10.7833C10.9329 10.7083 10.6329 10.4917 10.4745 10.25L10.0079 9.51667L9.53288 10.25C9.37455 10.5 9.07455 10.7167 8.79121 10.7917L7.93288 11Z" fill="#2D2C2C"/>
</svg>
