<svg width="139" height="33" viewBox="0 0 139 33" fill="none" xmlns="http://www.w3.org/2000/svg">
<g clip-path="url(#clip0_0_1520)">
<path d="M8.92422 14.8877H3.55693V3.6134H8.9046C8.9046 3.6134 14.5564 3.35828 14.5564 8.94144C14.5564 14.397 9.36577 14.8877 8.92422 14.8877ZM11.4362 17.0071C11.4362 17.0071 18.3243 15.653 18.3243 8.50971C18.3243 1.35658 11.6815 0.316486 9.6307 0.316486H0.00489726V31.4017H3.55693V18.0276H6.48097C8.12943 18.0276 9.76807 18.2925 12.0445 21.9917L17.5197 31.3918H21.7586L15.0765 20.4414C15.0765 20.4414 13.4673 17.6449 11.4362 17.0071Z" fill="#BC2228"/>
<path d="M27.5682 3.6134V0.316486H23.9966V3.57415" fill="#919191"/>
<path d="M23.9966 4.78101V31.5292H27.5682V4.81045" fill="#919191"/>
<path d="M70.2018 4.78101H66.64V31.4899H70.2018V4.78101Z" fill="#919191"/>
<path d="M64.4522 4.73192H49.6161V8.35263H64.4522V4.73192Z" fill="#919191"/>
<path d="M64.4522 27.8987H49.6161V31.5194H64.4522V27.8987Z" fill="#919191"/>
<path d="M59.6246 16.5262H49.6161V20.1567H59.6246V16.5262Z" fill="#919191"/>
<path d="M40.942 4.78101H37.3507L27.4501 18.1355L37.3507 31.4899H40.942L31.061 18.1355L40.942 4.78101Z" fill="#919191"/>
<path d="M43.9255 4.78101L34.1623 18.1355L43.9255 31.4899H47.4873L37.7144 18.1355L47.4873 4.78101H43.9255Z" fill="#BC2228"/>
</g>
<path d="M74.5163 30.7376L74.1916 27.7978H74.7148L74.8501 29.116L74.9133 29.8618C74.9133 29.9138 74.9223 30.0265 74.9313 30.2C74.9945 30.0092 75.0306 29.8704 75.0847 29.7664C75.1208 29.6623 75.1839 29.5236 75.2741 29.3328L76.0139 27.7978H76.5913L76.6905 29.2721C76.7085 29.4975 76.7176 29.7924 76.7176 30.1653C76.8168 29.9138 76.9792 29.5756 77.2047 29.1333L77.8723 27.7978H78.4045L76.8799 30.7376H76.3206L76.2124 29.0119C76.2033 28.9079 76.1943 28.6997 76.1943 28.3875C76.1131 28.587 76.0229 28.7951 75.9056 29.0293L75.0757 30.7463H74.5163V30.7376Z" fill="#919191"/>
<path d="M78.2867 30.7376L79.1798 26.6791H79.7211L79.3783 28.2401C79.5857 28.058 79.7662 27.9279 79.9286 27.8498C80.1 27.7631 80.2804 27.7284 80.4518 27.7284C80.7134 27.7284 80.9209 27.7891 81.0652 27.9192C81.2096 28.0493 81.2818 28.2141 81.2818 28.4309C81.2818 28.5349 81.2547 28.7257 81.1915 29.0032L80.8036 30.7376H80.2623L80.6593 28.9512C80.7224 28.691 80.7495 28.5349 80.7495 28.4655C80.7495 28.3702 80.7044 28.2921 80.6412 28.2314C80.5691 28.1707 80.4608 28.1447 80.3345 28.1447C80.1451 28.1447 79.9556 28.1967 79.7842 28.2834C79.6128 28.3788 79.4685 28.5089 79.3783 28.6737C79.279 28.8384 79.1888 29.1073 79.1076 29.4715L78.8189 30.7376H78.2867Z" fill="#919191"/>
<path d="M82.4005 29.0031H84.1507C84.1597 28.9511 84.1597 28.9164 84.1597 28.8904C84.1597 28.6389 84.0875 28.4481 83.9522 28.3094C83.8169 28.1793 83.6455 28.1099 83.438 28.1099C83.2125 28.1099 83.014 28.188 82.8155 28.3354C82.6261 28.4828 82.4907 28.7083 82.4005 29.0031ZM83.9432 29.7316L84.4664 29.7836C84.3942 30.0264 84.2228 30.2519 83.9432 30.4774C83.6816 30.6942 83.3658 30.8069 82.9869 30.8069C82.7524 30.8069 82.5358 30.7549 82.3464 30.6595C82.157 30.5641 82.0126 30.4167 81.9044 30.2172C81.8051 30.0264 81.751 29.801 81.751 29.5581C81.751 29.2373 81.8322 28.9251 81.9855 28.6216C82.1479 28.3181 82.3554 28.0926 82.608 27.9452C82.8516 27.7977 83.1222 27.7284 83.4199 27.7284C83.7988 27.7284 84.0875 27.8411 84.3131 28.0579C84.5386 28.2747 84.6468 28.5695 84.6468 28.9511C84.6468 29.0985 84.6378 29.246 84.6108 29.3934H82.3103C82.3013 29.4541 82.3013 29.5061 82.3013 29.5495C82.3013 29.827 82.3644 30.0351 82.5088 30.1825C82.6441 30.3299 82.8065 30.3993 82.9959 30.3993C83.1764 30.3993 83.3658 30.3386 83.5372 30.2259C83.7086 30.1132 83.8439 29.9484 83.9432 29.7316Z" fill="#919191"/>
<path d="M85.0087 30.7375L85.6672 27.7977H86.1363L86.001 28.3961C86.1634 28.1706 86.3167 27.9972 86.4791 27.8931C86.6325 27.7804 86.7859 27.7284 86.9482 27.7284C87.0565 27.7284 87.1828 27.7631 87.3452 27.8324L87.1196 28.3007C87.0294 28.24 86.9302 28.2053 86.8129 28.2053C86.6325 28.2053 86.434 28.3007 86.2446 28.5002C86.0551 28.6996 85.8837 29.0465 85.7755 29.5581L85.5138 30.7375H85.0087Z" fill="#919191"/>
<path d="M87.7685 29.0031H89.5186C89.5277 28.9511 89.5277 28.9164 89.5277 28.8904C89.5277 28.6389 89.4555 28.4481 89.3202 28.3094C89.1848 28.1793 89.0134 28.1099 88.7969 28.1099C88.5714 28.1099 88.3729 28.188 88.1745 28.3354C88.0031 28.4828 87.8587 28.7083 87.7685 29.0031ZM89.3202 29.7316L89.8434 29.7836C89.7712 30.0264 89.5998 30.2519 89.3202 30.4774C89.0585 30.6942 88.7428 30.8069 88.3639 30.8069C88.1294 30.8069 87.9128 30.7549 87.7234 30.6595C87.5339 30.5641 87.3896 30.4167 87.2904 30.2172C87.1911 30.0264 87.137 29.801 87.137 29.5581C87.137 29.2373 87.2182 28.9251 87.3716 28.6216C87.5339 28.3181 87.7414 28.0926 87.994 27.9452C88.2376 27.7977 88.5082 27.7284 88.806 27.7284C89.1848 27.7284 89.4735 27.8411 89.6991 28.0579C89.9246 28.2747 90.0329 28.5695 90.0329 28.9511C90.0329 29.0985 90.0238 29.246 89.9968 29.3934H87.6783C87.6693 29.4541 87.6693 29.5061 87.6693 29.5495C87.6693 29.827 87.7324 30.0351 87.8768 30.1825C88.0121 30.3299 88.1745 30.3993 88.3639 30.3993C88.5443 30.3993 88.7338 30.3386 88.9052 30.2259C89.0856 30.1132 89.2119 29.9484 89.3202 29.7316Z" fill="#919191"/>
<path d="M93.3075 30.33L93.2172 30.7376C93.0909 30.7722 92.9646 30.7809 92.8474 30.7809C92.6309 30.7809 92.4595 30.7289 92.3422 30.6335C92.252 30.5641 92.1978 30.4601 92.1978 30.33C92.1978 30.2693 92.2159 30.1132 92.27 29.879L92.6579 28.1707H92.2339L92.3241 27.7804H92.7391L92.9015 27.0607L93.5149 26.7138L93.2804 27.7804H93.7946L93.7134 28.1707H93.1812L92.8203 29.7923C92.7662 30.0004 92.7481 30.1219 92.7481 30.1652C92.7481 30.2259 92.7662 30.2693 92.8023 30.304C92.8474 30.3386 92.9015 30.3473 92.9827 30.3473C93.118 30.3647 93.2172 30.3473 93.3075 30.33Z" fill="#919191"/>
<path d="M93.7317 30.7376L94.6338 26.6791H95.1751L94.8323 28.2401C95.0217 28.058 95.2112 27.9279 95.3826 27.8498C95.554 27.7718 95.7254 27.7284 95.9148 27.7284C96.1764 27.7284 96.3749 27.7891 96.5283 27.9192C96.6726 28.0493 96.7448 28.2141 96.7448 28.4309C96.7448 28.5349 96.7177 28.7257 96.6455 29.0032L96.2576 30.7376H95.7254L96.1223 28.9512C96.1855 28.691 96.2035 28.5349 96.2035 28.4655C96.2035 28.3702 96.1764 28.2921 96.1043 28.2314C96.0321 28.1707 95.9329 28.136 95.7975 28.136C95.6081 28.136 95.4186 28.188 95.2472 28.2748C95.0668 28.3702 94.9315 28.5002 94.8323 28.665C94.742 28.8298 94.6518 29.0986 94.5616 29.4628L94.291 30.7289H93.7317V30.7376Z" fill="#919191"/>
<path d="M97.8461 29.0031H99.6052C99.6052 28.9511 99.6143 28.9164 99.6143 28.8904C99.6143 28.6389 99.5421 28.4481 99.4068 28.3094C99.2715 28.1793 99.1001 28.1099 98.8835 28.1099C98.658 28.1099 98.4415 28.188 98.2611 28.3354C98.0806 28.4828 97.9363 28.7083 97.8461 29.0031ZM99.4068 29.7316L99.921 29.7836C99.8398 30.0264 99.6774 30.2519 99.4068 30.4774C99.1452 30.6942 98.8204 30.8069 98.4505 30.8069C98.216 30.8069 97.9994 30.7549 97.81 30.6595C97.6206 30.5641 97.4672 30.4167 97.3589 30.2172C97.2597 30.0264 97.2146 29.801 97.2146 29.5581C97.2146 29.2373 97.2868 28.9251 97.4491 28.6216C97.6115 28.3181 97.819 28.0926 98.0626 27.9452C98.3152 27.7977 98.5949 27.7284 98.8835 27.7284C99.2534 27.7284 99.5511 27.8411 99.7767 28.0579C100.002 28.2747 100.11 28.5695 100.11 28.9511C100.11 29.0985 100.092 29.246 100.074 29.3934H97.7649C97.7559 29.4541 97.7559 29.5061 97.7559 29.5495C97.7559 29.827 97.819 30.0351 97.9453 30.1825C98.0897 30.3299 98.252 30.3993 98.4415 30.3993C98.6219 30.3993 98.8114 30.3386 98.9828 30.2259C99.1722 30.1132 99.2985 29.9484 99.4068 29.7316Z" fill="#919191"/>
<path d="M102.789 29.5062C102.789 29.7143 102.807 29.8704 102.852 29.9918C102.897 30.1132 102.978 30.2086 103.078 30.2867C103.177 30.3647 103.303 30.4081 103.456 30.4081C103.691 30.4081 103.917 30.2867 104.106 30.0525C104.368 29.7403 104.503 29.3501 104.503 28.8905C104.503 28.6563 104.44 28.4742 104.313 28.3441C104.178 28.2141 104.016 28.1447 103.826 28.1447C103.691 28.1447 103.583 28.1707 103.484 28.2227C103.375 28.2748 103.267 28.3702 103.168 28.4916C103.069 28.6216 102.978 28.7864 102.906 28.9772C102.825 29.1766 102.789 29.3501 102.789 29.5062ZM104.259 30.3127C103.953 30.6422 103.628 30.807 103.303 30.807C103.005 30.807 102.753 30.7029 102.563 30.4948C102.356 30.2867 102.266 29.9918 102.266 29.6016C102.266 29.246 102.338 28.9165 102.5 28.6216C102.654 28.3268 102.843 28.1013 103.078 27.9539C103.312 27.8065 103.556 27.7284 103.79 27.7284C104.178 27.7284 104.476 27.9019 104.674 28.2574L105.017 26.6791H105.558L104.656 30.7376H104.16L104.259 30.3127Z" fill="#919191"/>
<path d="M105.495 30.7375L106.153 27.7977H106.623L106.487 28.3961C106.65 28.1706 106.803 27.9972 106.965 27.8931C107.119 27.7804 107.272 27.7284 107.434 27.7284C107.543 27.7284 107.669 27.7631 107.831 27.8324L107.606 28.3007C107.516 28.24 107.416 28.2053 107.299 28.2053C107.119 28.2053 106.92 28.3007 106.731 28.5002C106.541 28.6996 106.379 29.0465 106.262 29.5581L106 30.7375H105.495Z" fill="#919191"/>
<path d="M108.266 29.0031H110.025V28.8904C110.025 28.6389 109.952 28.4481 109.817 28.3094C109.682 28.1793 109.51 28.1099 109.294 28.1099C109.068 28.1099 108.87 28.188 108.671 28.3354C108.5 28.4828 108.356 28.7083 108.266 29.0031ZM109.808 29.7316L110.331 29.7836C110.259 30.0264 110.088 30.2519 109.826 30.4774C109.556 30.6942 109.24 30.8069 108.861 30.8069C108.626 30.8069 108.41 30.7549 108.22 30.6595C108.031 30.5641 107.887 30.4167 107.787 30.2172C107.688 30.0264 107.634 29.801 107.634 29.5581C107.634 29.2373 107.715 28.9251 107.878 28.6216C108.031 28.3181 108.229 28.0926 108.491 27.9452C108.744 27.7977 109.014 27.7284 109.303 27.7284C109.682 27.7284 109.971 27.8411 110.196 28.0579C110.422 28.2747 110.53 28.5695 110.53 28.9511C110.53 29.0985 110.521 29.246 110.494 29.3934H108.184C108.184 29.4541 108.175 29.5061 108.175 29.5495C108.175 29.827 108.247 30.0351 108.383 30.1825C108.518 30.3299 108.68 30.3993 108.879 30.3993C109.059 30.3993 109.231 30.3386 109.42 30.2259C109.574 30.1132 109.718 29.9484 109.808 29.7316Z" fill="#919191"/>
<path d="M113.182 29.2462C113.11 29.2722 113.029 29.2982 112.948 29.3069C112.857 29.3242 112.713 29.3329 112.523 29.3502C112.208 29.3762 111.982 29.4109 111.865 29.4456C111.73 29.489 111.639 29.5497 111.567 29.6364C111.504 29.7231 111.477 29.8185 111.477 29.9226C111.477 30.0613 111.531 30.1741 111.63 30.2695C111.73 30.3648 111.883 30.4082 112.063 30.4082C112.244 30.4082 112.406 30.3648 112.587 30.2781C112.749 30.1914 112.875 30.07 112.975 29.9139C113.056 29.7578 113.128 29.5323 113.182 29.2462ZM112.984 30.3735C112.803 30.5209 112.614 30.6337 112.451 30.7031C112.28 30.7724 112.09 30.8071 111.901 30.8071C111.603 30.8071 111.369 30.7291 111.197 30.5643C111.017 30.3995 110.936 30.2001 110.936 29.9486C110.936 29.7838 110.981 29.6364 111.044 29.515C111.125 29.3849 111.233 29.2895 111.369 29.2115C111.504 29.1334 111.657 29.0814 111.847 29.0467C111.973 29.0207 112.19 29.0033 112.533 28.9947C112.866 28.986 113.11 28.9513 113.254 28.8993C113.299 28.7605 113.317 28.6478 113.317 28.5611C113.317 28.4483 113.272 28.353 113.182 28.2836C113.056 28.1882 112.875 28.1448 112.641 28.1448C112.415 28.1448 112.235 28.1882 112.09 28.2836C111.937 28.379 111.838 28.509 111.775 28.6825L111.233 28.6391C111.342 28.3443 111.522 28.1188 111.748 27.9714C111.991 27.8153 112.298 27.7372 112.65 27.7372C113.038 27.7372 113.353 27.824 113.579 27.9974C113.75 28.1275 113.832 28.2922 113.832 28.5004C113.832 28.6565 113.814 28.8386 113.759 29.0467L113.588 29.7752C113.534 30.0093 113.507 30.2001 113.507 30.3388C113.507 30.4342 113.525 30.5643 113.57 30.7377H113.029C113.02 30.6423 112.993 30.5209 112.984 30.3735Z" fill="#919191"/>
<path d="M114.228 30.7375L114.886 27.7977H115.418L115.319 28.2834C115.509 28.0752 115.689 27.9278 115.852 27.8498C116.005 27.7717 116.176 27.7284 116.357 27.7284C116.546 27.7284 116.709 27.7804 116.844 27.8758C116.979 27.9712 117.06 28.1099 117.096 28.2834C117.259 28.1013 117.421 27.9625 117.602 27.8671C117.773 27.7804 117.953 27.7284 118.152 27.7284C118.414 27.7284 118.612 27.7891 118.738 27.9018C118.874 28.0145 118.946 28.1793 118.946 28.3961C118.946 28.4828 118.919 28.6389 118.874 28.847L118.45 30.7462H117.917L118.35 28.795C118.396 28.6389 118.414 28.5262 118.414 28.4568C118.414 28.3614 118.387 28.2834 118.314 28.2313C118.251 28.1706 118.161 28.1446 118.044 28.1446C117.89 28.1446 117.728 28.188 117.557 28.2834C117.394 28.3701 117.259 28.4915 117.178 28.6389C117.087 28.7863 117.006 29.0118 116.934 29.3153L116.618 30.7375H116.077L116.528 28.7517C116.555 28.6129 116.564 28.5175 116.564 28.4655C116.564 28.3701 116.537 28.292 116.474 28.2313C116.411 28.1706 116.321 28.1446 116.221 28.1446C116.068 28.1446 115.915 28.188 115.752 28.2834C115.581 28.3788 115.446 28.5002 115.346 28.6649C115.247 28.8297 115.157 29.0552 115.094 29.3587L114.778 30.7462L114.228 30.7375Z" fill="#919191"/>
<path d="M121.734 29.5235V29.6189C121.734 29.8704 121.797 30.0612 121.923 30.1913C122.049 30.3213 122.212 30.3907 122.401 30.3907C122.582 30.3907 122.753 30.33 122.907 30.2086C123.069 30.0872 123.195 29.8964 123.294 29.6363C123.394 29.3761 123.448 29.1333 123.448 28.9165C123.448 28.6737 123.385 28.4742 123.258 28.3441C123.132 28.2054 122.97 28.136 122.789 28.136C122.6 28.136 122.419 28.2054 122.257 28.3441C122.095 28.4829 121.959 28.6997 121.851 28.9859C121.779 29.2027 121.734 29.3848 121.734 29.5235ZM120.94 30.7376L121.842 26.6791H122.383L122.059 28.1273C122.23 27.9799 122.383 27.8759 122.519 27.8152C122.663 27.7544 122.807 27.7284 122.961 27.7284C123.249 27.7284 123.493 27.8325 123.691 28.0406C123.881 28.2488 123.989 28.5436 123.989 28.9338C123.989 29.194 123.953 29.4368 123.863 29.6449C123.782 29.8617 123.691 30.0438 123.565 30.1913C123.457 30.3387 123.331 30.4514 123.213 30.5468C123.087 30.6335 122.961 30.7029 122.834 30.7463C122.699 30.7896 122.573 30.807 122.455 30.807C122.239 30.807 122.068 30.7549 121.905 30.6509C121.752 30.5468 121.616 30.3907 121.535 30.1826L121.418 30.7376H120.94Z" fill="#919191"/>
<path d="M125.054 29.0031H126.813C126.822 28.9511 126.822 28.9164 126.822 28.8904C126.822 28.6389 126.75 28.4481 126.615 28.3094C126.48 28.1793 126.308 28.1099 126.101 28.1099C125.875 28.1099 125.668 28.188 125.478 28.3354C125.289 28.4828 125.145 28.7083 125.054 29.0031ZM126.615 29.7316L127.138 29.7836C127.066 30.0264 126.895 30.2519 126.615 30.4774C126.353 30.6942 126.038 30.8069 125.659 30.8069C125.424 30.8069 125.208 30.7549 125.018 30.6595C124.829 30.5641 124.684 30.4167 124.576 30.2172C124.477 30.0264 124.423 29.801 124.423 29.5581C124.423 29.2373 124.504 28.9251 124.657 28.6216C124.82 28.3181 125.027 28.0926 125.28 27.9452C125.523 27.7977 125.794 27.7284 126.092 27.7284C126.471 27.7284 126.768 27.8411 126.985 28.0579C127.21 28.2747 127.319 28.5695 127.319 28.9511C127.319 29.0985 127.301 29.246 127.283 29.3934H124.973C124.964 29.4541 124.964 29.5061 124.964 29.5495C124.964 29.827 125.027 30.0351 125.172 30.1825C125.307 30.3299 125.469 30.3993 125.659 30.3993C125.839 30.3993 126.029 30.3386 126.2 30.2259C126.38 30.1132 126.507 29.9484 126.615 29.7316Z" fill="#919191"/>
<path d="M128.311 29.4367C128.311 29.6362 128.329 29.7923 128.374 29.8877C128.437 30.0264 128.518 30.1392 128.626 30.2172C128.726 30.2953 128.852 30.3299 128.987 30.3299C129.168 30.3299 129.339 30.2692 129.52 30.1565C129.691 30.0438 129.835 29.8617 129.934 29.6189C130.043 29.376 130.097 29.1419 130.097 28.9251C130.097 28.6823 130.025 28.4915 129.88 28.3441C129.736 28.2053 129.556 28.1273 129.348 28.1273C129.213 28.1273 129.096 28.162 128.969 28.2227C128.843 28.292 128.735 28.3874 128.626 28.5262C128.527 28.6563 128.446 28.821 128.392 29.0031C128.329 29.1939 128.311 29.3413 128.311 29.4367ZM127.643 31.0064L128.184 31.0497C128.184 31.1625 128.193 31.2492 128.229 31.3099C128.275 31.3706 128.32 31.4139 128.392 31.44C128.491 31.4833 128.617 31.5007 128.771 31.5007C129.095 31.5007 129.33 31.4226 129.465 31.2665C129.565 31.1625 129.646 30.9283 129.727 30.5814L129.781 30.3386C129.51 30.6075 129.213 30.7375 128.897 30.7375C128.581 30.7375 128.32 30.6248 128.103 30.408C127.887 30.1912 127.778 29.879 127.778 29.4801C127.778 29.1506 127.869 28.847 128.031 28.5695C128.202 28.292 128.401 28.0839 128.635 27.9452C128.87 27.8064 129.105 27.7284 129.357 27.7284C129.763 27.7284 130.079 27.9105 130.304 28.2747L130.404 27.7891H130.891L130.259 30.6335C130.196 30.9457 130.106 31.1885 129.998 31.3619C129.889 31.5353 129.727 31.6741 129.529 31.7695C129.321 31.8649 129.105 31.9169 128.834 31.9169C128.581 31.9169 128.365 31.8909 128.184 31.8215C128.004 31.7608 127.869 31.6741 127.778 31.5527C127.688 31.4313 127.643 31.3012 127.643 31.1451C127.625 31.1018 127.625 31.0584 127.643 31.0064Z" fill="#919191"/>
<path d="M131.793 27.2428L131.919 26.6791H132.46L132.325 27.2428H131.793ZM131.008 30.7376L131.666 27.7978H132.198L131.549 30.7376H131.008Z" fill="#919191"/>
<path d="M132.37 30.7375L133.029 27.7977H133.507L133.399 28.3094C133.615 28.1099 133.804 27.9625 133.985 27.8671C134.165 27.7717 134.355 27.7284 134.544 27.7284C134.797 27.7284 135.004 27.7977 135.149 27.9191C135.293 28.0492 135.365 28.2227 135.365 28.4395C135.365 28.5435 135.347 28.717 135.293 28.9511L134.896 30.7375H134.355L134.77 28.8731C134.815 28.691 134.833 28.5609 134.833 28.4742C134.833 28.3788 134.806 28.3007 134.734 28.2313C134.662 28.1706 134.553 28.1359 134.418 28.1359C134.147 28.1359 133.895 28.2313 133.687 28.4135C133.471 28.5956 133.317 28.9164 133.218 29.3674L132.911 30.7375H132.37Z" fill="#919191"/>
<path d="M135.789 29.7317L136.321 29.7057C136.321 29.8531 136.339 29.9745 136.394 30.0699C136.448 30.174 136.529 30.252 136.655 30.3214C136.782 30.3908 136.926 30.4168 137.097 30.4168C137.332 30.4168 137.512 30.3734 137.63 30.2867C137.756 30.2 137.81 30.0959 137.81 29.9745C137.81 29.8878 137.774 29.8011 137.702 29.723C137.63 29.645 137.458 29.5496 137.169 29.4368C136.881 29.3241 136.709 29.2461 136.628 29.194C136.493 29.116 136.394 29.0293 136.33 28.9252C136.258 28.8211 136.231 28.7084 136.231 28.5696C136.231 28.3355 136.321 28.136 136.529 27.9713C136.718 27.8065 136.998 27.7198 137.35 27.7198C137.747 27.7198 138.045 27.8065 138.243 27.98C138.45 28.1534 138.559 28.3789 138.568 28.6564L138.036 28.6911C138.036 28.5089 137.963 28.3702 137.846 28.2748C137.711 28.1707 137.539 28.1187 137.305 28.1187C137.124 28.1187 136.98 28.1621 136.881 28.2401C136.782 28.3182 136.727 28.4049 136.727 28.5003C136.727 28.5957 136.763 28.6737 136.863 28.7431C136.926 28.7951 137.079 28.8645 137.323 28.9686C137.729 29.1333 137.981 29.2634 138.099 29.3588C138.261 29.5149 138.351 29.697 138.351 29.9138C138.351 30.0612 138.297 30.2 138.207 30.3387C138.108 30.4775 137.963 30.5902 137.774 30.6769C137.566 30.7637 137.35 30.807 137.079 30.807C136.709 30.807 136.412 30.7203 136.15 30.5555C135.888 30.3821 135.771 30.1133 135.789 29.7317Z" fill="#919191"/>
<path d="M80.7087 26.2484C76.7177 26.2484 74.3859 23.8642 74.2065 20.4998L74.1916 20.3243H77.495L77.5099 20.4559C77.6445 22.065 78.6759 23.3229 80.6788 23.3229C82.8911 23.3229 84.0869 22.0357 84.0869 19.6221V4.78977H87.4352V19.6514C87.4352 23.8056 84.9389 26.2484 80.7087 26.2484Z" fill="#BC2228"/>
<path d="M97.8237 26.2046C93.3096 26.2046 90.3649 23.1474 90.3649 18.2033V18.174C90.3649 13.2591 93.3395 10.2166 97.8088 10.2166C102.293 10.2166 105.283 13.2445 105.283 18.174V18.2033C105.283 23.162 102.323 26.2046 97.8237 26.2046ZM97.8387 23.557C100.365 23.557 101.979 21.5969 101.979 18.2033V18.174C101.979 14.8097 100.335 12.8642 97.8088 12.8642C95.3275 12.8642 93.6683 14.8097 93.6683 18.174V18.2033C93.6683 21.6115 95.3125 23.557 97.8387 23.557Z" fill="#BC2228"/>
<path d="M116.135 26.2046C113.877 26.2046 112.129 25.0929 111.202 23.2937H111.127V25.8974H107.898V4.78977H111.127V13.1275H111.202C112.144 11.3137 113.937 10.2166 116.164 10.2166C120.111 10.2166 122.712 13.2884 122.712 18.1886V18.2033C122.712 23.1035 120.126 26.2046 116.135 26.2046ZM115.283 23.4838C117.824 23.4838 119.408 21.4799 119.408 18.2033V18.1886C119.408 14.9413 117.824 12.9227 115.283 12.9227C112.846 12.9227 111.112 14.9998 111.112 18.1886V18.2033C111.112 21.4067 112.831 23.4838 115.283 23.4838Z" fill="#BC2228"/>
<path d="M131.097 26.2046C127.166 26.2046 124.864 24.303 124.535 21.4945L124.52 21.3628H127.719L127.749 21.5091C128.048 22.928 129.124 23.7618 131.112 23.7618C133.055 23.7618 134.221 22.9719 134.221 21.7285V21.7139C134.221 20.7192 133.653 20.1487 131.964 19.7538L129.393 19.1833C126.404 18.5105 124.924 17.1062 124.924 14.8682V14.8536C124.924 12.1036 127.375 10.2166 130.992 10.2166C134.714 10.2166 136.957 12.2498 137.121 14.8682L137.136 15.0437H134.102L134.087 14.9413C133.892 13.5956 132.816 12.6594 130.992 12.6594C129.259 12.6594 128.167 13.4639 128.167 14.6926V14.7073C128.167 15.6581 128.81 16.3017 130.499 16.6966L133.055 17.2671C136.269 17.9985 137.495 19.2418 137.495 21.4506V21.4652C137.495 24.2737 134.804 26.2046 131.097 26.2046Z" fill="#BC2228"/>
<defs>
<clipPath id="clip0_0_1520">
<rect width="70.6047" height="32.093" fill="white" transform="scale(1.00296)"/>
</clipPath>
</defs>
</svg>
