<svg width="203" height="48" viewBox="0 0 203 48" fill="none" xmlns="http://www.w3.org/2000/svg">
<path d="M13.0516 21.7719H5.20239V5.28413H13.0229C13.0229 5.28413 21.2883 4.91104 21.2883 13.076C21.2883 21.0544 13.6974 21.7719 13.0516 21.7719ZM16.7251 24.8714C16.7251 24.8714 26.7986 22.8911 26.7986 12.4446C26.7986 1.98372 17.0839 0.462657 14.0848 0.462657H0.00782455V45.9223H5.20239V26.3637H9.47858C11.8893 26.3637 14.2857 26.7512 17.6148 32.161L25.6219 45.9079H31.821L22.0489 29.8937C22.0489 29.8937 19.6955 25.8041 16.7251 24.8714Z" fill="white"/>
<path d="M40.3163 5.28413V0.462657H35.0931V5.22673" fill="white"/>
<path d="M35.0931 6.99189V46.109H40.3163V7.03494" fill="white"/>
<path d="M102.665 6.99189H97.4557V46.0516H102.665V6.99189Z" fill="white"/>
<path d="M94.2566 6.91998H72.5599V12.215H94.2566V6.91998Z" fill="white"/>
<path d="M94.2566 40.7995H72.5599V46.0945H94.2566V40.7995Z" fill="white"/>
<path d="M87.1966 24.1682H72.5599V29.4776H87.1966V24.1682Z" fill="white"/>
<path d="M59.8746 6.99189H54.6226L40.1438 26.5217L54.6226 46.0516H59.8746L45.4245 26.5217L59.8746 6.99189Z" fill="white"/>
<path d="M64.2366 6.99189L49.9587 26.5217L64.2366 46.0516H69.4455L55.1533 26.5217L69.4455 6.99189H64.2366Z" fill="white"/>
<path d="M108.742 45.306L108.267 40.9026H109.032L109.23 42.877L109.323 43.9941C109.323 44.072 109.336 44.2409 109.349 44.5006C109.441 44.2149 109.494 44.007 109.573 43.8512C109.626 43.6953 109.718 43.4875 109.85 43.2017L110.932 40.9026H111.777L111.922 43.1108C111.948 43.4485 111.961 43.8901 111.961 44.4487C112.106 44.072 112.344 43.5654 112.674 42.903L113.65 40.9026H114.428L112.199 45.306H111.381L111.222 42.7211C111.209 42.5652 111.196 42.2535 111.196 41.7859C111.077 42.0846 110.945 42.3964 110.774 42.7471L109.56 45.319H108.742V45.306Z" fill="white"/>
<path d="M114.257 45.3059L115.563 39.227H116.355L115.853 41.565C116.157 41.2923 116.421 41.0974 116.658 40.9805C116.909 40.8506 117.173 40.7987 117.423 40.7987C117.806 40.7987 118.109 40.8896 118.32 41.0844C118.531 41.2793 118.637 41.5261 118.637 41.8508C118.637 42.0067 118.597 42.2924 118.505 42.7081L117.938 45.3059H117.146L117.727 42.6301C117.819 42.2405 117.859 42.0067 117.859 41.9028C117.859 41.7599 117.793 41.643 117.7 41.552C117.595 41.4611 117.436 41.4222 117.252 41.4222C116.975 41.4222 116.698 41.5001 116.447 41.63C116.196 41.7729 115.985 41.9677 115.853 42.2145C115.708 42.4613 115.576 42.864 115.458 43.4095L115.035 45.3059H114.257Z" fill="white"/>
<path d="M120.272 42.708H122.832C122.845 42.63 122.845 42.5781 122.845 42.5391C122.845 42.1624 122.739 41.8767 122.541 41.6688C122.344 41.474 122.093 41.3701 121.789 41.3701C121.46 41.3701 121.169 41.487 120.879 41.7078C120.602 41.9286 120.404 42.2663 120.272 42.708ZM122.528 43.7991L123.293 43.877C123.188 44.2407 122.937 44.5784 122.528 44.9161C122.146 45.2409 121.684 45.4097 121.13 45.4097C120.787 45.4097 120.47 45.3318 120.193 45.1889C119.916 45.046 119.705 44.8252 119.547 44.5265C119.402 44.2407 119.322 43.903 119.322 43.5393C119.322 43.0587 119.441 42.5911 119.665 42.1364C119.903 41.6818 120.206 41.3441 120.576 41.1233C120.932 40.9025 121.328 40.7986 121.763 40.7986C122.317 40.7986 122.739 40.9674 123.069 41.2921C123.399 41.6169 123.557 42.0585 123.557 42.63C123.557 42.8508 123.544 43.0717 123.505 43.2925H120.14C120.127 43.3834 120.127 43.4613 120.127 43.5263C120.127 43.9419 120.219 44.2537 120.431 44.4745C120.628 44.6953 120.866 44.7992 121.143 44.7992C121.407 44.7992 121.684 44.7083 121.935 44.5394C122.185 44.3706 122.383 44.1238 122.528 43.7991Z" fill="white"/>
<path d="M124.086 45.3058L125.049 40.9025H125.735L125.537 41.7987C125.774 41.461 125.999 41.2012 126.236 41.0453C126.46 40.8765 126.685 40.7986 126.922 40.7986C127.08 40.7986 127.265 40.8505 127.503 40.9544L127.173 41.6558C127.041 41.5649 126.896 41.513 126.724 41.513C126.46 41.513 126.17 41.6558 125.893 41.9546C125.616 42.2533 125.365 42.7729 125.207 43.5393L124.824 45.3058H124.086Z" fill="white"/>
<path d="M128.123 42.708H130.683C130.696 42.63 130.696 42.5781 130.696 42.5391C130.696 42.1624 130.59 41.8767 130.392 41.6688C130.195 41.474 129.944 41.3701 129.627 41.3701C129.297 41.3701 129.007 41.487 128.717 41.7078C128.466 41.9286 128.255 42.2663 128.123 42.708ZM130.392 43.7991L131.158 43.877C131.052 44.2407 130.801 44.5784 130.392 44.9161C130.01 45.2409 129.548 45.4097 128.994 45.4097C128.651 45.4097 128.334 45.3318 128.057 45.1889C127.78 45.046 127.569 44.8252 127.424 44.5265C127.279 44.2407 127.2 43.903 127.2 43.5393C127.2 43.0587 127.318 42.5911 127.543 42.1364C127.78 41.6818 128.084 41.3441 128.453 41.1233C128.809 40.9025 129.205 40.7986 129.64 40.7986C130.195 40.7986 130.617 40.9674 130.947 41.2921C131.276 41.6169 131.435 42.0585 131.435 42.63C131.435 42.8508 131.421 43.0717 131.382 43.2925H127.991C127.978 43.3834 127.978 43.4613 127.978 43.5263C127.978 43.9419 128.07 44.2537 128.282 44.4745C128.479 44.6953 128.717 44.7992 128.994 44.7992C129.258 44.7992 129.535 44.7083 129.786 44.5394C130.049 44.3706 130.234 44.1238 130.392 43.7991Z" fill="white"/>
<path d="M136.223 44.6954L136.092 45.3059C135.907 45.3578 135.722 45.3708 135.551 45.3708C135.234 45.3708 134.983 45.2929 134.812 45.15C134.68 45.0461 134.601 44.8902 134.601 44.6954C134.601 44.6045 134.627 44.3706 134.706 44.0199L135.274 41.4611H134.654L134.785 40.8766H135.392L135.63 39.7985L136.527 39.2789L136.184 40.8766H136.936L136.817 41.4611H136.039L135.511 43.89C135.432 44.2018 135.406 44.3836 135.406 44.4486C135.406 44.5395 135.432 44.6044 135.485 44.6564C135.551 44.7084 135.63 44.7214 135.749 44.7214C135.946 44.7473 136.092 44.7214 136.223 44.6954Z" fill="white"/>
<path d="M136.843 45.3059L138.163 39.227H138.954L138.453 41.565C138.73 41.2923 139.007 41.0974 139.258 40.9805C139.508 40.8636 139.759 40.7987 140.036 40.7987C140.419 40.7987 140.709 40.8896 140.933 41.0844C141.144 41.2793 141.25 41.5261 141.25 41.8508C141.25 42.0067 141.21 42.2924 141.105 42.7081L140.538 45.3059H139.759L140.34 42.6301C140.432 42.2405 140.458 42.0067 140.458 41.9028C140.458 41.7599 140.419 41.643 140.313 41.552C140.208 41.4611 140.063 41.4092 139.865 41.4092C139.588 41.4092 139.311 41.4871 139.06 41.617C138.796 41.7599 138.598 41.9547 138.453 42.2015C138.321 42.4483 138.189 42.851 138.057 43.3965L137.661 45.2929H136.843V45.3059Z" fill="white"/>
<path d="M142.861 42.708H145.433C145.433 42.63 145.447 42.5781 145.447 42.5391C145.447 42.1624 145.341 41.8767 145.143 41.6688C144.945 41.474 144.695 41.3701 144.378 41.3701C144.048 41.3701 143.731 41.487 143.468 41.7078C143.204 41.9286 142.993 42.2663 142.861 42.708ZM145.143 43.7991L145.895 43.877C145.776 44.2407 145.539 44.5784 145.143 44.9161C144.761 45.2409 144.286 45.4097 143.745 45.4097C143.402 45.4097 143.085 45.3318 142.808 45.1889C142.531 45.046 142.307 44.8252 142.148 44.5265C142.003 44.2407 141.937 43.903 141.937 43.5393C141.937 43.0587 142.043 42.5911 142.28 42.1364C142.518 41.6818 142.821 41.3441 143.177 41.1233C143.547 40.9025 143.956 40.7986 144.378 40.7986C144.919 40.7986 145.354 40.9674 145.684 41.2921C146.014 41.6169 146.172 42.0585 146.172 42.63C146.172 42.8508 146.146 43.0717 146.119 43.2925H142.742C142.729 43.3834 142.729 43.4613 142.729 43.5263C142.729 43.9419 142.821 44.2537 143.006 44.4745C143.217 44.6953 143.454 44.7992 143.731 44.7992C143.995 44.7992 144.272 44.7083 144.523 44.5394C144.8 44.3706 144.985 44.1238 145.143 43.7991Z" fill="white"/>
<path d="M150.089 43.4615C150.089 43.7732 150.115 44.007 150.181 44.1889C150.247 44.3707 150.366 44.5136 150.511 44.6305C150.656 44.7474 150.841 44.8123 151.065 44.8123C151.408 44.8123 151.738 44.6305 152.015 44.2798C152.398 43.8122 152.595 43.2277 152.595 42.5392C152.595 42.1885 152.503 41.9157 152.318 41.7209C152.121 41.5261 151.883 41.4222 151.606 41.4222C151.408 41.4222 151.25 41.4611 151.105 41.5391C150.946 41.617 150.788 41.7599 150.643 41.9417C150.498 42.1366 150.366 42.3834 150.26 42.6691C150.142 42.9679 150.089 43.2277 150.089 43.4615ZM152.239 44.6695C151.791 45.163 151.316 45.4098 150.841 45.4098C150.405 45.4098 150.036 45.254 149.759 44.9422C149.456 44.6305 149.324 44.1889 149.324 43.6043C149.324 43.0718 149.429 42.5782 149.667 42.1366C149.891 41.6949 150.168 41.3572 150.511 41.1364C150.854 40.9156 151.21 40.7987 151.553 40.7987C152.121 40.7987 152.556 41.0585 152.846 41.591L153.347 39.227H154.139L152.82 45.3059H152.094L152.239 44.6695Z" fill="white"/>
<path d="M154.046 45.3058L155.009 40.9025H155.695L155.497 41.7987C155.734 41.461 155.959 41.2012 156.196 41.0453C156.42 40.8765 156.645 40.7986 156.882 40.7986C157.041 40.7986 157.225 40.8505 157.463 40.9544L157.133 41.6558C157.001 41.5649 156.856 41.513 156.684 41.513C156.42 41.513 156.13 41.6558 155.853 41.9546C155.576 42.2533 155.339 42.7729 155.167 43.5393L154.785 45.3058H154.046Z" fill="white"/>
<path d="M158.097 42.708H160.67V42.5391C160.67 42.1624 160.564 41.8767 160.366 41.6688C160.168 41.474 159.918 41.3701 159.601 41.3701C159.271 41.3701 158.981 41.487 158.691 41.7078C158.44 41.9286 158.229 42.2663 158.097 42.708ZM160.353 43.7991L161.118 43.877C161.013 44.2407 160.762 44.5784 160.379 44.9161C159.984 45.2409 159.522 45.4097 158.968 45.4097C158.625 45.4097 158.308 45.3318 158.031 45.1889C157.754 45.046 157.543 44.8252 157.398 44.5265C157.253 44.2407 157.174 43.903 157.174 43.5393C157.174 43.0587 157.292 42.5911 157.53 42.1364C157.754 41.6818 158.044 41.3441 158.427 41.1233C158.796 40.9025 159.192 40.7986 159.614 40.7986C160.168 40.7986 160.591 40.9674 160.92 41.2921C161.25 41.6169 161.409 42.0585 161.409 42.63C161.409 42.8508 161.395 43.0717 161.356 43.2925H157.978C157.978 43.3834 157.965 43.4613 157.965 43.5263C157.965 43.9419 158.071 44.2537 158.269 44.4745C158.467 44.6953 158.704 44.7992 158.994 44.7992C159.258 44.7992 159.509 44.7083 159.786 44.5394C160.01 44.3706 160.221 44.1238 160.353 43.7991Z" fill="white"/>
<path d="M165.287 43.0719C165.182 43.1108 165.063 43.1498 164.944 43.1628C164.812 43.1888 164.601 43.2018 164.324 43.2277C163.863 43.2667 163.533 43.3187 163.361 43.3706C163.163 43.4356 163.031 43.5265 162.926 43.6564C162.833 43.7863 162.794 43.9292 162.794 44.085C162.794 44.2929 162.873 44.4617 163.018 44.6046C163.163 44.7475 163.388 44.8124 163.651 44.8124C163.915 44.8124 164.153 44.7475 164.417 44.6176C164.654 44.4877 164.839 44.3059 164.984 44.072C165.103 43.8382 165.208 43.5005 165.287 43.0719ZM164.997 44.7605C164.733 44.9813 164.456 45.1502 164.219 45.2541C163.968 45.358 163.691 45.4099 163.414 45.4099C162.979 45.4099 162.636 45.293 162.385 45.0462C162.121 44.7994 162.002 44.5007 162.002 44.124C162.002 43.8772 162.068 43.6564 162.161 43.4745C162.279 43.2797 162.438 43.1368 162.636 43.0199C162.833 42.903 163.058 42.8251 163.335 42.7731C163.52 42.7342 163.836 42.7082 164.337 42.6952C164.826 42.6822 165.182 42.6302 165.393 42.5523C165.459 42.3445 165.485 42.1756 165.485 42.0457C165.485 41.8769 165.419 41.734 165.287 41.6301C165.103 41.4872 164.839 41.4223 164.496 41.4223C164.166 41.4223 163.902 41.4872 163.691 41.6301C163.467 41.773 163.322 41.9678 163.229 42.2276L162.438 42.1626C162.596 41.721 162.86 41.3833 163.19 41.1625C163.546 40.9287 163.994 40.8118 164.509 40.8118C165.076 40.8118 165.538 40.9416 165.868 41.2014C166.119 41.3963 166.237 41.6431 166.237 41.9548C166.237 42.1886 166.211 42.4614 166.132 42.7731L165.881 43.8642C165.802 44.2149 165.762 44.5007 165.762 44.7085C165.762 44.8514 165.789 45.0462 165.855 45.306H165.063C165.05 45.1631 165.01 44.9813 164.997 44.7605Z" fill="white"/>
<path d="M166.817 45.3058L167.78 40.9025H168.559L168.414 41.6299C168.691 41.3181 168.955 41.0973 169.192 40.9804C169.416 40.8635 169.667 40.7986 169.931 40.7986C170.208 40.7986 170.445 40.8765 170.643 41.0194C170.841 41.1622 170.96 41.3701 171.013 41.6299C171.25 41.3571 171.488 41.1493 171.752 41.0064C172.002 40.8765 172.266 40.7986 172.556 40.7986C172.939 40.7986 173.229 40.8895 173.414 41.0583C173.612 41.2272 173.717 41.474 173.717 41.7987C173.717 41.9286 173.678 42.1624 173.612 42.4742L172.992 45.3188H172.213L172.847 42.3962C172.913 42.1624 172.939 41.9936 172.939 41.8896C172.939 41.7468 172.899 41.6299 172.794 41.5519C172.701 41.461 172.569 41.422 172.398 41.422C172.174 41.422 171.936 41.487 171.686 41.6299C171.448 41.7598 171.25 41.9416 171.131 42.1624C171 42.3832 170.881 42.721 170.775 43.1756L170.313 45.3058H169.522L170.182 42.3313C170.221 42.1235 170.234 41.9806 170.234 41.9026C170.234 41.7598 170.195 41.6428 170.102 41.5519C170.01 41.461 169.878 41.422 169.733 41.422C169.509 41.422 169.284 41.487 169.047 41.6299C168.796 41.7727 168.598 41.9546 168.453 42.2014C168.308 42.4482 168.176 42.7859 168.084 43.2405L167.622 45.3188L166.817 45.3058Z" fill="white"/>
<path d="M177.794 43.4874V43.6303C177.794 44.007 177.887 44.2928 178.071 44.4876C178.256 44.6824 178.493 44.7864 178.771 44.7864C179.034 44.7864 179.285 44.6954 179.509 44.5136C179.747 44.3317 179.931 44.046 180.077 43.6563C180.222 43.2666 180.301 42.9029 180.301 42.5782C180.301 42.2145 180.209 41.9157 180.024 41.7209C179.839 41.5131 179.602 41.4092 179.338 41.4092C179.061 41.4092 178.797 41.5131 178.559 41.7209C178.322 41.9287 178.124 42.2535 177.966 42.6821C177.86 43.0068 177.794 43.2796 177.794 43.4874ZM176.633 45.3059L177.953 39.227H178.744L178.269 41.3962C178.52 41.1754 178.744 41.0195 178.942 40.9286C179.153 40.8376 179.364 40.7987 179.588 40.7987C180.011 40.7987 180.367 40.9545 180.657 41.2663C180.934 41.578 181.092 42.0197 181.092 42.6042C181.092 42.9938 181.04 43.3575 180.908 43.6693C180.789 43.994 180.657 44.2668 180.472 44.4876C180.314 44.7084 180.129 44.8773 179.958 45.0202C179.773 45.1501 179.588 45.254 179.404 45.3189C179.206 45.3839 179.021 45.4098 178.85 45.4098C178.533 45.4098 178.282 45.3319 178.045 45.176C177.821 45.0202 177.623 44.7864 177.504 44.4746L177.332 45.3059H176.633Z" fill="white"/>
<path d="M182.651 42.708H185.223C185.236 42.63 185.236 42.5781 185.236 42.5391C185.236 42.1624 185.131 41.8767 184.933 41.6688C184.735 41.474 184.484 41.3701 184.181 41.3701C183.851 41.3701 183.548 41.487 183.271 41.7078C182.994 41.9286 182.782 42.2663 182.651 42.708ZM184.933 43.7991L185.698 43.877C185.593 44.2407 185.342 44.5784 184.933 44.9161C184.55 45.2409 184.089 45.4097 183.534 45.4097C183.191 45.4097 182.875 45.3318 182.598 45.1889C182.321 45.046 182.11 44.8252 181.951 44.5265C181.806 44.2407 181.727 43.903 181.727 43.5393C181.727 43.0587 181.846 42.5911 182.07 42.1364C182.308 41.6818 182.611 41.3441 182.98 41.1233C183.337 40.9025 183.732 40.7986 184.168 40.7986C184.722 40.7986 185.157 40.9674 185.474 41.2921C185.804 41.6169 185.962 42.0585 185.962 42.63C185.962 42.8508 185.936 43.0717 185.909 43.2925H182.532C182.519 43.3834 182.519 43.4613 182.519 43.5263C182.519 43.9419 182.611 44.2537 182.822 44.4745C183.02 44.6953 183.257 44.7992 183.534 44.7992C183.798 44.7992 184.075 44.7083 184.326 44.5394C184.59 44.3706 184.775 44.1238 184.933 43.7991Z" fill="white"/>
<path d="M187.412 43.3574C187.412 43.6562 187.438 43.89 187.504 44.0329C187.597 44.2407 187.715 44.4095 187.874 44.5265C188.019 44.6434 188.204 44.6953 188.401 44.6953C188.665 44.6953 188.916 44.6044 189.18 44.4355C189.43 44.2667 189.642 43.9939 189.787 43.6302C189.945 43.2665 190.024 42.9158 190.024 42.5911C190.024 42.2274 189.919 41.9416 189.708 41.7208C189.496 41.513 189.233 41.3961 188.929 41.3961C188.731 41.3961 188.56 41.448 188.375 41.5389C188.19 41.6429 188.032 41.7857 187.874 41.9936C187.729 42.1884 187.61 42.4352 187.531 42.708C187.438 42.9937 187.412 43.2145 187.412 43.3574ZM186.436 45.7085L187.227 45.7734C187.227 45.9423 187.24 46.0722 187.293 46.1631C187.359 46.254 187.425 46.319 187.531 46.3579C187.676 46.4229 187.861 46.4489 188.085 46.4489C188.56 46.4489 188.903 46.3319 189.101 46.0981C189.246 45.9423 189.365 45.5916 189.483 45.072L189.562 44.7083C189.167 45.111 188.731 45.3058 188.269 45.3058C187.808 45.3058 187.425 45.1369 187.109 44.8122C186.792 44.4875 186.634 44.0199 186.634 43.4224C186.634 42.9288 186.765 42.4742 187.003 42.0585C187.254 41.6428 187.544 41.3311 187.887 41.1233C188.23 40.9155 188.573 40.7986 188.942 40.7986C189.536 40.7986 189.998 41.0713 190.328 41.6169L190.473 40.8895H191.185L190.262 45.1499C190.169 45.6175 190.037 45.9812 189.879 46.241C189.721 46.5008 189.483 46.7086 189.193 46.8515C188.89 46.9944 188.573 47.0723 188.177 47.0723C187.808 47.0723 187.491 47.0334 187.227 46.9294C186.963 46.8385 186.765 46.7086 186.634 46.5268C186.502 46.3449 186.436 46.1501 186.436 45.9163C186.409 45.8513 186.409 45.7864 186.436 45.7085Z" fill="white"/>
<path d="M192.505 40.0713L192.69 39.227H193.481L193.283 40.0713H192.505ZM191.357 45.3059L192.32 40.9026H193.099L192.149 45.3059H191.357Z" fill="white"/>
<path d="M193.349 45.3058L194.312 40.9025H195.012L194.853 41.6688C195.17 41.3701 195.447 41.1493 195.711 41.0064C195.975 40.8635 196.252 40.7986 196.529 40.7986C196.898 40.7986 197.202 40.9025 197.413 41.0843C197.624 41.2792 197.729 41.5389 197.729 41.8637C197.729 42.0195 197.703 42.2793 197.624 42.63L197.043 45.3058H196.252L196.859 42.5131C196.925 42.2404 196.951 42.0455 196.951 41.9156C196.951 41.7727 196.912 41.6558 196.806 41.5519C196.7 41.461 196.542 41.409 196.344 41.409C195.948 41.409 195.579 41.5519 195.276 41.8247C194.959 42.0975 194.735 42.5781 194.59 43.2535L194.141 45.3058H193.349Z" fill="white"/>
<path d="M198.348 43.7993L199.126 43.7603C199.126 43.9812 199.153 44.163 199.232 44.3059C199.311 44.4618 199.43 44.5787 199.615 44.6826C199.799 44.7865 200.01 44.8254 200.261 44.8254C200.604 44.8254 200.868 44.7605 201.039 44.6306C201.224 44.5007 201.303 44.3449 201.303 44.163C201.303 44.0331 201.25 43.9032 201.145 43.7863C201.039 43.6694 200.789 43.5265 200.367 43.3577C199.944 43.1888 199.694 43.0719 199.575 42.994C199.377 42.8771 199.232 42.7472 199.14 42.5913C199.034 42.4354 198.994 42.2666 198.994 42.0587C198.994 41.708 199.126 41.4093 199.43 41.1625C199.707 40.9157 200.116 40.7858 200.63 40.7858C201.211 40.7858 201.646 40.9157 201.937 41.1755C202.24 41.4353 202.398 41.773 202.411 42.1886L201.633 42.2406C201.633 41.9678 201.528 41.76 201.356 41.6171C201.158 41.4613 200.907 41.3833 200.564 41.3833C200.301 41.3833 200.089 41.4483 199.944 41.5652C199.799 41.6821 199.72 41.812 199.72 41.9548C199.72 42.0977 199.773 42.2146 199.918 42.3185C200.01 42.3965 200.235 42.5004 200.591 42.6563C201.184 42.903 201.554 43.0979 201.725 43.2408C201.963 43.4746 202.095 43.7473 202.095 44.0721C202.095 44.2929 202.016 44.5007 201.884 44.7085C201.739 44.9164 201.528 45.0852 201.25 45.2151C200.947 45.345 200.63 45.41 200.235 45.41C199.694 45.41 199.258 45.2801 198.876 45.0333C198.493 44.7735 198.322 44.3708 198.348 43.7993Z" fill="white"/>
<path d="M117.798 37.6579C111.962 37.6579 108.551 34.171 108.289 29.2509L108.267 28.9942H113.098L113.12 29.1868C113.317 31.5398 114.825 33.3795 117.754 33.3795C120.99 33.3795 122.738 31.4971 122.738 27.9674V6.27623H127.635V28.0102C127.635 34.0855 123.984 37.6579 117.798 37.6579Z" fill="white"/>
<path d="M142.827 37.5937C136.226 37.5937 131.919 33.1228 131.919 25.8924V25.8496C131.919 18.662 136.27 14.2126 142.806 14.2126C149.363 14.2126 153.735 18.6406 153.735 25.8496V25.8924C153.735 33.1442 149.407 37.5937 142.827 37.5937ZM142.849 33.7218C146.544 33.7218 148.904 30.8553 148.904 25.8924V25.8496C148.904 20.9296 146.5 18.0845 142.806 18.0845C139.177 18.0845 136.75 20.9296 136.75 25.8496V25.8924C136.75 30.8767 139.155 33.7218 142.849 33.7218Z" fill="white"/>
<path d="M169.606 37.5937C166.305 37.5937 163.747 35.9679 162.392 33.3367H162.283V37.1445H157.561V6.27623H162.283V18.4695H162.392C163.769 15.8169 166.392 14.2126 169.649 14.2126C175.42 14.2126 179.224 18.7048 179.224 25.871V25.8924C179.224 33.0587 175.442 37.5937 169.606 37.5937ZM168.36 33.6148C172.076 33.6148 174.393 30.6842 174.393 25.8924V25.871C174.393 21.1221 172.076 18.17 168.36 18.17C164.796 18.17 162.261 21.2076 162.261 25.871V25.8924C162.261 30.5772 164.775 33.6148 168.36 33.6148Z" fill="white"/>
<path d="M191.487 37.5937C185.738 37.5937 182.372 34.8128 181.891 30.7056L181.869 30.513H186.547L186.591 30.727C187.028 32.802 188.602 34.0213 191.509 34.0213C194.351 34.0213 196.056 32.8661 196.056 31.0478V31.0264C196.056 29.5718 195.225 28.7375 192.755 28.16L188.995 27.3257C184.623 26.3417 182.459 24.2881 182.459 21.0151V20.9937C182.459 16.9721 186.044 14.2126 191.334 14.2126C196.777 14.2126 200.056 17.186 200.297 21.0151L200.318 21.2718H195.881L195.859 21.1221C195.575 19.154 194.001 17.785 191.334 17.785C188.798 17.785 187.203 18.9615 187.203 20.7584V20.7798C187.203 22.1703 188.143 23.1115 190.613 23.6891L194.351 24.5234C199.051 25.5929 200.843 27.4112 200.843 30.6414V30.6628C200.843 34.77 196.908 37.5937 191.487 37.5937Z" fill="white"/>
</svg>
