<svg width="16" height="16" viewBox="0 0 16 16" fill="none" xmlns="http://www.w3.org/2000/svg">
<mask id="path-1-inside-1_0_1570" fill="white">
<path d="M7.99904 11.2C7.53237 11.2 7.0657 11.02 6.71237 10.6667L2.3657 6.31999C2.17237 6.12666 2.17237 5.80666 2.3657 5.61332C2.55904 5.41999 2.87904 5.41999 3.07237 5.61332L7.41904 9.95999C7.73904 10.28 8.25904 10.28 8.57904 9.95999L12.9257 5.61332C13.119 5.41999 13.439 5.41999 13.6324 5.61332C13.8257 5.80666 13.8257 6.12666 13.6324 6.31999L9.2857 10.6667C8.93237 11.02 8.4657 11.2 7.99904 11.2Z"/>
</mask>
<path d="M7.99904 11.2C7.53237 11.2 7.0657 11.02 6.71237 10.6667L2.3657 6.31999C2.17237 6.12666 2.17237 5.80666 2.3657 5.61332C2.55904 5.41999 2.87904 5.41999 3.07237 5.61332L7.41904 9.95999C7.73904 10.28 8.25904 10.28 8.57904 9.95999L12.9257 5.61332C13.119 5.41999 13.439 5.41999 13.6324 5.61332C13.8257 5.80666 13.8257 6.12666 13.6324 6.31999L9.2857 10.6667C8.93237 11.02 8.4657 11.2 7.99904 11.2Z" fill="#292D32"/>
<path d="M6.71237 10.6667L6.00526 11.3738L6.71237 10.6667ZM2.3657 6.31999L3.07281 5.61288V5.61288L2.3657 6.31999ZM3.07237 5.61332L2.36526 6.32043L3.07237 5.61332ZM7.41904 9.95999L8.12614 9.25288L7.41904 9.95999ZM8.57904 9.95999L9.28614 10.6671L8.57904 9.95999ZM12.9257 5.61332L12.2186 4.90622V4.90622L12.9257 5.61332ZM13.6324 6.31999L12.9253 5.61288V5.61288L13.6324 6.31999ZM9.2857 10.6667L9.99281 11.3738L9.2857 10.6667ZM7.99904 10.2C7.78841 10.2 7.57889 10.119 7.41948 9.95955L6.00526 11.3738C6.55252 11.921 7.27633 12.2 7.99904 12.2V10.2ZM7.41948 9.95955L3.07281 5.61288L1.6586 7.0271L6.00526 11.3738L7.41948 9.95955ZM3.07281 5.61288C3.27 5.81007 3.27 6.12324 3.07281 6.32043L1.6586 4.90622C1.07474 5.49007 1.07474 6.44324 1.6586 7.0271L3.07281 5.61288ZM3.07281 6.32043C2.87562 6.51762 2.56245 6.51762 2.36526 6.32043L3.77948 4.90622C3.19562 4.32236 2.24245 4.32236 1.6586 4.90622L3.07281 6.32043ZM2.36526 6.32043L6.71193 10.6671L8.12614 9.25288L3.77948 4.90622L2.36526 6.32043ZM6.71193 10.6671C7.42245 11.3776 8.57562 11.3776 9.28614 10.6671L7.87193 9.25288C7.94245 9.18236 8.05562 9.18236 8.12614 9.25288L6.71193 10.6671ZM9.28614 10.6671L13.6328 6.32043L12.2186 4.90622L7.87193 9.25288L9.28614 10.6671ZM13.6328 6.32043C13.4356 6.51762 13.1225 6.51762 12.9253 6.32043L14.3395 4.90622C13.7556 4.32236 12.8025 4.32236 12.2186 4.90622L13.6328 6.32043ZM12.9253 6.32043C12.7281 6.12324 12.7281 5.81007 12.9253 5.61288L14.3395 7.0271C14.9233 6.44324 14.9233 5.49007 14.3395 4.90622L12.9253 6.32043ZM12.9253 5.61288L8.5786 9.95955L9.99281 11.3738L14.3395 7.0271L12.9253 5.61288ZM8.5786 9.95955C8.41919 10.119 8.20966 10.2 7.99904 10.2V12.2C8.72175 12.2 9.44555 11.921 9.99281 11.3738L8.5786 9.95955Z" fill="#3D3D3D" mask="url(#path-1-inside-1_0_1570)"/>
</svg>
