<svg width="16" height="16" viewBox="0 0 16 16" fill="none" xmlns="http://www.w3.org/2000/svg">
<path d="M10 4.71332C10 4.26665 9.78 3.85332 9.40667 3.60665L6.74 1.82665C6.29333 1.52665 5.70667 1.52665 5.26 1.82665L2.59333 3.60665C2.22667 3.85332 2 4.26665 2 4.71332V8.49999C2 8.68665 2.14667 8.83332 2.33333 8.83332H9.66667C9.85333 8.83332 10 8.68665 10 8.49999V4.71332ZM6 7.16665C5.36 7.16665 4.83333 6.63999 4.83333 5.99999C4.83333 5.35999 5.36 4.83332 6 4.83332C6.64 4.83332 7.16667 5.35999 7.16667 5.99999C7.16667 6.63999 6.64 7.16665 6 7.16665Z" fill="#BC2228"/>
<path d="M14.6663 14.1667H13.8197V12.1667C14.453 11.96 14.913 11.3667 14.913 10.6667V9.33334C14.913 8.46001 14.1997 7.74667 13.3263 7.74667C12.453 7.74667 11.7397 8.46001 11.7397 9.33334V10.6667C11.7397 11.36 12.193 11.9467 12.813 12.16V14.1667H9.99967V10.1667C9.99967 9.98001 9.85301 9.83334 9.66634 9.83334H2.33301C2.14634 9.83334 1.99967 9.98001 1.99967 10.1667V14.1667H1.33301C1.05967 14.1667 0.833008 14.3933 0.833008 14.6667C0.833008 14.94 1.05967 15.1667 1.33301 15.1667H13.2863C13.2997 15.1667 13.3063 15.1733 13.3197 15.1733C13.333 15.1733 13.3397 15.1667 13.353 15.1667H14.6663C14.9397 15.1667 15.1663 14.94 15.1663 14.6667C15.1663 14.3933 14.9397 14.1667 14.6663 14.1667ZM5.49967 12.1667C5.49967 11.8933 5.72634 11.6667 5.99967 11.6667C6.27301 11.6667 6.49967 11.8933 6.49967 12.1667V14.1667H5.49967V12.1667Z" fill="#BC2228"/>
</svg>
