<svg width="16" height="16" viewBox="0 0 16 16" fill="none" xmlns="http://www.w3.org/2000/svg">
<path d="M8.00065 1.33334C4.32732 1.33334 1.33398 4.32668 1.33398 8.00001C1.33398 11.6733 4.32732 14.6667 8.00065 14.6667C11.674 14.6667 14.6673 11.6733 14.6673 8.00001C14.6673 4.32668 11.674 1.33334 8.00065 1.33334ZM10.2407 9.53334C10.434 9.72668 10.434 10.0467 10.2407 10.24C10.1407 10.34 10.014 10.3867 9.88732 10.3867C9.76065 10.3867 9.63398 10.34 9.53399 10.24L8.00065 8.70668L6.46732 10.24C6.36732 10.34 6.24065 10.3867 6.11398 10.3867C5.98732 10.3867 5.86065 10.34 5.76065 10.24C5.56732 10.0467 5.56732 9.72668 5.76065 9.53334L7.29398 8.00001L5.76065 6.46668C5.56732 6.27334 5.56732 5.95334 5.76065 5.76001C5.95398 5.56668 6.27398 5.56668 6.46732 5.76001L8.00065 7.29334L9.53399 5.76001C9.72732 5.56668 10.0473 5.56668 10.2407 5.76001C10.434 5.95334 10.434 6.27334 10.2407 6.46668L8.70732 8.00001L10.2407 9.53334Z" fill="#BC2228"/>
</svg>
